<svg width="49" height="48" viewBox="0 0 49 48" fill="none" xmlns="http://www.w3.org/2000/svg">
<path d="M28.5075 23.5825L22.8925 20.9625C22.4025 20.735 22 20.99 22 21.5325V26.4675C22 27.01 22.4025 27.265 22.8925 27.0375L28.505 24.4175C28.9975 24.1875 28.9975 23.8125 28.5075 23.5825ZM24.5 0C11.245 0 0.5 10.745 0.5 24C0.5 37.255 11.245 48 24.5 48C37.755 48 48.5 37.255 48.5 24C48.5 10.745 37.755 0 24.5 0ZM24.5 33.75C12.215 33.75 12 32.6425 12 24C12 15.3575 12.215 14.25 24.5 14.25C36.785 14.25 37 15.3575 37 24C37 32.6425 36.785 33.75 24.5 33.75Z" fill="white"/>
</svg>
