<?xml version="1.0" standalone="no"?>
<!DOCTYPE svg PUBLIC "-//W3C//DTD SVG 20010904//EN"
 "http://www.w3.org/TR/2001/REC-SVG-20010904/DTD/svg10.dtd">
<svg version="1.0" xmlns="http://www.w3.org/2000/svg"
 width="3464.000000pt" height="3464.000000pt" viewBox="0 0 3464.000000 3464.000000"
 preserveAspectRatio="xMidYMid meet">

<g transform="translate(0.000000,3464.000000) scale(0.100000,-0.100000)"
fill="#ffffff" stroke="none">
<path d="M14915 32440 c-253 -60 -503 -123 -555 -140 -408 -138 -661 -419
-751 -835 -26 -118 -36 -375 -20 -515 7 -58 25 -170 41 -250 124 -616 417
-1038 827 -1192 164 -61 373 -83 558 -59 112 15 1038 227 1075 246 63 33 78
-46 -265 1438 -212 916 -321 1370 -334 1387 -32 44 -77 37 -576 -80z m823
-1325 c171 -737 309 -1341 307 -1343 -5 -6 -889 -210 -984 -228 -132 -25 -376
-15 -494 20 -361 108 -618 393 -771 858 -51 152 -90 318 -112 481 -24 166 -14
447 19 578 51 196 123 331 246 461 154 163 319 251 596 319 361 89 870 205
877 200 4 -3 146 -609 316 -1346z"/>
<path d="M14815 32025 c-228 -53 -332 -82 -389 -109 -253 -116 -393 -314 -426
-601 -15 -131 -5 -222 55 -491 97 -432 126 -521 217 -660 163 -248 412 -368
693 -335 79 9 681 143 690 153 2 2 -218 959 -461 2006 -23 101 -28 112 -47
111 -12 -1 -162 -34 -332 -74z m294 -62 c30 -116 442 -1915 440 -1917 -9 -5
-511 -117 -569 -126 -90 -14 -138 -13 -228 6 -200 40 -365 180 -467 395 -37
80 -76 222 -151 554 -43 191 -48 222 -48 340 0 218 51 352 184 486 119 120
180 146 528 229 158 38 290 69 294 69 4 1 12 -16 17 -36z"/>
<path d="M18997 32486 c-14 -13 -28 -39 -31 -57 -3 -19 -26 -338 -52 -709 -25
-371 -50 -692 -55 -713 -21 -80 -113 -146 -241 -173 -59 -13 -109 -14 -254 -9
-100 4 -191 4 -203 0 -38 -12 -48 -52 -61 -237 -18 -250 -19 -249 230 -251
115 0 173 4 224 16 78 20 172 64 227 108 20 16 40 29 43 29 4 0 4 -26 1 -57
-8 -70 4 -107 42 -126 17 -9 95 -19 204 -27 189 -13 207 -10 230 33 8 14 40
411 85 1057 80 1144 79 1087 12 1108 -29 9 -280 32 -351 32 -13 0 -36 -11 -50
-24z m316 -83 l59 -6 -6 -51 c-3 -28 -35 -485 -72 -1016 -37 -531 -68 -967
-70 -969 -4 -4 -306 18 -311 23 -3 2 0 66 6 142 16 210 16 224 6 225 -6 1 -21
-18 -34 -42 -14 -24 -59 -78 -100 -119 -134 -133 -260 -176 -480 -167 -68 3
-126 8 -128 11 -5 5 14 307 20 312 1 1 56 -2 122 -7 265 -21 445 22 552 133
74 76 71 54 124 813 27 380 49 701 49 714 l0 24 103 -7 c56 -4 128 -9 160 -13z"/>
<path d="M20573 32230 c-122 -18 -275 -80 -393 -160 -69 -47 -197 -181 -206
-216 -10 -40 12 -74 129 -199 140 -149 145 -149 255 -36 117 119 214 161 376
161 278 0 487 -165 526 -415 10 -65 5 -187 -9 -211 -4 -7 -228 35 -676 127
-368 76 -682 138 -697 139 -56 0 -77 -34 -104 -165 -66 -321 -48 -570 56 -792
50 -108 88 -162 179 -257 151 -156 294 -228 546 -272 526 -92 991 258 1144
864 115 455 38 863 -215 1132 -68 72 -177 156 -251 194 -172 88 -464 135 -660
106z m327 -95 c278 -54 467 -168 597 -360 123 -183 169 -363 161 -627 -19
-543 -281 -963 -686 -1098 -175 -58 -399 -51 -596 21 -211 76 -369 222 -465
431 -95 206 -112 419 -57 702 13 64 25 119 28 122 3 3 326 -61 718 -141 392
-80 715 -144 717 -141 14 14 34 153 34 237 0 117 -12 170 -62 275 -29 63 -53
94 -103 142 -80 75 -127 103 -231 138 -96 32 -265 44 -358 25 -93 -20 -192
-76 -277 -157 l-77 -73 -91 100 -92 101 35 42 c99 122 283 227 454 261 90 18
260 18 351 0z"/>
<path d="M20150 30943 c-38 -267 64 -499 263 -600 154 -78 388 -83 530 -12
147 74 270 233 313 403 9 37 15 68 13 70 -4 3 -1089 226 -1100 226 -4 0 -12
-39 -19 -87z m557 -113 c241 -49 441 -90 446 -90 33 0 -40 -143 -115 -225 -44
-48 -79 -74 -135 -102 -69 -34 -85 -38 -173 -41 -115 -5 -188 9 -272 51 -148
73 -228 219 -228 414 0 76 2 83 20 83 10 0 216 -40 457 -90z"/>
<path d="M24723 31561 c-11 -10 -84 -165 -163 -343 -79 -177 -158 -357 -177
-398 l-34 -75 -31 60 c-71 141 -172 236 -333 315 -282 139 -564 130 -827 -26
-110 -65 -282 -235 -367 -363 -120 -182 -224 -426 -268 -631 -13 -64 -18 -129
-18 -260 0 -151 3 -186 23 -258 77 -283 279 -493 568 -593 95 -32 105 -34 244
-34 109 1 156 5 188 17 40 15 43 15 37 0 -29 -70 -26 -112 10 -142 27 -23 324
-150 350 -150 13 0 35 10 49 23 33 29 1179 2618 1180 2665 0 49 -32 72 -200
146 -160 70 -198 78 -231 47z m206 -133 l139 -63 -12 -30 c-69 -160 -1129
-2552 -1135 -2558 -7 -7 -268 105 -282 121 -4 4 22 72 58 151 35 79 63 147 61
152 -2 5 -27 -11 -57 -36 -65 -52 -155 -98 -231 -116 -75 -17 -201 -13 -291
10 -402 103 -637 457 -589 888 33 305 192 665 392 887 123 138 309 251 463
282 313 64 669 -97 793 -357 38 -79 52 -131 67 -241 3 -27 9 -48 13 -48 4 0
108 229 232 510 124 280 228 510 232 510 4 0 70 -28 147 -62z"/>
<path d="M23493 30805 c-168 -46 -294 -162 -387 -360 -76 -159 -175 -398 -191
-460 -20 -78 -20 -224 0 -299 53 -198 231 -350 470 -402 113 -25 259 -13 339
28 59 30 129 101 158 160 91 186 328 743 338 794 29 150 -47 307 -205 419
-161 115 -365 162 -522 120z m278 -96 c97 -32 177 -78 246 -142 83 -78 116
-147 117 -242 1 -69 -1 -74 -169 -453 -105 -239 -181 -398 -201 -420 -98 -115
-323 -123 -526 -21 -213 107 -301 326 -227 565 23 73 177 427 214 490 33 56
118 148 162 175 117 73 256 90 384 48z"/>
<path d="M11472 31449 c-149 -19 -346 -96 -484 -190 -173 -117 -307 -294 -372
-489 -28 -87 -50 -252 -38 -294 13 -49 46 -63 211 -91 212 -36 224 -30 240
123 11 100 35 173 85 247 89 134 286 235 458 235 131 0 222 -37 322 -129 49
-46 126 -153 126 -176 0 -7 -280 -148 -622 -314 -343 -166 -631 -311 -640
-323 -30 -35 -22 -81 37 -198 92 -183 154 -272 273 -393 296 -301 714 -374
1088 -191 278 136 460 355 531 640 22 88 24 357 4 459 -34 172 -137 419 -238
572 -197 296 -465 475 -768 512 -100 12 -121 12 -213 0z m343 -114 c273 -80
501 -294 660 -620 100 -205 145 -381 145 -570 0 -254 -77 -453 -240 -616 -105
-106 -212 -171 -372 -227 -372 -132 -753 9 -1010 373 -50 71 -176 310 -168
319 3 2 297 146 655 320 357 173 651 320 653 325 6 19 -78 167 -132 232 -62
75 -166 150 -251 180 -83 30 -227 36 -318 15 -38 -9 -101 -32 -140 -52 -219
-110 -337 -273 -354 -487 -6 -77 -6 -78 -32 -73 -14 3 -69 13 -121 21 -142 24
-132 17 -124 88 20 202 100 372 240 512 132 131 343 244 529 281 105 21 268
12 380 -21z"/>
<path d="M11741 30176 c-272 -134 -497 -248 -499 -254 -5 -15 68 -138 122
-204 55 -68 160 -140 246 -169 277 -94 626 105 705 401 21 79 19 221 -4 313
-20 77 -56 158 -69 156 -4 -1 -230 -110 -501 -243z m484 69 c24 -80 22 -227
-4 -300 -58 -166 -197 -282 -381 -321 -144 -30 -293 23 -402 143 -43 49 -82
112 -74 121 8 8 827 410 838 411 4 1 15 -24 23 -54z"/>
<path d="M8905 30051 c-194 -48 -371 -149 -533 -305 -198 -190 -281 -376 -270
-605 5 -87 11 -121 37 -186 63 -164 201 -326 333 -393 200 -101 431 -74 723
84 264 143 381 187 448 170 39 -9 107 -74 128 -121 55 -120 -9 -242 -187 -361
-91 -59 -182 -87 -294 -87 -52 0 -111 4 -130 9 -52 16 -98 0 -115 -39 -21 -46
-67 -312 -59 -342 9 -38 51 -61 134 -76 317 -55 635 56 891 311 206 205 289
446 234 678 -37 155 -163 333 -300 422 -100 64 -179 85 -320 84 -184 -1 -262
-29 -640 -227 -129 -68 -203 -87 -265 -68 -91 27 -168 140 -156 229 9 70 35
112 117 194 62 62 95 85 170 122 147 70 202 75 472 40 57 -8 91 7 106 45 6 14
27 93 47 175 37 147 37 149 19 182 -20 37 -41 47 -159 69 -109 21 -340 19
-431 -4z m439 -86 c38 -8 70 -16 72 -17 1 -2 -12 -64 -30 -138 l-32 -135 -34
2 c-316 21 -366 16 -505 -52 -107 -52 -214 -138 -272 -220 -99 -142 -89 -294
29 -414 78 -79 170 -105 278 -77 68 18 113 38 330 153 178 94 297 134 415 141
190 10 324 -53 450 -213 81 -102 118 -196 123 -316 5 -116 -8 -183 -53 -278
-102 -212 -357 -424 -596 -495 -94 -28 -229 -39 -337 -26 -53 6 -100 15 -104
19 -4 3 4 67 17 140 14 74 25 135 25 137 0 1 17 -2 37 -8 21 -6 90 -8 158 -6
102 4 130 9 188 33 147 60 297 185 347 289 78 163 -22 379 -191 415 -91 20
-165 -4 -434 -138 -279 -140 -337 -161 -460 -168 -181 -10 -323 58 -440 212
-113 149 -153 281 -133 443 18 151 96 294 232 427 177 173 378 276 601 309 53
8 248 -4 319 -19z"/>
<path d="M26090 29515 c-153 -34 -280 -91 -405 -180 -397 -284 -653 -788 -606
-1189 28 -242 124 -434 296 -594 184 -173 399 -269 627 -279 232 -11 425 47
637 194 241 167 467 473 554 749 46 146 60 246 54 384 -12 259 -102 456 -289
636 -137 131 -281 216 -448 264 -99 29 -324 37 -420 15z m423 -109 c158 -53
281 -129 398 -245 169 -168 249 -362 249 -602 0 -243 -86 -478 -263 -714 -172
-230 -376 -381 -617 -457 -65 -20 -96 -23 -225 -23 -176 0 -254 18 -394 90
-290 150 -474 418 -497 722 -18 235 73 516 243 753 188 263 407 422 678 492
108 27 322 20 428 -16z"/>
<path d="M26129 29141 c-142 -45 -246 -136 -405 -351 -132 -178 -175 -243
-212 -316 -130 -258 -59 -537 183 -709 119 -85 232 -125 355 -125 215 0 355
101 591 427 188 261 233 362 233 518 0 107 -25 192 -83 282 -78 121 -246 241
-387 277 -82 21 -204 20 -275 -3z m321 -105 c246 -105 383 -339 325 -556 -24
-91 -79 -186 -210 -365 -212 -290 -317 -374 -478 -383 -100 -6 -173 10 -262
57 -150 78 -262 222 -287 372 -21 123 28 261 158 441 238 329 306 397 453 454
24 9 69 13 136 11 83 -3 111 -8 165 -31z"/>
<path d="M6592 28203 c-188 -196 -194 -214 -109 -298 124 -122 1472 -1371
1491 -1382 55 -32 80 -16 222 137 116 126 131 150 120 194 -4 16 -264 265
-709 677 -386 359 -732 681 -770 716 -58 54 -73 63 -105 63 -34 0 -45 -9 -140
-107z m907 -692 c399 -370 727 -676 728 -680 2 -3 -46 -57 -105 -119 l-107
-114 -675 628 c-371 345 -708 658 -749 696 l-73 68 107 115 c106 114 108 115
128 98 11 -10 347 -321 746 -692z"/>
<path d="M28282 27658 c-177 -170 -178 -170 -56 -299 72 -75 84 -93 73 -103
-65 -60 -1794 -1708 -1826 -1741 -36 -37 -43 -50 -43 -84 0 -38 7 -48 121
-168 135 -143 162 -161 212 -139 30 13 1841 1729 1939 1838 84 94 127 216 113
323 -13 108 -82 210 -258 383 -130 127 -131 127 -275 -10z m275 -118 c140
-151 168 -202 167 -305 -1 -140 55 -80 -1022 -1107 -529 -505 -966 -918 -971
-918 -5 0 -55 50 -112 112 l-104 111 160 153 c88 85 519 495 957 911 438 417
797 762 797 768 1 5 -45 56 -101 113 l-103 104 100 94 c55 51 103 93 108 91 4
-1 60 -58 124 -127z"/>
<path d="M4795 27192 c-153 -39 -302 -146 -453 -326 -237 -284 -433 -660 -472
-906 -46 -293 83 -537 358 -675 229 -115 471 -77 675 105 89 80 160 173 349
460 154 234 237 340 267 340 4 0 20 -9 35 -21 23 -18 26 -27 26 -82 0 -82 -16
-135 -50 -172 -39 -42 -116 -157 -151 -227 -121 -240 -136 -480 -42 -702 94
-224 339 -417 591 -466 39 -8 108 -11 182 -8 66 3 120 4 120 2 0 -2 -38 -63
-85 -135 -47 -73 -85 -140 -85 -150 0 -44 28 -72 149 -150 139 -90 170 -103
206 -87 30 14 219 297 247 371 15 39 19 68 16 117 -5 71 -19 103 -72 172 l-34
46 50 48 c116 114 225 290 272 441 59 191 53 371 -21 548 -108 258 -389 458
-676 481 -74 5 -227 -11 -278 -31 -11 -4 -14 12 -15 87 0 80 -4 102 -28 155
-37 80 -121 162 -213 206 -61 29 -77 32 -159 32 l-92 0 -4 95 c-4 80 -10 106
-36 160 -96 202 -362 327 -577 272z m292 -117 c100 -49 183 -131 211 -208 24
-64 29 -188 11 -267 -15 -65 3 -75 79 -44 117 48 242 20 340 -75 68 -66 87
-118 87 -231 -1 -61 -7 -116 -19 -154 -9 -32 -15 -60 -13 -62 2 -3 33 9 68 25
101 48 182 65 294 65 196 -1 353 -70 505 -223 140 -141 194 -269 193 -461 0
-132 -20 -214 -83 -345 -71 -146 -181 -283 -297 -367 l-42 -31 37 -27 c117
-87 158 -187 117 -287 -19 -46 -186 -303 -197 -303 -6 0 -201 123 -221 140 -4
3 37 74 91 156 54 82 101 155 105 161 5 8 -11 25 -47 48 -52 33 -58 35 -98 25
-76 -17 -236 -12 -317 10 -240 67 -432 251 -502 480 -18 58 -23 99 -23 180 1
200 70 377 220 561 44 54 56 78 70 135 34 148 6 246 -81 285 -103 46 -165 -11
-403 -371 -96 -146 -204 -300 -241 -343 -135 -161 -277 -237 -441 -237 -145 0
-294 72 -412 198 -213 227 -158 590 161 1069 260 390 467 551 695 539 66 -4
91 -10 153 -41z"/>
<path d="M4751 26775 c-82 -39 -162 -128 -296 -335 -188 -290 -235 -400 -235
-545 1 -117 56 -202 168 -253 93 -42 186 -23 274 56 61 55 108 120 323 451
l197 304 -4 71 c-8 117 -65 200 -174 251 -74 35 -177 35 -253 0z m217 -80 c74
-31 121 -102 122 -182 0 -37 -20 -71 -192 -335 -194 -298 -252 -377 -305 -422
-84 -71 -181 -60 -247 27 -58 76 -48 199 28 352 53 106 261 423 314 479 66 69
118 96 184 96 32 0 75 -7 96 -15z"/>
<path d="M6005 25831 c-141 -38 -290 -195 -351 -371 -27 -79 -26 -200 3 -263
43 -92 205 -223 352 -284 85 -34 184 -32 266 7 166 79 318 330 302 501 -11
122 -75 206 -235 311 -134 86 -253 121 -337 99z m204 -121 c106 -57 213 -142
246 -194 26 -43 30 -59 30 -120 0 -85 -21 -145 -82 -238 -81 -123 -197 -197
-287 -183 -90 15 -283 130 -343 206 -67 85 -69 190 -6 318 47 94 155 208 223
234 64 24 146 16 219 -23z"/>
<path d="M8538 26535 c-58 -19 -145 -96 -180 -162 -60 -110 -44 -204 53 -308
84 -89 146 -119 238 -113 61 3 76 8 125 42 101 69 162 178 152 268 -7 63 -29
108 -81 166 -92 101 -203 140 -307 107z m147 -94 c57 -26 142 -119 151 -166
11 -58 -11 -113 -70 -171 -84 -84 -157 -90 -248 -21 -69 53 -103 109 -103 171
0 44 6 59 38 104 69 94 148 122 232 83z"/>
<path d="M29487 25771 c-68 -14 -80 -36 -88 -158 -15 -207 -13 -231 20 -264
29 -29 31 -29 144 -29 88 0 127 -5 173 -20 227 -78 403 -355 366 -578 -15 -88
-68 -195 -131 -264 -48 -53 -117 -105 -126 -96 -2 2 -174 260 -382 573 -209
314 -387 578 -397 588 -37 36 -84 23 -202 -58 -151 -103 -251 -191 -327 -285
-304 -380 -312 -830 -21 -1210 260 -341 673 -457 1113 -313 117 38 235 97 356
178 292 195 467 415 551 690 25 82 28 104 28 250 0 146 -3 168 -28 250 -68
223 -229 450 -412 581 -81 58 -211 119 -309 145 -87 23 -263 34 -328 20z m263
-95 c93 -20 215 -69 286 -116 187 -122 345 -336 415 -560 21 -66 24 -94 23
-230 0 -142 -2 -162 -28 -240 -75 -228 -242 -440 -471 -596 -458 -311 -902
-335 -1236 -66 -245 197 -377 501 -341 784 35 283 203 527 497 728 58 39 110
70 115 68 5 -2 191 -276 412 -610 l403 -607 65 44 c190 128 301 311 302 501 1
141 -43 267 -140 395 -122 161 -280 239 -486 239 l-89 0 7 132 c4 87 10 135
19 140 20 13 177 9 247 -6z"/>
<path d="M28930 24992 c-249 -184 -327 -452 -202 -697 128 -255 386 -374 656
-305 77 19 236 94 236 111 0 9 -617 939 -623 939 -1 0 -31 -22 -67 -48z m310
-469 c140 -212 256 -389 258 -393 4 -11 -87 -47 -156 -60 -37 -8 -98 -11 -148
-7 -72 4 -98 11 -158 41 -97 47 -183 137 -234 243 -35 75 -37 82 -37 184 0
101 1 108 38 182 37 75 144 198 170 196 7 0 127 -174 267 -386z"/>
<path d="M3629 24165 c-28 -15 -41 -41 -113 -229 -49 -126 -55 -159 -31 -192
18 -27 -1 -19 750 -309 352 -137 659 -261 682 -276 28 -20 50 -47 70 -86 25
-52 28 -69 28 -158 0 -175 -69 -327 -180 -401 -51 -34 -63 -38 -141 -42 -60
-3 -106 1 -157 13 -40 10 -350 125 -691 256 -340 132 -631 239 -645 239 -44 0
-68 -37 -131 -199 -63 -161 -70 -202 -42 -238 12 -15 207 -95 653 -267 350
-135 675 -256 721 -270 285 -82 529 -49 727 100 83 62 154 153 211 269 95 194
119 384 66 535 -14 41 -24 75 -22 77 2 2 15 -1 30 -7 44 -16 85 -12 109 13 12
12 51 97 86 189 69 181 71 203 20 239 -23 17 -1900 742 -1949 753 -14 3 -37
-1 -51 -9z m1928 -804 c21 -10 21 -11 -33 -153 -31 -78 -57 -145 -59 -147 -3
-2 -72 22 -155 54 -83 32 -153 55 -156 52 -4 -3 15 -30 40 -59 101 -114 167
-300 152 -422 -24 -185 -110 -361 -232 -475 -176 -165 -440 -205 -721 -111
-162 55 -1293 496 -1293 505 0 14 100 268 108 277 4 4 271 -94 592 -218 760
-293 708 -276 855 -278 113 -1 124 1 183 28 111 52 206 179 250 339 25 92 22
254 -7 328 -31 82 -88 142 -174 183 -40 19 -355 144 -702 277 -346 133 -634
246 -639 250 -5 4 11 60 37 126 25 65 51 130 56 145 l10 26 933 -359 c513
-197 943 -363 955 -368z"/>
<path d="M30356 22681 l-1019 -47 -23 -28 c-13 -15 -24 -39 -24 -55 0 -28 108
-306 135 -347 15 -23 21 -24 118 -24 172 0 1052 39 1271 56 113 8 213 14 221
12 9 -2 -57 -63 -162 -149 -246 -202 -983 -851 -1011 -890 -14 -20 -20 -40
-16 -53 19 -69 130 -331 146 -346 29 -27 64 -32 96 -16 28 15 1605 1394 1655
1447 15 16 27 41 27 55 0 37 -148 396 -172 417 -27 23 -35 23 -1242 -32z
m1253 -198 c35 -87 65 -163 68 -169 2 -7 -348 -321 -779 -699 -431 -379 -797
-701 -814 -717 l-31 -29 -57 140 c-31 78 -56 147 -55 154 1 16 736 659 1079
943 151 125 276 233 278 240 4 18 23 19 -410 -15 -362 -29 -1358 -71 -1389
-59 -14 5 -126 264 -118 272 5 5 1914 93 2055 95 l110 1 63 -157z"/>
<path d="M3105 21095 c-113 -21 -195 -48 -310 -105 -341 -167 -529 -517 -512
-953 7 -187 50 -324 152 -482 80 -125 219 -245 284 -245 34 0 47 10 159 123
78 79 122 131 122 145 0 41 -18 68 -78 115 -68 53 -130 139 -162 224 -63 169
-16 416 105 551 97 107 209 152 383 152 l103 0 -6 -32 c-3 -18 -53 -330 -110
-693 -93 -593 -102 -663 -90 -692 7 -17 22 -36 32 -41 10 -6 81 -20 158 -32
324 -52 634 3 852 151 191 130 326 327 378 554 25 107 36 269 25 361 -28 227
-109 394 -266 551 -167 167 -381 274 -666 334 -135 28 -433 36 -553 14z m354
-75 c454 -40 801 -238 956 -545 68 -134 88 -222 88 -385 0 -88 -6 -160 -16
-206 -71 -313 -267 -535 -562 -633 -130 -43 -232 -55 -409 -48 -128 6 -279 25
-290 38 -2 2 47 328 110 724 62 395 112 720 110 722 -1 2 -26 7 -56 13 -80 15
-243 12 -314 -6 -139 -36 -265 -129 -339 -250 -49 -82 -76 -168 -89 -287 -14
-126 3 -224 57 -335 35 -70 126 -177 185 -216 l25 -16 -99 -99 -99 -100 -46
37 c-118 93 -222 250 -273 412 -20 67 -23 94 -23 250 0 210 18 297 95 455 136
280 401 442 780 478 70 7 97 7 209 -3z"/>
<path d="M3598 20098 c-48 -304 -84 -556 -80 -560 15 -15 207 -21 278 -9 107
19 224 79 294 150 156 160 195 442 90 650 -36 72 -122 167 -196 216 -61 41
-185 89 -254 100 l-45 7 -87 -554z m289 400 c238 -116 331 -402 212 -654 -32
-67 -111 -149 -177 -183 -59 -30 -156 -51 -241 -51 -71 0 -73 1 -68 23 3 12
35 216 72 452 37 237 68 436 71 444 6 19 48 9 131 -31z"/>
<path d="M31731 20318 c-26 -28 -151 -285 -151 -311 0 -38 33 -77 80 -93 198
-68 311 -187 360 -380 65 -255 -31 -479 -252 -584 -95 -45 -167 -65 -173 -47
-2 7 -60 318 -129 692 -119 646 -126 681 -151 703 -34 29 -65 28 -217 -4 -159
-33 -282 -75 -386 -131 -340 -183 -525 -476 -525 -828 1 -551 360 -940 921
-997 238 -24 563 32 788 137 436 201 660 601 589 1049 -60 383 -267 660 -587
787 -90 35 -138 37 -167 7z m206 -123 c106 -52 237 -167 305 -268 169 -249
216 -614 112 -873 -120 -300 -402 -513 -787 -594 -441 -94 -811 -10 -1048 236
-80 83 -130 159 -169 258 -104 259 -104 498 0 722 132 286 403 468 803 539 54
10 100 15 103 12 3 -2 64 -326 136 -718 72 -393 133 -716 135 -718 2 -3 47 5
101 17 326 73 518 309 498 612 -6 106 -27 184 -72 279 -63 129 -206 252 -342
292 -23 7 -41 15 -40 19 2 4 28 60 58 124 54 117 55 118 85 112 16 -3 71 -26
122 -51z"/>
<path d="M30960 19827 c-110 -33 -184 -74 -260 -144 -138 -127 -187 -298 -145
-498 24 -114 75 -207 158 -290 123 -123 257 -171 455 -162 62 2 115 7 118 9 3
3 -40 251 -96 550 -55 300 -100 548 -100 552 0 12 -56 5 -130 -17z m139 -529
c46 -249 86 -459 88 -465 9 -24 -136 -16 -224 12 -131 41 -218 115 -277 231
-110 219 -55 468 129 590 55 37 159 83 186 84 12 0 31 -85 98 -452z"/>
<path d="M3060 17956 c-1022 -34 -985 -31 -1010 -85 -14 -31 -2 -360 14 -393
25 -51 19 -51 678 -28 337 11 665 20 729 20 115 0 117 0 164 -32 103 -71 152
-208 161 -448 10 -244 7 -241 245 -234 198 7 226 14 245 61 12 28 13 57 5 166
-6 73 -17 159 -26 192 -23 90 -79 197 -136 260 l-51 55 51 0 c63 0 115 20 131
51 9 16 11 74 8 206 l-5 183 -28 30 c-35 37 80 37 -1175 -4z m1120 -216 l0
-160 -132 0 c-137 0 -238 -8 -238 -19 0 -3 35 -24 77 -46 50 -26 100 -64 145
-109 115 -115 159 -230 174 -448 l7 -108 -40 0 c-22 0 -95 -3 -161 -7 l-122
-6 0 74 c0 206 -38 395 -98 489 -40 63 -110 124 -166 145 -47 18 -67 18 -764
-3 -394 -12 -717 -21 -718 -19 -2 1 -6 73 -10 160 l-7 157 84 1 c46 0 455 13
909 28 454 16 878 29 943 30 l117 1 0 -160z"/>
<path d="M30715 17335 c-474 -68 -804 -276 -979 -618 -23 -45 -52 -114 -65
-152 -52 -158 -60 -233 -83 -785 -12 -289 -19 -538 -15 -553 15 -57 -40 -53
1462 -116 1514 -64 1440 -64 1463 -5 6 17 20 241 32 545 17 408 19 536 11 613
-30 263 -104 445 -258 627 -187 222 -462 359 -863 429 -164 29 -552 37 -705
15z m660 -99 c282 -46 482 -118 657 -237 252 -171 400 -443 423 -779 5 -76
-30 -1069 -38 -1076 -4 -3 -2758 113 -2761 117 -5 7 32 858 43 984 50 569 399
911 1021 999 132 19 521 14 655 -8z"/>
<path d="M30570 16886 c-52 -14 -138 -47 -190 -73 -78 -39 -110 -63 -180 -133
-111 -111 -170 -224 -201 -384 -10 -55 -42 -707 -34 -714 6 -7 2165 -95 2171
-89 2 2 10 141 17 308 14 317 9 460 -16 547 -59 199 -197 355 -393 449 -178
84 -292 100 -769 108 -307 6 -311 5 -405 -19z m820 -86 c143 -15 208 -33 325
-90 163 -79 263 -186 321 -344 40 -110 45 -185 32 -500 l-12 -289 -115 6 c-64
4 -514 23 -1001 43 -487 20 -886 37 -887 38 0 1 5 134 12 296 11 229 19 312
34 373 61 236 227 394 484 463 91 24 97 25 397 20 168 -3 352 -10 410 -16z"/>
<path d="M3785 13876 c-152 -51 -207 -79 -273 -141 -109 -101 -152 -196 -152
-336 0 -147 75 -365 168 -487 150 -199 401 -229 702 -85 89 43 204 151 238
226 70 149 50 341 -58 563 -64 133 -126 201 -228 251 -72 36 -81 38 -186 41
-104 2 -118 0 -211 -32z m357 -88 c105 -49 178 -150 239 -328 29 -84 33 -108
33 -205 1 -96 -2 -116 -22 -157 -56 -113 -145 -179 -323 -239 -242 -83 -428
-12 -531 201 -55 115 -80 203 -85 311 -6 113 8 167 62 241 47 64 113 111 210
149 129 51 163 58 265 56 79 -2 105 -7 152 -29z"/>
<path d="M29779 12310 c-292 -37 -539 -209 -674 -471 -35 -67 -75 -200 -86
-288 -12 -96 -3 -199 25 -281 10 -28 10 -40 3 -36 -7 3 -29 10 -49 17 -49 16
-91 -1 -112 -45 -32 -67 -118 -272 -127 -300 -13 -45 11 -89 62 -113 103 -48
2596 -1112 2619 -1118 16 -3 36 2 56 13 25 16 42 49 103 191 l72 172 -18 37
c-18 36 -29 41 -425 211 l-408 174 71 39 c90 49 138 88 200 163 62 74 141 233
170 340 28 103 31 296 6 399 -85 343 -381 623 -848 801 -210 81 -462 118 -640
95z m373 -110 c146 -31 269 -74 413 -144 566 -278 773 -740 538 -1201 -98
-190 -260 -304 -479 -336 -41 -6 -74 -15 -74 -18 0 -4 230 -105 510 -225 281
-120 510 -222 510 -227 0 -5 -26 -71 -57 -145 -50 -117 -61 -135 -78 -131 -18
4 -2565 1090 -2585 1102 -6 4 100 273 115 292 1 2 70 -26 155 -62 84 -36 155
-63 157 -61 3 2 -18 32 -46 66 -116 144 -153 302 -116 485 68 328 307 563 627
620 107 19 282 12 410 -15z"/>
<path d="M29850 11914 c-147 -23 -221 -57 -310 -140 -122 -116 -189 -267 -197
-444 -8 -166 33 -284 125 -360 21 -18 197 -99 424 -196 439 -188 479 -199 591
-171 142 35 268 155 348 333 77 170 78 338 3 491 -36 74 -143 185 -223 233
-85 50 -468 214 -546 233 -65 17 -175 27 -215 21z m166 -99 c71 -16 439 -170
533 -222 86 -48 171 -135 211 -217 74 -150 46 -341 -78 -524 -69 -101 -161
-160 -263 -169 -72 -7 -66 -9 -503 177 -384 164 -416 182 -456 264 -74 153
-21 413 113 561 108 120 277 169 443 130z"/>
<path d="M6322 11153 c-32 -27 -1711 -2315 -1718 -2340 -11 -41 4 -66 127
-213 136 -163 153 -179 190 -180 21 0 1066 482 1614 745 301 145 365 174 358
162 -4 -7 -90 -127 -192 -267 -349 -482 -1044 -1465 -1055 -1492 -7 -18 -7
-34 1 -50 12 -26 246 -305 272 -325 9 -7 30 -13 46 -13 36 0 2605 1227 2642
1262 16 15 23 33 23 58 0 32 -15 54 -117 177 -116 138 -154 173 -189 173 -15
0 -1053 -520 -1664 -833 -129 -67 -230 -114 -224 -106 13 16 652 903 998 1382
176 246 236 336 236 358 0 21 -31 65 -132 187 -129 154 -168 192 -202 192 -17
0 -1129 -524 -1620 -764 -164 -80 -294 -140 -289 -133 250 321 1247 1634 1254
1651 7 14 9 36 5 50 -7 30 -247 321 -272 330 -29 11 -72 6 -92 -11z m155 -190
c54 -65 104 -125 111 -134 12 -16 -184 -278 -1228 -1637 -124 -161 -227 -297
-229 -303 -2 -6 28 5 66 24 264 134 1973 954 2109 1013 l32 13 121 -146 121
-145 -36 -52 c-21 -28 -341 -471 -712 -984 -371 -513 -672 -936 -669 -938 3
-3 279 134 614 304 1603 815 1543 786 1563 766 61 -63 199 -239 192 -246 -10
-10 -2551 -1228 -2561 -1228 -12 0 -236 272 -233 282 4 15 855 1210 1155 1623
152 209 273 381 269 383 -4 1 -219 -100 -477 -224 -401 -193 -1748 -824 -1759
-824 -2 0 -56 63 -121 140 l-117 140 24 33 c14 17 392 533 842 1145 450 611
819 1112 821 1112 2 0 48 -53 102 -117z"/>
<path d="M28165 9730 c-96 -16 -164 -39 -260 -88 -74 -39 -108 -65 -195 -152
-174 -174 -251 -340 -254 -542 0 -60 -4 -108 -7 -108 -4 0 -12 7 -19 14 -6 8
-27 20 -45 26 -55 18 -82 -4 -194 -161 -115 -162 -124 -193 -73 -241 25 -24
284 -210 1805 -1300 386 -277 535 -378 555 -378 44 0 66 23 172 172 110 154
121 188 77 231 -12 12 -176 132 -364 267 -248 178 -338 247 -325 251 9 3 51
17 92 30 233 74 450 335 511 614 29 134 13 315 -42 465 -139 377 -614 771
-1061 880 -96 24 -284 33 -373 20z m285 -91 c314 -50 720 -310 931 -595 61
-83 135 -228 157 -310 74 -266 0 -543 -198 -744 -139 -141 -285 -197 -485
-187 l-110 6 25 -21 c14 -11 220 -160 458 -330 237 -170 432 -312 432 -315 0
-9 -174 -253 -181 -253 -10 0 -2294 1640 -2297 1650 -2 5 37 66 86 135 l90
125 132 -95 c72 -52 136 -95 141 -95 5 0 -7 32 -26 70 -119 236 -70 495 138
726 94 105 232 188 371 224 81 22 234 26 336 9z"/>
<path d="M28186 9324 c-120 -29 -239 -113 -321 -229 -148 -207 -172 -451 -60
-597 43 -57 701 -531 777 -560 44 -17 69 -19 148 -16 85 4 103 9 170 43 89 45
186 137 253 241 58 90 83 153 95 240 23 172 -35 331 -172 468 -73 72 -426 322
-514 363 -129 60 -256 76 -376 47z m257 -93 c37 -10 95 -36 130 -56 126 -77
417 -297 467 -353 60 -67 104 -153 120 -239 56 -288 -284 -650 -531 -566 -62
21 -694 467 -747 527 -35 40 -62 119 -62 180 1 213 193 470 386 515 66 15 166
12 237 -8z"/>
<path d="M25194 7848 c-85 -64 -334 -294 -344 -318 -13 -33 -82 142 619 -1580
367 -902 497 -1211 516 -1228 33 -28 74 -28 111 0 62 47 266 232 275 249 5 10
9 26 9 37 0 10 -70 186 -155 390 -85 204 -155 375 -155 380 0 4 165 153 366
331 251 222 371 322 383 318 9 -2 171 -93 359 -201 231 -133 351 -196 371
-196 32 0 43 8 218 164 62 55 116 111 121 125 12 35 -2 83 -30 100 -13 8 -599
338 -1303 733 -781 438 -1289 718 -1305 718 -14 0 -40 -10 -56 -22z m1331
-780 c688 -385 1256 -706 1263 -713 11 -10 -11 -33 -112 -124 -69 -61 -127
-111 -129 -111 -2 0 -170 95 -372 210 -203 116 -372 210 -376 210 -6 0 -745
-646 -817 -714 l-22 -22 165 -396 166 -396 -48 -45 c-121 -112 -198 -176 -205
-169 -10 10 -1098 2684 -1098 2699 0 20 303 283 320 277 8 -3 578 -321 1265
-706z"/>
<path d="M25288 7403 c-4 -6 466 -1164 528 -1304 9 -18 46 12 366 295 l357
315 -32 19 c-55 33 -1191 674 -1203 679 -7 2 -14 1 -16 -4z m641 -448 l461
-259 -48 -42 c-26 -23 -144 -127 -262 -232 -118 -105 -218 -187 -222 -184 -3
4 -91 212 -193 462 -103 250 -193 470 -201 488 -7 19 -10 32 -5 30 5 -2 216
-120 470 -263z"/>
<path d="M8569 7285 c-429 -67 -870 -515 -1006 -1022 -24 -87 -27 -117 -27
-263 0 -151 3 -173 27 -253 50 -164 126 -288 251 -412 135 -134 287 -225 473
-282 80 -25 102 -27 243 -26 126 0 170 4 234 22 99 26 213 78 232 105 22 32
18 60 -32 211 -62 189 -96 220 -190 172 -99 -49 -149 -60 -258 -55 -147 7
-246 52 -364 162 -162 152 -198 377 -93 584 16 31 35 65 43 75 12 16 58 -14
571 -383 307 -220 567 -405 577 -410 29 -16 65 -12 92 10 31 24 177 238 219
321 50 100 88 208 110 314 27 129 22 331 -10 440 -46 154 -129 291 -243 403
-246 240 -531 336 -849 287z m366 -100 c156 -43 331 -151 450 -277 93 -99 175
-257 201 -387 20 -102 15 -305 -10 -396 -47 -173 -139 -346 -282 -534 -2 -2
-270 187 -596 420 -326 233 -596 425 -600 427 -10 5 -107 -142 -134 -205 -119
-268 -36 -552 211 -722 43 -30 112 -68 154 -85 71 -28 85 -30 206 -30 119 0
136 2 200 27 39 16 77 31 86 34 14 4 25 -19 58 -119 22 -68 41 -126 41 -129 0
-4 -27 -18 -59 -33 -253 -113 -556 -80 -821 89 -102 65 -265 231 -310 315 -89
167 -105 232 -104 430 0 125 5 170 22 232 66 241 199 465 392 658 138 139 305
237 483 285 81 22 107 24 222 20 76 -2 155 -11 190 -20z"/>
<path d="M8578 6906 c-80 -28 -136 -60 -206 -116 -49 -38 -132 -133 -132 -150
0 -8 910 -664 914 -659 57 73 120 198 140 276 18 69 21 196 5 262 -36 156
-192 320 -365 383 -44 16 -88 23 -174 25 -102 3 -123 1 -182 -21z m313 -83
c135 -43 276 -177 314 -298 21 -68 23 -177 5 -245 -15 -57 -70 -170 -82 -170
-5 0 -180 123 -389 273 l-381 272 56 52 c134 125 313 168 477 116z"/>
<path d="M11122 6717 c-27 -28 -1182 -2699 -1189 -2749 -5 -33 -2 -42 23 -64
35 -31 317 -154 354 -154 37 0 69 27 89 73 l18 41 37 -70 c68 -130 170 -225
322 -302 200 -101 395 -124 602 -71 308 79 579 353 753 764 95 224 134 419
126 629 -5 151 -24 241 -72 350 -101 227 -322 410 -585 482 -91 25 -274 25
-354 1 -32 -10 -59 -17 -61 -15 -2 2 82 199 186 438 103 239 188 447 189 461
0 49 -33 74 -194 143 -169 72 -210 80 -244 43z m341 -186 c4 -4 -99 -252 -229
-552 -130 -299 -238 -550 -241 -556 -10 -25 19 -13 63 26 56 49 171 104 252
121 171 35 424 -40 595 -176 115 -92 209 -246 247 -404 27 -117 28 -314 0
-450 -54 -266 -193 -555 -360 -749 -203 -236 -489 -349 -750 -296 -219 44
-389 149 -485 299 -43 68 -85 191 -94 276 -3 36 -10 64 -16 63 -5 0 -36 -64
-70 -141 -33 -78 -63 -144 -67 -147 -6 -6 -262 99 -281 115 -4 4 252 607 569
1341 317 734 578 1339 581 1345 3 8 52 -9 141 -48 75 -33 140 -63 145 -67z"/>
<path d="M11090 5322 c-101 -34 -167 -88 -210 -173 -27 -52 -286 -650 -316
-727 -66 -171 -2 -358 164 -480 276 -204 578 -200 784 9 77 79 121 158 226
404 103 241 122 308 122 426 0 153 -46 267 -149 370 -74 74 -146 118 -253 156
-99 35 -285 42 -368 15z m298 -88 c188 -48 329 -174 372 -334 17 -62 14 -186
-5 -260 -18 -69 -179 -445 -221 -518 -48 -81 -131 -159 -213 -200 -98 -49
-201 -56 -313 -22 -107 32 -206 87 -269 150 -97 96 -132 195 -105 297 25 96
320 762 355 805 39 46 104 86 162 98 53 11 160 4 237 -16z"/>
<path d="M21725 6009 c-88 -33 -170 -70 -182 -81 -16 -15 -23 -33 -23 -57 0
-22 64 -203 168 -476 93 -242 168 -441 168 -442 -1 -1 -28 8 -61 20 -51 19
-82 22 -200 22 -170 0 -224 -13 -385 -92 -105 -52 -124 -66 -215 -157 -136
-137 -206 -267 -241 -454 -26 -136 -15 -370 24 -523 85 -333 225 -596 416
-784 109 -106 167 -146 293 -200 229 -99 493 -83 737 43 110 56 235 174 282
264 16 32 32 58 35 58 4 0 14 -20 23 -44 17 -44 46 -66 90 -66 38 0 339 119
359 141 9 12 17 36 17 55 0 29 -1013 2703 -1054 2782 -14 27 -53 53 -79 51 -7
0 -84 -27 -172 -60z m700 -1405 c283 -741 515 -1353 515 -1359 0 -12 -275
-119 -287 -112 -5 3 -33 71 -63 151 -30 80 -59 145 -65 143 -5 -2 -13 -24 -17
-50 -36 -257 -194 -440 -453 -526 -217 -72 -441 -51 -627 60 -83 49 -218 175
-289 269 -120 160 -232 414 -281 635 -72 330 -21 616 147 818 142 171 365 277
584 277 160 0 253 -35 380 -141 34 -28 64 -50 66 -47 3 3 -342 916 -419 1109
l-15 36 147 56 c114 43 149 52 155 42 4 -7 239 -620 522 -1361z"/>
<path d="M21640 4664 c-14 -3 -54 -14 -90 -26 -266 -85 -410 -271 -410 -528 0
-112 15 -168 100 -395 108 -287 139 -346 229 -436 86 -86 163 -130 268 -155
143 -33 341 16 501 124 125 86 194 202 200 338 4 79 2 85 -61 255 -165 437
-247 643 -273 681 -33 47 -97 93 -168 121 -51 19 -236 32 -296 21z m296 -120
c32 -17 71 -47 87 -66 31 -39 312 -756 326 -834 26 -140 -75 -290 -252 -375
-116 -55 -227 -77 -319 -61 -138 24 -266 119 -335 248 -40 75 -175 426 -198
514 -12 47 -16 93 -13 165 3 87 8 109 35 168 41 86 116 161 208 208 61 32 92
42 180 63 11 3 65 4 121 3 91 -2 107 -5 160 -33z"/>
<path d="M18795 4419 c-187 -23 -331 -96 -447 -226 l-36 -41 -12 49 c-14 57
-39 79 -90 79 -62 -1 -336 -47 -358 -61 -49 -31 -52 -1 112 -1097 94 -628 160
-1040 168 -1049 32 -39 61 -41 226 -16 196 29 193 28 220 53 16 15 22 32 22
62 0 23 -48 359 -106 747 -71 476 -104 720 -100 749 22 163 247 295 477 279
155 -10 239 -89 297 -277 11 -36 64 -362 118 -725 93 -623 100 -661 124 -688
32 -36 45 -36 245 -6 145 21 163 26 188 50 16 17 27 38 27 54 0 52 -201 1371
-221 1450 -87 341 -298 557 -598 611 -85 15 -152 16 -256 3z m332 -112 c215
-74 353 -233 427 -491 24 -82 233 -1442 224 -1452 -6 -5 -301 -53 -306 -49 -1
1 -45 287 -97 636 -53 349 -104 670 -115 714 -65 261 -228 391 -465 371 -212
-17 -398 -122 -461 -259 -44 -98 -43 -112 74 -887 60 -393 108 -716 107 -717
-2 -3 -309 -52 -311 -50 -1 1 -68 445 -149 987 -81 542 -149 997 -152 1011 -5
26 -5 26 105 43 61 9 133 19 160 23 l49 5 6 -52 c17 -142 41 -270 50 -267 6 2
15 21 22 43 34 116 145 266 240 326 47 29 176 74 255 87 95 17 255 6 337 -22z"/>
<path d="M15595 4399 c-229 -41 -414 -156 -552 -343 -27 -36 -43 -69 -43 -87
0 -33 59 -108 168 -211 97 -94 122 -93 201 7 62 78 155 146 241 175 57 19 80
21 180 17 187 -8 296 -62 351 -174 20 -43 23 -63 23 -183 l1 -135 -45 2 c-25
2 -133 8 -240 14 -266 14 -423 1 -574 -47 -307 -98 -456 -305 -456 -632 0
-136 17 -216 68 -322 47 -98 166 -219 267 -272 209 -110 515 -135 723 -59 96
35 152 69 218 133 l51 49 18 -42 c24 -52 90 -121 144 -148 59 -31 150 -48 288
-56 l121 -6 31 28 31 28 11 161 c10 142 9 165 -5 192 -19 37 -63 52 -154 52
l-62 0 5 53 c18 178 66 1063 60 1122 -33 373 -285 619 -696 679 -114 17 -293
19 -374 5z m430 -104 c295 -66 488 -244 539 -497 22 -104 21 -123 -20 -767
-19 -310 -33 -565 -31 -567 2 -2 54 -7 116 -11 l112 -6 -6 -126 c-4 -69 -8
-132 -11 -140 -3 -11 -23 -12 -102 -6 -224 16 -296 51 -356 171 -14 28 -31 80
-38 117 -7 40 -18 67 -25 67 -7 0 -22 -19 -34 -42 -103 -204 -321 -312 -590
-294 -283 20 -492 138 -583 329 -46 97 -60 164 -59 282 0 179 46 300 152 405
110 108 242 159 474 182 96 10 167 9 399 -5 155 -9 284 -15 286 -12 11 10 6
353 -5 390 -53 172 -204 270 -438 282 -197 10 -316 -36 -457 -178 l-86 -87
-87 94 -86 94 30 43 c74 107 239 229 363 269 101 31 135 36 288 37 120 1 164
-3 255 -24z"/>
<path d="M15535 3145 c-124 -27 -186 -67 -231 -147 -26 -48 -29 -64 -32 -163
-2 -63 1 -128 7 -152 14 -53 84 -131 150 -166 137 -75 399 -76 564 -3 80 35
178 134 200 201 17 51 45 400 34 412 -10 9 -372 32 -507 32 -69 0 -152 -6
-185 -14z m557 -91 l47 -7 -5 -96 c-12 -202 -29 -251 -111 -315 -75 -60 -144
-79 -295 -84 -121 -4 -144 -2 -204 18 -130 44 -179 123 -167 275 7 87 32 137
83 171 72 48 122 54 375 49 127 -3 251 -8 277 -11z"/>
</g>
</svg>
