<svg width="1215" height="151" viewBox="0 0 1215 151" fill="none" xmlns="http://www.w3.org/2000/svg">
<path d="M84.4806 45.72H84.0006L75.8406 62.04L54.0806 101.56L32.8006 62.2L24.3206 44.6H23.8406V119H0.960626V7.32H26.7206L54.0806 59.64H54.4006L81.4406 7.32H107.361V119H84.4806V45.72ZM164.854 120.92C158.668 120.92 153.121 119.907 148.214 117.88C143.414 115.853 139.308 112.92 135.894 109.08C132.588 105.24 130.028 100.6 128.214 95.16C126.401 89.72 125.494 83.64 125.494 76.92C125.494 70.2 126.401 64.12 128.214 58.68C130.028 53.24 132.588 48.6533 135.894 44.92C139.308 41.08 143.414 38.1467 148.214 36.12C153.121 34.0933 158.668 33.08 164.854 33.08C171.041 33.08 176.534 34.0933 181.334 36.12C186.241 38.1467 190.348 41.08 193.654 44.92C197.068 48.6533 199.681 53.24 201.494 58.68C203.308 64.12 204.214 70.2 204.214 76.92C204.214 83.64 203.308 89.72 201.494 95.16C199.681 100.6 197.068 105.24 193.654 109.08C190.348 112.92 186.241 115.853 181.334 117.88C176.534 119.907 171.041 120.92 164.854 120.92ZM164.854 102.2C169.548 102.2 173.174 100.76 175.734 97.88C178.294 95 179.574 90.8933 179.574 85.56V68.44C179.574 63.1067 178.294 59 175.734 56.12C173.174 53.24 169.548 51.8 164.854 51.8C160.161 51.8 156.534 53.24 153.974 56.12C151.414 59 150.134 63.1067 150.134 68.44V85.56C150.134 90.8933 151.414 95 153.974 97.88C156.534 100.76 160.161 102.2 164.854 102.2ZM221.087 0.599998H244.767V49.24H245.727C247.22 44.8667 249.834 41.08 253.567 37.88C257.3 34.68 262.474 33.08 269.087 33.08C277.727 33.08 284.234 35.96 288.607 41.72C293.087 47.48 295.327 55.6933 295.327 66.36V119H271.647V68.28C271.647 62.84 270.794 58.84 269.087 56.28C267.38 53.6133 264.34 52.28 259.967 52.28C258.047 52.28 256.18 52.5467 254.367 53.08C252.554 53.5067 250.9 54.2533 249.407 55.32C248.02 56.3867 246.9 57.72 246.047 59.32C245.194 60.8133 244.767 62.5733 244.767 64.6V119H221.087V0.599998ZM378.479 119C374.213 119 370.639 117.667 367.759 115C364.986 112.333 363.226 108.76 362.479 104.28H361.519C360.239 109.72 357.413 113.88 353.039 116.76C348.666 119.533 343.279 120.92 336.879 120.92C328.453 120.92 321.999 118.68 317.519 114.2C313.039 109.72 310.799 103.8 310.799 96.44C310.799 87.5867 313.999 81.0267 320.399 76.76C326.906 72.3867 335.706 70.2 346.799 70.2H360.079V64.92C360.079 60.8667 359.013 57.6667 356.879 55.32C354.746 52.8667 351.173 51.64 346.159 51.64C341.466 51.64 337.733 52.6533 334.959 54.68C332.186 56.7067 329.893 59 328.079 61.56L313.999 49.08C317.413 44.0667 321.679 40.1733 326.799 37.4C332.026 34.52 339.066 33.08 347.919 33.08C359.866 33.08 368.826 35.6933 374.799 40.92C380.773 46.1467 383.759 53.7733 383.759 63.8V100.6H391.599V119H378.479ZM345.679 104.44C349.626 104.44 352.986 103.587 355.759 101.88C358.639 100.173 360.079 97.4 360.079 93.56V83.64H348.559C339.279 83.64 334.639 86.7867 334.639 93.08V95.48C334.639 98.5733 335.599 100.867 337.519 102.36C339.439 103.747 342.159 104.44 345.679 104.44ZM407.493 119V35H431.173V49.24H432.133C433.626 44.76 436.186 40.9733 439.813 37.88C443.44 34.68 448.4 33.08 454.693 33.08C460.453 33.08 465.36 34.52 469.413 37.4C473.466 40.28 476.4 44.4933 478.213 50.04H478.693C479.44 47.6933 480.56 45.5067 482.053 43.48C483.653 41.3467 485.573 39.5333 487.813 38.04C490.053 36.5467 492.56 35.3733 495.333 34.52C498.106 33.56 501.093 33.08 504.293 33.08C512.4 33.08 518.586 35.96 522.853 41.72C527.226 47.48 529.413 55.6933 529.413 66.36V119H505.733V68.28C505.733 57.6133 501.893 52.28 494.213 52.28C490.693 52.28 487.493 53.2933 484.613 55.32C481.733 57.3467 480.293 60.44 480.293 64.6V119H456.613V68.28C456.613 57.6133 452.773 52.28 445.093 52.28C443.386 52.28 441.68 52.5467 439.973 53.08C438.373 53.5067 436.88 54.2533 435.493 55.32C434.213 56.3867 433.146 57.72 432.293 59.32C431.546 60.8133 431.173 62.5733 431.173 64.6V119H407.493ZM585.502 120.92C579.102 120.92 573.395 119.907 568.382 117.88C563.369 115.747 559.102 112.813 555.582 109.08C552.169 105.24 549.555 100.6 547.742 95.16C546.035 89.72 545.182 83.64 545.182 76.92C545.182 70.3067 546.035 64.3333 547.742 59C549.449 53.56 551.955 48.92 555.262 45.08C558.675 41.24 562.835 38.3067 567.742 36.28C572.649 34.1467 578.249 33.08 584.542 33.08C591.475 33.08 597.395 34.2533 602.302 36.6C607.315 38.9467 611.369 42.0933 614.462 46.04C617.662 49.9867 619.955 54.5733 621.342 59.8C622.835 64.92 623.582 70.3067 623.582 75.96V83H569.662V84.28C569.662 89.8267 571.155 94.2533 574.142 97.56C577.129 100.76 581.822 102.36 588.222 102.36C593.129 102.36 597.129 101.4 600.222 99.48C603.315 97.4533 606.195 95.0533 608.862 92.28L620.702 107C616.969 111.373 612.062 114.787 605.982 117.24C600.009 119.693 593.182 120.92 585.502 120.92ZM585.022 50.52C580.222 50.52 576.435 52.12 573.662 55.32C570.995 58.4133 569.662 62.5733 569.662 67.8V69.08H599.102V67.64C599.102 62.52 597.929 58.4133 595.582 55.32C593.342 52.12 589.822 50.52 585.022 50.52ZM691.826 104.92H691.026C690.386 107.16 689.372 109.293 687.986 111.32C686.599 113.24 684.892 114.947 682.866 116.44C680.946 117.827 678.706 118.893 676.146 119.64C673.692 120.493 671.132 120.92 668.466 120.92C657.799 120.92 649.746 117.187 644.306 109.72C638.866 102.147 636.146 91.2133 636.146 76.92C636.146 62.6267 638.866 51.7467 644.306 44.28C649.746 36.8133 657.799 33.08 668.466 33.08C673.906 33.08 678.706 34.5733 682.866 37.56C687.132 40.5467 689.852 44.3867 691.026 49.08H691.826V0.599998H715.506V119H691.826V104.92ZM676.306 101.72C680.786 101.72 684.466 100.653 687.346 98.52C690.332 96.28 691.826 93.24 691.826 89.4V64.6C691.826 60.76 690.332 57.7733 687.346 55.64C684.466 53.4 680.786 52.28 676.306 52.28C671.826 52.28 668.092 53.88 665.106 57.08C662.226 60.1733 660.786 64.3867 660.786 69.72V84.28C660.786 89.6133 662.226 93.88 665.106 97.08C668.092 100.173 671.826 101.72 676.306 101.72ZM812.902 120.92C803.089 120.92 794.769 119.267 787.942 115.96C781.115 112.547 775.302 108.173 770.502 102.84L786.502 86.68C794.075 95.2133 803.409 99.48 814.502 99.48C820.475 99.48 824.902 98.2533 827.782 95.8C830.662 93.3467 832.102 90.0933 832.102 86.04C832.102 82.9467 831.249 80.3867 829.542 78.36C827.835 76.2267 824.369 74.7867 819.142 74.04L808.102 72.6C796.262 71.1067 787.569 67.5333 782.022 61.88C776.582 56.2267 773.862 48.7067 773.862 39.32C773.862 34.3067 774.822 29.72 776.742 25.56C778.662 21.4 781.382 17.8267 784.902 14.84C788.529 11.8533 792.902 9.56 798.022 7.96C803.249 6.25333 809.169 5.39999 815.782 5.39999C824.209 5.39999 831.622 6.73333 838.022 9.39999C844.422 12.0667 849.915 15.96 854.502 21.08L838.342 37.4C835.675 34.3067 832.422 31.8 828.582 29.88C824.849 27.8533 820.102 26.84 814.342 26.84C808.902 26.84 804.849 27.8 802.182 29.72C799.515 31.64 798.182 34.3067 798.182 37.72C798.182 41.56 799.195 44.3333 801.222 46.04C803.355 47.7467 806.769 48.9733 811.462 49.72L822.502 51.48C834.022 53.2933 842.555 56.8667 848.102 62.2C853.649 67.4267 856.422 74.8933 856.422 84.6C856.422 89.9333 855.462 94.84 853.542 99.32C851.622 103.8 848.795 107.64 845.062 110.84C841.435 114.04 836.902 116.547 831.462 118.36C826.022 120.067 819.835 120.92 812.902 120.92ZM937.386 119C933.119 119 929.546 117.667 926.666 115C923.892 112.333 922.132 108.76 921.386 104.28H920.426C919.146 109.72 916.319 113.88 911.946 116.76C907.572 119.533 902.186 120.92 895.786 120.92C887.359 120.92 880.906 118.68 876.426 114.2C871.946 109.72 869.706 103.8 869.706 96.44C869.706 87.5867 872.906 81.0267 879.306 76.76C885.812 72.3867 894.612 70.2 905.706 70.2H918.986V64.92C918.986 60.8667 917.919 57.6667 915.786 55.32C913.652 52.8667 910.079 51.64 905.066 51.64C900.372 51.64 896.639 52.6533 893.866 54.68C891.092 56.7067 888.799 59 886.986 61.56L872.906 49.08C876.319 44.0667 880.586 40.1733 885.706 37.4C890.932 34.52 897.972 33.08 906.826 33.08C918.772 33.08 927.732 35.6933 933.706 40.92C939.679 46.1467 942.666 53.7733 942.666 63.8V100.6H950.506V119H937.386ZM904.586 104.44C908.532 104.44 911.892 103.587 914.666 101.88C917.546 100.173 918.986 97.4 918.986 93.56V83.64H907.466C898.186 83.64 893.546 86.7867 893.546 93.08V95.48C893.546 98.5733 894.506 100.867 896.426 102.36C898.346 103.747 901.066 104.44 904.586 104.44ZM1016.35 35H1038.43L1006.11 131.96C1003.98 138.467 1000.94 143.267 996.993 146.36C993.153 149.453 987.606 151 980.353 151H965.633V132.6H981.473L984.353 123.32L954.913 35H978.433L990.753 74.2L996.833 98.52H997.793L1004.03 74.2L1016.35 35ZM1084.25 120.92C1077.85 120.92 1072.15 119.907 1067.13 117.88C1062.12 115.747 1057.85 112.813 1054.33 109.08C1050.92 105.24 1048.31 100.6 1046.49 95.16C1044.79 89.72 1043.93 83.64 1043.93 76.92C1043.93 70.3067 1044.79 64.3333 1046.49 59C1048.2 53.56 1050.71 48.92 1054.01 45.08C1057.43 41.24 1061.59 38.3067 1066.49 36.28C1071.4 34.1467 1077 33.08 1083.29 33.08C1090.23 33.08 1096.15 34.2533 1101.05 36.6C1106.07 38.9467 1110.12 42.0933 1113.21 46.04C1116.41 49.9867 1118.71 54.5733 1120.09 59.8C1121.59 64.92 1122.33 70.3067 1122.33 75.96V83H1068.41V84.28C1068.41 89.8267 1069.91 94.2533 1072.89 97.56C1075.88 100.76 1080.57 102.36 1086.97 102.36C1091.88 102.36 1095.88 101.4 1098.97 99.48C1102.07 97.4533 1104.95 95.0533 1107.61 92.28L1119.45 107C1115.72 111.373 1110.81 114.787 1104.73 117.24C1098.76 119.693 1091.93 120.92 1084.25 120.92ZM1083.77 50.52C1078.97 50.52 1075.19 52.12 1072.41 55.32C1069.75 58.4133 1068.41 62.5733 1068.41 67.8V69.08H1097.85V67.64C1097.85 62.52 1096.68 58.4133 1094.33 55.32C1092.09 52.12 1088.57 50.52 1083.77 50.52ZM1190.58 104.92H1189.78C1189.14 107.16 1188.12 109.293 1186.74 111.32C1185.35 113.24 1183.64 114.947 1181.62 116.44C1179.7 117.827 1177.46 118.893 1174.9 119.64C1172.44 120.493 1169.88 120.92 1167.22 120.92C1156.55 120.92 1148.5 117.187 1143.06 109.72C1137.62 102.147 1134.9 91.2133 1134.9 76.92C1134.9 62.6267 1137.62 51.7467 1143.06 44.28C1148.5 36.8133 1156.55 33.08 1167.22 33.08C1172.66 33.08 1177.46 34.5733 1181.62 37.56C1185.88 40.5467 1188.6 44.3867 1189.78 49.08H1190.58V0.599998H1214.26V119H1190.58V104.92ZM1175.06 101.72C1179.54 101.72 1183.22 100.653 1186.1 98.52C1189.08 96.28 1190.58 93.24 1190.58 89.4V64.6C1190.58 60.76 1189.08 57.7733 1186.1 55.64C1183.22 53.4 1179.54 52.28 1175.06 52.28C1170.58 52.28 1166.84 53.88 1163.86 57.08C1160.98 60.1733 1159.54 64.3867 1159.54 69.72V84.28C1159.54 89.6133 1160.98 93.88 1163.86 97.08C1166.84 100.173 1170.58 101.72 1175.06 101.72Z" fill="white"/>
</svg>
