<svg width="300" height="300" viewBox="0 0 300 300" fill="none" xmlns="http://www.w3.org/2000/svg">
<rect width="300" height="300" rx="25.7303" fill="#5E452B"/>
<g clip-path="url(#clip0_54_72)">
<path d="M143.692 46.5322H148.696L152.033 47.3966L154.744 48.4772L159.54 51.2867L162.668 52.7994L166.004 53.88L170.384 54.7444L173.928 55.1767H178.724L183.73 55.3928L188.316 56.0411L192.07 57.3378L195.407 59.0667L197.91 60.5795L200.202 62.5244L201.871 64.4695L204.165 69.0079L206.668 76.3556L208.127 80.2456L209.587 82.6229L210.421 83.7035L212.507 85.2163L216.885 88.0257L222.933 91.6996L226.477 94.0768L229.397 96.4541L231.691 99.0475L233.359 101.857L234.402 104.234L235.028 107.476L235.236 109.205L235.445 115.04L235.653 128.439L236.488 132.761L237.53 135.57L239.199 137.948L240.866 139.677V140.109H241.283L242.743 141.838L247.331 146.592L248.999 150.05L249.416 151.563V155.237L248.791 158.046L247.122 161.504L245.662 163.881L242.951 167.339L241.074 169.5L238.365 173.174L236.905 175.552L236.488 176.632L236.07 178.576L235.653 179.441L235.445 180.737V184.196L236.488 191.76V195.649L235.862 198.675L234.611 202.133L232.942 205.808L231.065 208.832L229.397 210.993L227.52 213.155L225.853 214.668L223.559 216.181L219.596 218.126L217.302 219.423L213.965 221.15L211.256 223.528L209.796 225.473L208.336 227.634L206.876 230.66L205.208 234.765L202.914 240.385L201.245 243.843L199.37 246.22L197.701 247.948L194.781 249.893L192.07 250.758L189.776 250.974H186.857L178.933 250.326H174.553L171.009 250.974L165.796 253.351L162.251 255.297L158.706 257.458L154.952 259.619L152.241 261.347L147.237 263.941L144.734 264.805L143.483 265.021H141.398L139.313 264.373L137.019 263.076L134.308 260.916L130.763 257.89L126.384 254.864L124.298 253.784L121.588 252.919L116.374 252.055H109.284L103.862 252.487H98.4407L94.4787 251.839L91.7679 250.758L89.6825 249.461L86.9717 246.869L85.3034 244.708L83.4267 241.466L79.6732 233.685L78.0049 231.092L75.7111 228.283L73.8343 226.121L73.0003 225.041L71.332 223.528L69.0382 221.366L65.9102 218.99L56.7349 213.371L53.8155 211.21L51.7303 209.264L50.2705 206.887L49.6449 205.159V201.053L51.1046 194.352L51.3132 192.84V188.302L50.2705 182.683L49.0194 179.224L46.3085 174.038L43.389 169.284L41.3037 165.394L39.427 161.288L37.9673 156.749L37.5502 154.588L37.3417 152.427V150.266L37.9673 146.808L39.0099 144.215L40.6782 141.622L43.1805 138.596L46.0999 136.003L48.6023 133.625L50.4791 131.464L51.7303 128.871L52.1472 126.71V123.684L51.5217 119.146L50.062 113.311L49.2279 107.908V104.234L49.6449 101.425L50.6875 98.6152L52.5643 95.8057L54.2326 94.0768L56.3178 92.5641L59.2373 90.8352L68.6211 87.5935L72.5832 85.6485L74.8769 83.7035L77.1709 80.4617L79.2561 76.3556L81.7584 70.3046L83.4267 66.6306L85.7205 62.7406L88.2228 59.9311L90.5166 58.2023L93.0191 56.9055L96.3555 56.0411L97.8152 55.825H100.318L105.322 56.4734L111.161 57.3378H115.332L118.668 56.4734L124.507 54.096L129.512 51.7188L135.559 48.6932L139.313 47.3966L142.023 46.7483L143.692 46.5322ZM223.767 188.302L222.933 188.734L222.516 189.383V191.112L222.725 191.976V195.217L221.89 199.324L220.639 201.917L218.762 204.943L217.094 207.968L216.885 208.616V210.345L217.511 211.426L218.971 212.074L220.848 211.858L222.516 210.345L224.184 208.616L225.644 206.022L227.52 201.053L228.563 197.378L228.98 194.785V192.193L228.354 190.463L226.686 188.734L225.853 188.302H223.767Z" fill="#EBC143"/>
<path d="M79.4647 124.549H81.967L83.0096 126.278L85.7205 131.032L88.2228 135.354V136.003L82.1755 136.867L77.3793 138.164L74.2514 139.46L69.8723 141.838L67.3699 143.566L64.0334 146.376L61.9482 148.321L60.0713 150.482L58.1947 153.291L57.152 155.669L56.7349 157.181V159.991L57.569 161.72L59.4458 163.449L61.9482 164.745L65.0761 165.61L66.9528 165.826H69.8723L74.2514 165.394L78.839 164.313L84.6779 162.152L88.0143 160.639L91.9763 158.478L96.564 155.669L99.9004 153.291L102.611 151.13L104.905 149.185L107.616 146.592L109.076 144.863L111.161 142.27L112.621 140.109L113.246 138.812L113.663 139.244L114.498 141.405L116.583 145.944V147.024L115.123 149.401L112.829 153.94L111.37 158.478L110.327 163.233L109.284 163.017L108.45 159.127L108.242 156.965H107.825L104.905 159.559L101.152 162.368L97.6067 164.745L93.019 167.339L86.7631 170.148L82.1755 171.661L78.4219 172.525L73.8343 173.174H69.0382L65.0761 172.525L61.7396 171.445L58.4032 169.716L56.1093 167.987L53.3984 165.178L51.9387 163.017L50.2705 159.559L49.4363 156.533L49.2279 155.02V152.427L49.6449 148.753L50.8961 144.647L52.9814 140.757L54.2326 138.812H54.6496L55.0667 137.948L56.9435 135.786L60.0713 132.545L63.6164 129.951L66.9528 128.006L69.6637 126.71L73.2087 125.629L75.9196 124.981L79.4647 124.549Z" fill="#5E452B"/>
<path d="M246.08 111.798H248.165L250.251 112.446L251.71 113.743L252.96 115.904L254.42 119.362L256.297 124.765L257.757 127.79L260.885 132.113L263.388 135.786L264.222 137.515L264.639 139.244V142.486L263.805 144.215L262.345 145.728L260.051 146.592L258.383 146.376L257.131 145.512L255.672 143.999L253.795 140.973L252.128 138.38L250.042 136.651L247.748 134.922L243.994 131.896L242.743 130.168L241.491 127.574L240.866 125.197L240.657 123.468V119.362L241.283 116.553L242.534 114.391L243.577 113.311L244.828 112.23L246.08 111.798Z" fill="#ECC243"/>
<path d="M220.639 222.447H223.559L226.06 223.096L228.563 224.392L230.022 225.905L230.857 227.851L231.065 229.796L230.44 231.741L229.397 233.685L227.52 235.846L225.227 237.791L223.559 239.304L221.473 243.411L219.596 248.38L217.928 251.406L216.468 252.919L214.8 253.784L212.714 254L210.63 253.135L208.962 251.19L207.919 248.38L207.71 247.085V243.627L208.544 239.52L209.796 235.846L212.507 230.444L214.8 226.77L216.677 224.608L219.388 222.879L220.639 222.447Z" fill="#ECC243"/>
<path d="M148.905 139.893H155.995L158.289 140.109L160.791 141.405L162.042 142.918L162.876 145.079V146.376L161.834 148.105L162.042 149.185L163.293 150.914L163.71 151.995V154.372L163.085 156.101L161.208 158.262L159.331 159.343L158.08 159.775L149.739 159.991L148.696 159.775V140.109L148.905 139.893Z" fill="#5E452B"/>
<path d="M131.806 178.792H156.621L169.132 179.008L182.478 179.441L196.45 180.089L201.454 180.521L201.871 180.737L202.079 182.467L200.828 182.899L189.568 182.467L179.559 182.034L154.118 181.386L140.147 181.17H127.218L98.2323 181.602H89.4741L88.223 181.17L88.4314 180.521L90.5167 180.089L97.6066 179.657L110.744 179.225L131.806 178.792Z" fill="#F9F7E6"/>
<path d="M202.914 139.46H205.625L206.876 140.109L207.71 141.838L209.587 147.673L212.507 157.614L212.716 159.559L211.881 159.991H209.17L207.919 159.343L207.085 158.262L206.042 155.02V154.588L201.037 154.372L200.62 156.533L199.785 158.91L198.744 159.775H194.573L194.364 159.343L196.033 153.076L198.953 143.35L200.202 140.325L201.037 139.676L202.914 139.46Z" fill="#5E452B"/>
<path d="M124.298 139.46H127.635L128.678 139.893L129.512 140.973L130.554 143.783L134.933 158.91V159.775H130.346L129.512 159.127L128.052 154.588L123.256 154.372L122.839 156.317L121.796 159.127L121.17 159.775H116.374L117 157.182L119.085 150.266L121.588 141.838L122.422 140.109L124.298 139.46Z" fill="#5E452B"/>
<path d="M175.179 34.2137H177.473L179.559 34.8621L181.227 35.9426L183.313 38.1038L184.772 41.1293L185.19 42.6421V45.0194L184.564 46.7483L183.313 47.8288L180.601 48.4772L178.724 48.6932H173.928L170.592 48.0449L168.715 47.1805L167.464 46.0999L166.63 44.371L166.421 42.6421L167.255 39.8327L168.507 37.8876L170.175 36.1588L172.678 34.8621L175.179 34.2137Z" fill="#ECC243"/>
<path d="M193.947 124.765H197.284L197.701 125.197V126.278L197.284 126.71L194.782 126.926L189.568 127.142L153.492 127.79L114.914 128.007H106.365L90.5166 127.79L88.8483 127.574L89.2654 126.71L94.2701 126.494L143.9 125.629L160.791 125.413L193.947 124.765Z" fill="#F9F7E6"/>
<path d="M36.5076 108.124L38.1758 108.34L40.6782 109.637L42.1379 111.15L44.2232 114.391L45.4743 117.201L46.517 121.307L46.7255 122.604V125.197L46.0999 127.142L44.8488 129.303L42.972 130.6L42.1379 130.816H40.2611L38.8014 130.168L37.5502 128.655L36.7161 126.278L35.882 120.01L34.2138 113.311V110.934L35.0479 109.205L35.882 108.34L36.5076 108.124Z" fill="#ECC243"/>
<path d="M166.004 139.893H178.307L179.35 140.109L179.142 142.918L178.933 143.566L177.056 143.999H171.218L171.427 147.457L177.056 147.673L177.265 148.321L176.847 150.266L176.43 150.914L171.427 151.13L171.218 155.885H176.43L178.516 156.101L179.142 156.533V159.775L166.004 159.991L165.796 159.775V144.431L166.004 139.893Z" fill="#5E452B"/>
<path d="M87.8057 106.611H89.474L91.5592 107.692L93.0189 109.205L93.436 110.069V110.934H93.8532L94.2701 109.421L95.5214 107.908L97.1896 106.827H100.526L102.403 108.124L103.654 109.637L104.28 111.15V113.095L103.446 115.04L102.194 116.553L100.109 117.633H98.2322L96.3555 116.985L94.4787 115.256L93.6446 113.527L92.8105 115.472L91.1423 116.985L89.6825 117.633H87.5972L85.5119 116.769L83.8437 114.824L83.2181 112.663L83.4267 110.501L84.2608 108.773L85.929 107.26L87.8057 106.611Z" fill="#5E452B"/>
<path d="M135.559 139.893H146.611L146.82 140.109V142.702L146.611 143.566L144.526 143.999H143.066V159.775H137.644V143.999H134.516L133.891 143.566V141.189L134.308 140.109L135.559 139.893Z" fill="#5E452B"/>
<path d="M182.061 139.893H184.772L186.648 140.109L187.065 140.973V155.02H193.322V157.614L193.113 159.775H181.644L181.853 140.109L182.061 139.893Z" fill="#5E452B"/>
<path d="M177.265 81.3262H178.307V82.4068L175.805 84.5679L171.844 87.5935L168.924 89.7546L165.17 92.564L164.545 92.9963H163.919V93.4286L162.668 93.8607L162.876 92.7802L164.962 90.8352L168.507 88.0258L170.801 86.0807L173.095 84.3518L175.596 82.4068L177.265 81.3262Z" fill="#F9F7E6"/>
<path d="M111.578 83.7034L113.038 84.1357L114.289 85.0001L116.166 86.9452L117.834 88.458L120.545 91.2674L121.796 93.2124L122.005 94.2929L121.796 94.7252H120.753L118.46 92.348L116.374 89.5385L114.081 86.729L111.787 84.784L111.578 83.7034Z" fill="#F9F7E6"/>
<path d="M154.118 150.482L156.412 150.698L157.663 151.563L158.289 152.643V154.156L157.037 155.669L155.786 156.101H154.327L153.91 155.669V150.698L154.118 150.482Z" fill="#ECC243"/>
<path d="M160.791 214.452L161.625 214.668L165.379 217.045L169.341 219.639L171.427 220.934L172.052 221.583V222.663L170.384 222.231L168.09 220.718L162.251 216.613L160.791 215.316L160.583 214.668L160.791 214.452Z" fill="#F9F7E6"/>
<path d="M140.772 216.613H141.189V222.879L141.606 230.228L140.564 230.444L140.147 229.147L139.938 228.067V219.423L140.355 217.261L140.772 216.613Z" fill="#F9F7E6"/>
<path d="M143.692 80.4617H144.109L144.526 87.8096V92.1319L144.317 92.5641L143.066 92.348L142.858 91.9157V87.5935L143.066 82.4068L143.275 80.894L143.692 80.4617Z" fill="#F9F7E6"/>
<path d="M121.588 213.587H122.005L121.796 214.884L120.128 217.261L118.877 218.99H118.46L118.043 219.853L116.791 221.582H116.374L115.957 222.447L114.081 224.608L113.038 225.473L112.412 225.257L112.829 224.176L114.706 222.231L114.915 221.799H115.332L115.749 220.934L117.834 218.558L120.128 215.532L120.753 214.668H121.17L121.588 213.587Z" fill="#F9F7E6"/>
<path d="M154.118 143.783H155.578L157.038 144.431L157.246 144.863V146.376L156.621 147.024L155.995 147.24H154.118V143.783Z" fill="#ECC243"/>
<path d="M125.55 146.376L125.967 146.592L127.009 150.266V150.914H124.507L124.716 149.402L125.55 146.376Z" fill="#ECC44A"/>
<path d="M203.539 146.592L203.956 147.024L204.791 150.05L204.582 150.914H202.497L202.288 150.266L203.331 146.808L203.539 146.592Z" fill="#ECC243"/>
<path d="M81.6394 192.876C81.3778 192.876 81.1408 192.834 80.9284 192.747C80.7199 192.657 80.5398 192.522 80.3881 192.345C80.2402 192.169 80.1265 191.951 80.0468 191.691C79.9672 191.429 79.9274 191.124 79.9274 190.778C79.9274 190.432 79.9672 190.125 80.0468 189.858C80.1265 189.588 80.2402 189.362 80.3881 189.181C80.5398 188.995 80.7199 188.856 80.9284 188.762C81.1408 188.668 81.3778 188.621 81.6394 188.621C81.9958 188.621 82.2916 188.699 82.5267 188.856C82.7618 189.014 82.9495 189.251 83.0898 189.569L82.4471 189.923C82.3902 189.739 82.2973 189.592 82.1684 189.481C82.0394 189.367 81.8631 189.31 81.6394 189.31C81.3588 189.31 81.1351 189.408 80.9682 189.604C80.8052 189.801 80.7237 190.076 80.7237 190.43V191.078C80.7237 191.436 80.8052 191.711 80.9682 191.903C81.1351 192.093 81.3588 192.187 81.6394 192.187C81.8631 192.187 82.0451 192.124 82.1854 191.999C82.3295 191.872 82.4338 191.717 82.4982 191.533L83.1068 191.903C82.9627 192.211 82.7713 192.451 82.5324 192.623C82.2935 192.792 81.9958 192.876 81.6394 192.876ZM84.498 192.806H83.7472V188.691H85.5389C85.7209 188.691 85.8839 188.72 86.028 188.779C86.1721 188.838 86.2935 188.925 86.392 189.039C86.4944 189.15 86.5722 189.283 86.6252 189.44C86.6821 189.597 86.7106 189.771 86.7106 189.965C86.7106 190.247 86.648 190.491 86.5229 190.695C86.4015 190.9 86.2176 191.046 85.9712 191.131L86.7845 192.806H85.9484L85.209 191.22H84.498V192.806ZM85.4649 190.566C85.609 190.566 85.7228 190.527 85.8062 190.448C85.8896 190.365 85.9313 190.25 85.9313 190.1V189.829C85.9313 189.68 85.8896 189.565 85.8062 189.487C85.7228 189.408 85.609 189.369 85.4649 189.369H84.498V190.566H85.4649ZM87.5243 192.806V188.691H90.1407V189.381H88.2751V190.378H89.9245V191.067H88.2751V192.117H90.1407V192.806H87.5243ZM90.9347 192.806V188.691H92.7206C92.9026 188.691 93.0657 188.723 93.2098 188.786C93.3576 188.845 93.4828 188.931 93.5851 189.044C93.6875 189.155 93.7653 189.289 93.8183 189.446C93.8714 189.603 93.898 189.776 93.898 189.965C93.898 190.157 93.8714 190.331 93.8183 190.489C93.7653 190.643 93.6875 190.776 93.5851 190.89C93.4828 190.999 93.3576 191.087 93.2098 191.15C93.0657 191.209 92.9026 191.238 92.7206 191.238H91.6854V192.806H90.9347ZM91.6854 190.566H92.6524C92.7964 190.566 92.9102 190.527 92.9936 190.448C93.077 190.365 93.1188 190.25 93.1188 190.1V189.829C93.1188 189.68 93.077 189.565 92.9936 189.487C92.9102 189.408 92.7964 189.369 92.6524 189.369H91.6854V190.566ZM94.5785 192.806V188.691H97.1948V189.381H95.3293V190.378H96.9787V191.067H95.3293V192.117H97.1948V192.806H94.5785ZM99.1965 191.385V190.636H100.823V191.385H99.1965ZM104.2 192.876C103.859 192.876 103.568 192.814 103.33 192.688C103.095 192.562 102.892 192.397 102.721 192.192L103.227 191.686C103.364 191.851 103.515 191.976 103.682 192.063C103.853 192.149 104.041 192.192 104.245 192.192C104.477 192.192 104.651 192.142 104.769 192.039C104.886 191.933 104.945 191.792 104.945 191.616C104.945 191.478 104.907 191.366 104.831 191.279C104.755 191.193 104.613 191.13 104.405 191.091L104.029 191.032C103.237 190.901 102.84 190.503 102.84 189.835C102.84 189.651 102.873 189.484 102.937 189.334C103.005 189.185 103.102 189.057 103.227 188.95C103.352 188.845 103.502 188.764 103.677 188.709C103.855 188.65 104.056 188.621 104.279 188.621C104.579 188.621 104.841 188.671 105.064 188.774C105.288 188.876 105.48 189.028 105.639 189.228L105.127 189.729C105.028 189.603 104.909 189.501 104.769 189.422C104.628 189.343 104.452 189.304 104.24 189.304C104.024 189.304 103.86 189.348 103.751 189.435C103.644 189.516 103.591 189.634 103.591 189.788C103.591 189.945 103.635 190.061 103.722 190.135C103.809 190.211 103.95 190.265 104.143 190.301L104.513 190.371C104.915 190.447 105.21 190.58 105.4 190.772C105.593 190.96 105.69 191.225 105.69 191.568C105.69 191.764 105.656 191.943 105.588 192.104C105.523 192.261 105.426 192.399 105.298 192.517C105.172 192.63 105.017 192.719 104.831 192.782C104.649 192.845 104.439 192.876 104.2 192.876ZM108.9 192.806L108.581 191.756H107.171L106.858 192.806H106.096L107.427 188.691H108.359L109.679 192.806H108.9ZM107.887 189.398H107.859L107.353 191.091H108.399L107.887 189.398ZM111.402 190.695L110.992 189.84H110.975V192.806H110.264V188.691H111.089L112.283 190.802L112.693 191.656H112.71V188.691H113.421V192.806H112.596L111.402 190.695ZM114.352 188.691H115.797C116.055 188.691 116.288 188.734 116.496 188.821C116.709 188.907 116.889 189.037 117.037 189.21C117.188 189.378 117.304 189.593 117.384 189.853C117.467 190.108 117.509 190.407 117.509 190.748C117.509 191.091 117.467 191.391 117.384 191.651C117.304 191.906 117.188 192.119 117.037 192.293C116.889 192.462 116.709 192.59 116.496 192.677C116.288 192.762 116.055 192.806 115.797 192.806H114.352V188.691ZM115.797 192.117C116.077 192.117 116.299 192.031 116.462 191.863C116.629 191.69 116.713 191.426 116.713 191.072V190.424C116.713 190.07 116.629 189.809 116.462 189.641C116.299 189.467 116.077 189.381 115.797 189.381H115.103V192.117H115.797ZM118.788 192.806L117.866 188.691H118.617L119.01 190.665L119.254 191.927H119.271L119.556 190.665L120.011 188.691H120.841L121.296 190.665L121.575 191.927H121.592L121.842 190.665L122.246 188.691H122.962L122.013 192.806H121.165L120.659 190.63L120.414 189.545H120.403L120.147 190.63L119.641 192.806H118.788ZM123.419 192.806V192.181H123.942V189.317H123.419V188.691H125.222V189.317H124.693V192.181H125.222V192.806H123.419ZM127.53 192.876C127.269 192.876 127.032 192.834 126.819 192.747C126.611 192.657 126.431 192.522 126.279 192.345C126.131 192.169 126.017 191.951 125.938 191.691C125.858 191.429 125.818 191.124 125.818 190.778C125.818 190.432 125.858 190.125 125.938 189.858C126.017 189.588 126.131 189.362 126.279 189.181C126.431 188.995 126.611 188.856 126.819 188.762C127.032 188.668 127.269 188.621 127.53 188.621C127.887 188.621 128.182 188.699 128.417 188.856C128.653 189.014 128.84 189.251 128.981 189.569L128.338 189.923C128.281 189.739 128.188 189.592 128.059 189.481C127.93 189.367 127.754 189.31 127.53 189.31C127.25 189.31 127.026 189.408 126.859 189.604C126.696 189.801 126.614 190.076 126.614 190.43V191.078C126.614 191.436 126.696 191.711 126.859 191.903C127.026 192.093 127.25 192.187 127.53 192.187C127.754 192.187 127.936 192.124 128.076 191.999C128.22 191.872 128.325 191.717 128.389 191.533L128.998 191.903C128.854 192.211 128.662 192.451 128.423 192.623C128.184 192.792 127.887 192.876 127.53 192.876ZM132.044 191.067H130.389V192.806H129.638V188.691H130.389V190.378H132.044V188.691H132.795V192.806H132.044V191.067ZM134.934 191.385V190.636H136.561V191.385H134.934ZM139.306 192.806L138.384 188.691H139.135L139.528 190.665L139.772 191.927H139.789L140.074 190.665L140.529 188.691H141.359L141.814 190.665L142.093 191.927H142.11L142.36 190.665L142.764 188.691H143.481L142.531 192.806H141.683L141.177 190.63L140.933 189.545H140.921L140.665 190.63L140.159 192.806H139.306ZM146.437 192.806L146.118 191.756H144.708L144.395 192.806H143.633L144.964 188.691H145.896L147.216 192.806H146.437ZM145.424 189.398H145.396L144.89 191.091H145.936L145.424 189.398ZM147.801 192.806V188.691H150.355V189.381H148.552V190.378H150.122V191.067H148.552V192.806H147.801ZM151.084 192.806V188.691H153.638V189.381H151.835V190.378H153.404V191.067H151.835V192.806H151.084ZM154.366 192.806V188.691H155.117V192.117H156.681V192.806H154.366ZM157.332 192.806V188.691H159.949V189.381H158.083V190.378H159.733V191.067H158.083V192.117H159.949V192.806H157.332ZM161.951 191.385V190.636H163.577V191.385H161.951ZM165.72 192.806V188.691H167.506C167.688 188.691 167.851 188.723 167.995 188.786C168.143 188.845 168.268 188.931 168.37 189.044C168.473 189.155 168.55 189.289 168.603 189.446C168.656 189.603 168.683 189.776 168.683 189.965C168.683 190.157 168.656 190.331 168.603 190.489C168.55 190.643 168.473 190.776 168.37 190.89C168.268 190.999 168.143 191.087 167.995 191.15C167.851 191.209 167.688 191.238 167.506 191.238H166.47V192.806H165.72ZM166.47 190.566H167.437C167.581 190.566 167.695 190.527 167.779 190.448C167.862 190.365 167.904 190.25 167.904 190.1V189.829C167.904 189.68 167.862 189.565 167.779 189.487C167.695 189.408 167.581 189.369 167.437 189.369H166.47V190.566ZM169.198 192.806V192.181H169.722V189.317H169.198V188.691H171.001V189.317H170.473V192.181H171.001V192.806H169.198ZM174.493 192.806H171.519V192.11L173.572 189.381H171.62V188.691H174.436V189.387L172.377 192.117H174.493V192.806ZM177.898 192.806H174.923V192.11L176.976 189.381H175.026V188.691H177.842V189.387L175.782 192.117H177.898V192.806ZM181.035 192.806L180.717 191.756H179.307L178.994 192.806H178.232L179.563 188.691H180.494L181.815 192.806H181.035ZM180.023 189.398H179.995L179.488 191.091H180.535L180.023 189.398ZM183.608 191.385V190.636H185.234V191.385H183.608ZM187.377 192.806V188.691H189.163C189.344 188.691 189.507 188.723 189.652 188.786C189.799 188.845 189.924 188.931 190.027 189.044C190.13 189.155 190.207 189.289 190.26 189.446C190.313 189.603 190.34 189.776 190.34 189.965C190.34 190.157 190.313 190.331 190.26 190.489C190.207 190.643 190.13 190.776 190.027 190.89C189.924 190.999 189.799 191.087 189.652 191.15C189.507 191.209 189.344 191.238 189.163 191.238H188.127V192.806H187.377ZM188.127 190.566H189.094C189.239 190.566 189.352 190.527 189.435 190.448C189.519 190.365 189.561 190.25 189.561 190.1V189.829C189.561 189.68 189.519 189.565 189.435 189.487C189.352 189.408 189.239 189.369 189.094 189.369H188.127V190.566ZM193.105 192.806L192.787 191.756H191.376L191.063 192.806H190.3L191.632 188.691H192.565L193.884 192.806H193.105ZM192.092 189.398H192.064L191.558 191.091H192.604L192.092 189.398ZM195.704 192.876C195.362 192.876 195.073 192.814 194.833 192.688C194.599 192.562 194.396 192.397 194.225 192.192L194.731 191.686C194.868 191.851 195.02 191.976 195.186 192.063C195.357 192.149 195.544 192.192 195.75 192.192C195.98 192.192 196.155 192.142 196.273 192.039C196.39 191.933 196.449 191.792 196.449 191.616C196.449 191.478 196.411 191.366 196.335 191.279C196.259 191.193 196.117 191.13 195.908 191.091L195.533 191.032C194.741 190.901 194.344 190.503 194.344 189.835C194.344 189.651 194.377 189.484 194.442 189.334C194.509 189.185 194.605 189.057 194.731 188.95C194.856 188.845 195.006 188.764 195.181 188.709C195.358 188.65 195.56 188.621 195.784 188.621C196.083 188.621 196.344 188.671 196.568 188.774C196.793 188.876 196.983 189.028 197.143 189.228L196.631 189.729C196.533 189.603 196.413 189.501 196.273 189.422C196.132 189.343 195.956 189.304 195.743 189.304C195.528 189.304 195.364 189.348 195.254 189.435C195.149 189.516 195.096 189.634 195.096 189.788C195.096 189.945 195.139 190.061 195.226 190.135C195.314 190.211 195.453 190.265 195.647 190.301L196.017 190.371C196.419 190.447 196.714 190.58 196.904 190.772C197.097 190.96 197.193 191.225 197.193 191.568C197.193 191.764 197.16 191.943 197.092 192.104C197.027 192.261 196.931 192.399 196.802 192.517C196.676 192.63 196.52 192.719 196.335 192.782C196.153 192.845 195.942 192.876 195.704 192.876ZM199.394 189.381V192.806H198.644V189.381H197.517V188.691H200.521V189.381H199.394ZM203.22 192.806L202.901 191.756H201.49L201.178 192.806H200.415L201.746 188.691H202.679L203.998 192.806H203.22ZM202.207 189.398H202.178L201.673 191.091H202.719L202.207 189.398Z" fill="#5E452B"/>
</g>
<defs>
<clipPath id="clip0_54_72">
<rect width="231.572" height="231.572" fill="white" transform="translate(34.2138 34.2137)"/>
</clipPath>
</defs>
</svg>
