<svg width="51" height="50" viewBox="0 0 51 50" fill="none" xmlns="http://www.w3.org/2000/svg">
<path d="M25.75 0C11.95 0 0.75 11.2 0.75 25C0.75 38.8 11.95 50 25.75 50C39.55 50 50.75 38.8 50.75 25C50.75 11.2 39.55 0 25.75 0ZM37.35 17C36.975 20.95 35.35 30.55 34.525 34.975C34.175 36.85 33.475 37.475 32.825 37.55C31.375 37.675 30.275 36.6 28.875 35.675C26.675 34.225 25.425 33.325 23.3 31.925C20.825 30.3 22.425 29.4 23.85 27.95C24.225 27.575 30.625 21.75 30.75 21.225C30.7674 21.1455 30.7651 21.0629 30.7433 20.9845C30.7215 20.9061 30.6809 20.8342 30.625 20.775C30.475 20.65 30.275 20.7 30.1 20.725C29.875 20.775 26.375 23.1 19.55 27.7C18.55 28.375 17.65 28.725 16.85 28.7C15.95 28.675 14.25 28.2 12.975 27.775C11.4 27.275 10.175 27 10.275 26.125C10.325 25.675 10.95 25.225 12.125 24.75C19.425 21.575 24.275 19.475 26.7 18.475C33.65 15.575 35.075 15.075 36.025 15.075C36.225 15.075 36.7 15.125 37 15.375C37.25 15.575 37.325 15.85 37.35 16.05C37.325 16.2 37.375 16.65 37.35 17Z" fill="white"/>
</svg>
