<svg width="128" height="144" viewBox="0 0 128 144" fill="none" xmlns="http://www.w3.org/2000/svg" xmlns:xlink="http://www.w3.org/1999/xlink">
<path d="M11.521,127.934L0.895,-0.578L127.795,-0.32L116.559,127.934L64.824,142.759L11.521,127.934Z" fill="#1B73BA"/>
<path d="M64.824,130.347L64.824,11.661L117.082,11.833L107.763,118.022L64.824,130.347Z" fill="#1C88C7"/>
<path d="M104.104,26.831L23.715,26.831L25.892,42.345L64.04,42.345L26.502,58.291L28.679,73.288L83.986,73.288L81.982,94.232L63.256,97.853L46.273,93.543L44.966,81.648L29.376,81.648L31.466,106.386L64.911,115.608L96.963,105.524L101.057,57.17L67.175,57.17L104.103,42.001L104.104,26.831Z" fill="#FFFFFF"/>
</svg>
