<svg width="100" height="100" viewBox="0 0 100 100" fill="none" xmlns="http://www.w3.org/2000/svg" xmlns:xlink="http://www.w3.org/1999/xlink">
<path d="M100,49C100,21.386 77.614,-1 50,-1C22.386,-1 0,21.386 0,49C0,73.956 18.284,94.642 42.188,98.393L42.188,63.453L29.492,63.453L29.492,49L42.188,49L42.188,37.984C42.188,25.453 49.652,18.531 61.073,18.531C66.544,18.531 72.266,19.508 72.266,19.508L72.266,31.812L65.961,31.812C59.75,31.812 57.812,35.667 57.812,39.621L57.812,49L71.68,49L69.463,63.453L57.812,63.453L57.812,98.393C81.716,94.642 100,73.956 100,49Z" fill="#1877F2"/>
<path d="M69.463,63.453L71.68,49L57.813,49L57.813,39.621C57.813,35.667 59.75,31.812 65.961,31.812L72.266,31.812L72.266,19.508C72.266,19.508 66.544,18.531 61.073,18.531C49.652,18.531 42.188,25.453 42.188,37.984L42.188,49L29.492,49L29.492,63.453L42.188,63.453L42.188,98.393C44.733,98.792 47.342,99 50,99C52.658,99 55.267,98.792 57.813,98.393L57.813,63.453L69.463,63.453Z" fill="#FFFFFF"/>
</svg>
