<svg width="100" height="100" viewBox="0 0 100 100" fill="none" xmlns="http://www.w3.org/2000/svg" xmlns:xlink="http://www.w3.org/1999/xlink">
<path d="M50,-1C22.389,-1 0,21.952 0,50.266C0,72.917 14.327,92.133 34.193,98.912C36.692,99.386 37.61,97.8 37.61,96.446C37.61,95.223 37.563,91.185 37.542,86.901C23.631,90.002 20.696,80.852 20.696,80.852C18.422,74.927 15.145,73.351 15.145,73.351C10.608,70.169 15.487,70.234 15.487,70.234C20.508,70.596 23.151,75.518 23.151,75.518C27.611,83.355 34.848,81.089 37.701,79.78C38.15,76.466 39.446,74.204 40.876,72.924C29.77,71.628 18.095,67.232 18.095,47.588C18.095,41.992 20.049,37.418 23.247,33.828C22.728,32.537 21.017,27.322 23.732,20.261C23.732,20.261 27.93,18.883 37.485,25.516C41.473,24.38 45.751,23.81 50,23.791C54.249,23.81 58.53,24.38 62.526,25.516C72.07,18.883 76.262,20.261 76.262,20.261C78.984,27.322 77.272,32.537 76.753,33.828C79.958,37.418 81.898,41.991 81.898,47.588C81.898,67.278 70.201,71.614 59.068,72.883C60.861,74.474 62.459,77.594 62.459,82.377C62.459,89.236 62.401,94.757 62.401,96.446C62.401,97.81 63.301,99.409 65.836,98.905C85.691,92.119 100,72.909 100,50.266C100,21.952 77.614,-1 50,-1Z" clip-rule="evenodd" fill-rule="evenodd" fill="#FFFFFF"/>
<path d="M19.898,74.593C19.783,74.857 19.37,74.937 18.996,74.755C18.613,74.582 18.399,74.221 18.523,73.955C18.636,73.683 19.048,73.607 19.43,73.79C19.813,73.963 20.031,74.327 19.898,74.593ZM22.49,76.93C22.238,77.165 21.747,77.056 21.414,76.684C21.069,76.313 21.005,75.817 21.26,75.577C21.519,75.342 21.995,75.452 22.34,75.824C22.685,76.199 22.752,76.692 22.49,76.93ZM24.267,79.92C23.944,80.147 23.416,79.934 23.09,79.461C22.768,78.987 22.768,78.42 23.097,78.192C23.424,77.964 23.944,78.169 24.275,78.639C24.597,79.12 24.597,79.688 24.267,79.92ZM27.273,83.383C26.984,83.705 26.37,83.619 25.919,83.179C25.459,82.75 25.331,82.141 25.62,81.819C25.912,81.496 26.531,81.587 26.984,82.023C27.442,82.451 27.581,83.065 27.273,83.383ZM31.158,84.553C31.032,84.969 30.439,85.159 29.843,84.982C29.247,84.799 28.857,84.311 28.977,83.889C29.101,83.47 29.696,83.272 30.297,83.462C30.892,83.643 31.282,84.128 31.158,84.553ZM35.581,85.048C35.596,85.488 35.089,85.852 34.463,85.86C33.833,85.874 33.324,85.518 33.317,85.086C33.317,84.643 33.812,84.282 34.441,84.272C35.068,84.259 35.581,84.612 35.581,85.048ZM39.924,84.88C40,85.308 39.564,85.749 38.942,85.866C38.331,85.978 37.765,85.714 37.687,85.289C37.611,84.85 38.055,84.41 38.665,84.296C39.288,84.187 39.845,84.444 39.924,84.88Z" fill="#FFFFFF"/>
</svg>
