<svg width="100" height="100" viewBox="0 0 100 100" fill="none" xmlns="http://www.w3.org/2000/svg" xmlns:xlink="http://www.w3.org/1999/xlink">
<path d="M49.358,-0.242C28.796,-0.242 22.783,-0.221 21.614,-0.124C17.394,0.227 14.768,0.891 11.908,2.315C9.703,3.41 7.965,4.679 6.249,6.458C3.124,9.702 1.23,13.693 0.545,18.437C0.211,20.74 0.114,21.209 0.095,32.973C0.087,36.894 0.095,42.055 0.095,48.977C0.095,69.522 0.117,75.53 0.216,76.696C0.557,80.802 1.201,83.386 2.564,86.212C5.17,91.621 10.147,95.681 16.011,97.196C18.041,97.719 20.284,98.007 23.162,98.143C24.382,98.196 36.813,98.234 49.252,98.234C61.691,98.234 74.13,98.219 75.32,98.159C78.653,98.002 80.589,97.742 82.729,97.189C88.63,95.666 93.516,91.666 96.175,86.181C97.512,83.424 98.19,80.742 98.497,76.85C98.564,76.002 98.592,62.474 98.592,48.964C98.592,35.452 98.561,21.949 98.495,21.1C98.184,17.146 97.506,14.487 96.126,11.676C94.993,9.375 93.736,7.657 91.91,5.9C88.652,2.788 84.667,0.894 79.919,0.209C77.618,-0.123 77.16,-0.222 65.387,-0.242L49.358,-0.242Z" fill="url(#pf_0_11_50)"/>
<path d="M49.358,-0.242C28.796,-0.242 22.783,-0.221 21.614,-0.124C17.394,0.227 14.768,0.891 11.908,2.315C9.703,3.41 7.965,4.679 6.249,6.458C3.124,9.702 1.23,13.693 0.545,18.437C0.211,20.74 0.114,21.209 0.095,32.973C0.087,36.894 0.095,42.055 0.095,48.977C0.095,69.522 0.117,75.53 0.216,76.696C0.557,80.802 1.201,83.386 2.564,86.212C5.17,91.621 10.147,95.681 16.011,97.196C18.041,97.719 20.284,98.007 23.162,98.143C24.382,98.196 36.813,98.234 49.252,98.234C61.691,98.234 74.13,98.219 75.32,98.159C78.653,98.002 80.589,97.742 82.729,97.189C88.63,95.666 93.516,91.666 96.175,86.181C97.512,83.424 98.19,80.742 98.497,76.85C98.564,76.002 98.592,62.474 98.592,48.964C98.592,35.452 98.561,21.949 98.495,21.1C98.184,17.146 97.506,14.487 96.126,11.676C94.993,9.375 93.736,7.657 91.91,5.9C88.652,2.788 84.667,0.894 79.919,0.209C77.618,-0.123 77.16,-0.222 65.387,-0.242L49.358,-0.242Z" fill="url(#pf_0_11_51)"/>
<path d="M49.335,12.636C39.46,12.636 38.22,12.679 34.341,12.856C30.47,13.033 27.828,13.646 25.516,14.545C23.124,15.474 21.096,16.717 19.074,18.739C17.052,20.76 15.809,22.789 14.878,25.179C13.976,27.492 13.363,30.135 13.188,34.005C13.015,37.884 12.969,39.124 12.969,49C12.969,58.876 13.013,60.111 13.189,63.99C13.367,67.861 13.98,70.504 14.878,72.816C15.808,75.207 17.05,77.236 19.072,79.257C21.093,81.28 23.121,82.526 25.511,83.454C27.825,84.354 30.468,84.966 34.338,85.144C38.217,85.32 39.456,85.363 49.33,85.363C59.207,85.363 60.442,85.32 64.321,85.144C68.192,84.966 70.837,84.354 73.151,83.454C75.542,82.526 77.567,81.28 79.588,79.257C81.611,77.236 82.853,75.207 83.785,72.817C84.679,70.504 85.292,67.86 85.474,63.991C85.648,60.112 85.694,58.876 85.694,49C85.694,39.124 85.648,37.885 85.474,34.006C85.292,30.135 84.679,27.492 83.785,25.18C82.853,22.789 81.611,20.76 79.588,18.739C77.565,16.716 75.543,15.473 73.149,14.545C70.831,13.646 68.187,13.033 64.316,12.856C60.437,12.679 59.202,12.636 49.324,12.636L49.335,12.636ZM46.073,19.189C47.041,19.188 48.121,19.189 49.335,19.189C59.044,19.189 60.194,19.224 64.028,19.398C67.574,19.56 69.498,20.153 70.78,20.651C72.477,21.31 73.687,22.098 74.958,23.37C76.231,24.643 77.019,25.855 77.68,27.552C78.177,28.832 78.77,30.757 78.932,34.302C79.106,38.135 79.144,39.287 79.144,48.992C79.144,58.696 79.106,59.848 78.932,63.681C78.77,67.226 78.177,69.151 77.68,70.431C77.02,72.128 76.231,73.336 74.958,74.608C73.686,75.881 72.477,76.669 70.78,77.328C69.5,77.828 67.574,78.419 64.028,78.581C60.195,78.755 59.044,78.793 49.335,78.793C39.625,78.793 38.475,78.755 34.641,78.581C31.096,78.417 29.172,77.825 27.889,77.327C26.192,76.668 24.98,75.88 23.708,74.607C22.435,73.335 21.647,72.126 20.987,70.428C20.489,69.148 19.896,67.223 19.734,63.678C19.56,59.845 19.525,58.693 19.525,48.982C19.525,39.272 19.56,38.126 19.734,34.293C19.896,30.748 20.489,28.823 20.987,27.542C21.646,25.845 22.435,24.632 23.708,23.36C24.98,22.087 26.192,21.299 27.889,20.639C29.171,20.139 31.096,19.548 34.641,19.385C37.996,19.233 39.296,19.188 46.073,19.18L46.073,19.189ZM68.745,25.227C66.336,25.227 64.381,27.179 64.381,29.589C64.381,31.998 66.336,33.953 68.745,33.953C71.154,33.953 73.108,31.998 73.108,29.589C73.108,27.18 71.154,25.226 68.745,25.226L68.745,25.227ZM49.335,30.326C39.022,30.326 30.661,38.687 30.661,49C30.661,59.313 39.022,67.67 49.335,67.67C59.648,67.67 68.006,59.313 68.006,49C68.006,38.687 59.648,30.326 49.335,30.326ZM49.335,36.879C56.029,36.879 61.456,42.305 61.456,49C61.456,55.694 56.029,61.121 49.335,61.121C42.64,61.121 37.214,55.694 37.214,49C37.214,42.305 42.64,36.879 49.335,36.879Z" fill="#FFFFFF"/>
<defs>
<radialGradient id="pf_0_11_50" cx="0" cy="0" r="1" gradientUnits="userSpaceOnUse" gradientTransform="matrix(0 -48.798752 45.397675 0 13.128 52.91)">
<stop stop-color="#FFDD55"/>
<stop offset="0.1" stop-color="#FFDD55"/>
<stop offset="0.5" stop-color="#FF543E"/>
<stop offset="1" stop-color="#C837AB"/>
</radialGradient>
<radialGradient id="pf_0_11_51" cx="0" cy="0" r="1" gradientUnits="userSpaceOnUse" gradientTransform="matrix(4.282484 21.38894 -88.187494 17.648305 -8.204 3.426)">
<stop stop-color="#3771C8"/>
<stop offset="0.128" stop-color="#3771C8"/>
<stop offset="1" stop-color="#6600FF" stop-opacity="0"/>
</radialGradient>
</defs>
</svg>
