<svg width="51" height="50" viewBox="0 0 51 50" fill="none" xmlns="http://www.w3.org/2000/svg">
<g clip-path="url(#clip0_111_11)">
<path d="M29.275 25.6074C29.2599 26.3994 29.01 27.169 28.557 27.8188C28.104 28.4686 27.4682 28.9692 26.7304 29.2573C25.9925 29.5453 25.1857 29.6078 24.4123 29.4369C23.6389 29.2659 22.9337 28.8691 22.386 28.2969C21.8383 27.7246 21.4729 27.0026 21.336 26.2225C21.1991 25.4423 21.2969 24.639 21.6171 23.9145C21.9372 23.19 22.4653 22.5768 23.1343 22.1528C23.8033 21.7287 24.5832 21.5128 25.375 21.5325C26.4273 21.5715 27.4229 22.0187 28.151 22.7794C28.879 23.5401 29.2822 24.5545 29.275 25.6074Z" fill="white"/>
<path d="M32.1575 13.0825H18.5952C17.2532 13.0825 15.9662 13.6156 15.0172 14.5645C14.0683 15.5135 13.5352 16.8005 13.5352 18.1425V32.0098C13.5352 32.6743 13.6661 33.3322 13.9204 33.9461C14.1747 34.56 14.5474 35.1178 15.0172 35.5877C15.4871 36.0576 16.0449 36.4303 16.6588 36.6846C17.2727 36.9388 17.9307 37.0697 18.5952 37.0697H32.1575C32.822 37.0697 33.4799 36.9388 34.0938 36.6846C34.7077 36.4303 35.2655 36.0576 35.7354 35.5877C36.2053 35.1178 36.578 34.56 36.8323 33.9461C37.0865 33.3322 37.2174 32.6743 37.2174 32.0098V18.1675C37.2201 17.5011 37.0912 16.8407 36.8381 16.2242C36.5851 15.6077 36.2128 15.0472 35.7428 14.5748C35.2727 14.1025 34.7141 13.7275 34.0988 13.4714C33.4836 13.2153 32.8239 13.0832 32.1575 13.0825ZM25.3751 32.3898C24.0325 32.4201 22.7113 32.0497 21.5802 31.3258C20.4491 30.602 19.5593 29.5575 19.0244 28.3257C18.4895 27.094 18.3337 25.7307 18.5769 24.41C18.8202 23.0893 19.4515 21.8711 20.3901 20.9107C21.3288 19.9504 22.5324 19.2915 23.8472 19.0181C25.162 18.7448 26.5284 18.8694 27.7721 19.3761C29.0157 19.8827 30.0802 20.7485 30.8297 21.8628C31.5792 22.9771 31.9796 24.2895 31.98 25.6324C31.9909 26.51 31.8286 27.3811 31.5024 28.196C31.1762 29.0108 30.6925 29.7533 30.079 30.3809C29.4655 31.0086 28.7343 31.5091 27.9271 31.8538C27.1199 32.1985 26.2527 32.3806 25.3751 32.3898ZM32.715 18.8774C32.55 18.8775 32.3867 18.8446 32.2346 18.7807C32.0825 18.7169 31.9447 18.6233 31.8292 18.5055C31.7137 18.3877 31.6229 18.248 31.5621 18.0947C31.5013 17.9413 31.4717 17.7774 31.475 17.6125C31.475 17.277 31.6083 16.9552 31.8455 16.718C32.0827 16.4808 32.4045 16.3475 32.74 16.3475C33.0755 16.3475 33.3972 16.4808 33.6345 16.718C33.8717 16.9552 34.005 17.277 34.005 17.6125C34.0099 17.7911 33.9762 17.9686 33.9062 18.133C33.8362 18.2973 33.7315 18.4446 33.5992 18.5647C33.467 18.6849 33.3104 18.775 33.14 18.829C32.9697 18.883 32.7898 18.8995 32.6125 18.8774H32.715Z" fill="white"/>
<path d="M25.375 6.87902e-05C18.7446 -0.0330829 12.3727 2.56901 7.66091 7.23392C2.94912 11.8988 0.283434 18.2444 0.250282 24.8748C0.217131 31.5051 2.81922 37.877 7.48413 42.5888C12.149 47.3006 18.4946 49.9663 25.125 49.9994C28.408 50.0159 31.6621 49.3855 34.7015 48.1443C37.7408 46.9031 40.506 45.0754 42.839 42.7656C45.1721 40.4558 47.0273 37.709 48.2988 34.6822C49.5704 31.6554 50.2332 28.4078 50.2497 25.1248C50.2661 21.8417 49.6357 18.5877 48.3945 15.5483C47.1533 12.5089 45.3256 9.74374 43.0158 7.4107C40.706 5.07765 37.9592 3.22241 34.9324 1.95089C31.9056 0.679374 28.658 0.0164838 25.375 6.87902e-05ZM40.5573 31.7547C40.5642 32.8762 40.3485 33.988 39.9226 35.0256C39.4967 36.0632 38.869 37.0059 38.0761 37.7991C37.2831 38.5923 36.3406 39.2202 35.3031 39.6464C34.2657 40.0726 33.154 40.2887 32.0324 40.2821H18.7226C17.601 40.289 16.4892 40.0733 15.4516 39.6474C14.414 39.2215 13.4713 38.5938 12.6781 37.8009C11.8849 37.0079 11.257 36.0654 10.8308 35.0279C10.4046 33.9905 10.1885 32.8787 10.1952 31.7572V18.4448C10.1882 17.3233 10.4039 16.2115 10.8298 15.1739C11.2558 14.1363 11.8834 13.1936 12.6764 12.4004C13.4693 11.6072 14.4119 10.9793 15.4493 10.5531C16.4867 10.1269 17.5985 9.91081 18.7201 9.91744H32.0324C33.1537 9.91081 34.2653 10.1268 35.3026 10.5528C36.3398 10.9789 37.2823 11.6066 38.0752 12.3995C38.8681 13.1925 39.4958 14.1349 39.9219 15.1722C40.3479 16.2095 40.5639 17.321 40.5573 18.4423V31.7547Z" fill="white"/>
</g>
<defs>
<clipPath id="clip0_111_11">
<rect width="50" height="50" fill="white" transform="translate(0.25)"/>
</clipPath>
</defs>
</svg>
