<svg width="136" height="136" viewBox="0 0 136 136" fill="none" xmlns="http://www.w3.org/2000/svg" xmlns:xlink="http://www.w3.org/1999/xlink">
<path d="M-0.209,-0.589L135.15,-0.589L135.15,134.77L-0.209,134.77Z" fill="#F7DF1E"/>
<path d="M85.448,97.229C88.444,102.34 92.41,104.896 97.345,104.896C103.513,104.896 106.598,102.516 106.598,97.758C106.598,94.85 102.632,92.206 96.287,89.562C84.478,85.685 78.662,79.075 78.838,69.734C78.838,60.217 85.976,52.814 97.345,52.814C105.804,52.814 111.797,56.251 115.322,63.125L105.54,69.47C103.425,65.592 100.693,63.742 97.345,63.918C93.467,64.094 91.44,65.945 91.264,69.47C91.264,73.171 93.643,74.757 101.575,78.194C112.943,82.688 119.288,87.712 119.288,98.551C118.759,110.007 111.797,115.911 98.402,116.264C87.298,116.264 79.455,111.946 74.873,103.31L85.448,97.229ZM40.504,98.286C42.619,101.723 43.941,104.896 49.228,104.896C53.458,104.896 55.573,102.252 55.573,96.965L55.573,53.079L68.263,53.079L68.263,96.436C68.087,108.95 61.742,115.295 49.228,115.471C39.887,115.295 33.542,111.417 30.194,103.838L40.504,98.286Z" fill="#000000"/>
</svg>
