<svg width="136" height="136" viewBox="0 0 136 136" fill="none" xmlns="http://www.w3.org/2000/svg" xmlns:xlink="http://www.w3.org/1999/xlink">
<path d="M66.825,103.75C104.204,103.75 134.505,87.97 134.505,68.5C134.505,49.031 104.204,33.251 66.825,33.251C29.447,33.251 -0.854,49.031 -0.854,68.5C-0.854,87.97 29.447,103.75 66.825,103.75Z" fill="url(#pf_0_5_9)"/>
<path d="M66.826,101.133C102.744,101.133 131.863,86.523 131.863,68.5C131.863,50.481 102.744,35.867 66.826,35.867C30.907,35.867 1.788,50.481 1.788,68.5C1.788,86.52 30.907,101.133 66.826,101.133Z" fill="#6181B6"/>
<path d="M80.003,79.056L83.218,62.573C83.937,58.867 83.345,56.101 81.419,54.341C79.493,52.582 76.408,51.829 71.755,51.829L66.191,51.829L67.779,43.724C67.827,43.494 67.796,43.254 67.69,43.043C67.584,42.833 67.409,42.665 67.195,42.568C67.053,42.501 66.898,42.466 66.741,42.466L59.023,42.466C58.78,42.467 58.545,42.55 58.356,42.702C58.167,42.854 58.036,43.067 57.985,43.304L54.559,60.774C54.294,58.904 53.494,57.151 52.255,55.726C50.874,54.363 49.216,53.315 47.393,52.652C45.566,51.986 43.618,51.721 41.68,51.874L26.641,51.874C26.399,51.875 26.164,51.958 25.976,52.11C25.788,52.263 25.657,52.475 25.606,52.711L18.711,88.043C18.662,88.273 18.693,88.512 18.799,88.723C18.905,88.933 19.078,89.101 19.292,89.199C19.433,89.264 19.588,89.298 19.746,89.298L27.509,89.298C27.751,89.296 27.985,89.213 28.173,89.06C28.362,88.908 28.492,88.697 28.544,88.46L30.216,79.916L36.011,79.916C38.563,79.971 41.109,79.638 43.561,78.929C45.634,78.256 47.534,77.134 49.124,75.643C50.419,74.47 51.524,73.105 52.401,71.599L51.005,78.658C50.958,78.888 50.989,79.128 51.095,79.338C51.201,79.548 51.375,79.716 51.589,79.814C51.73,79.882 51.885,79.916 52.04,79.916L59.761,79.916C60.004,79.915 60.239,79.831 60.427,79.679C60.616,79.527 60.747,79.315 60.799,79.078L64.71,59.663L69.998,59.663C72.262,59.663 72.917,60.102 73.086,60.291C73.255,60.478 73.593,61.087 73.213,63.013L70.147,78.635C70.1,78.865 70.131,79.105 70.236,79.315C70.342,79.525 70.515,79.693 70.728,79.792C70.869,79.859 71.024,79.893 71.182,79.893L79.008,79.893C79.243,79.883 79.468,79.796 79.649,79.644C79.829,79.493 79.954,79.286 80.003,79.056ZM44.26,65.463C43.996,67.495 42.994,69.359 41.446,70.7C39.542,71.86 37.323,72.395 35.101,72.228L31.739,72.228L34.235,59.538L38.696,59.538C41.976,59.538 43.287,60.227 43.814,60.813C44.218,61.511 44.467,62.288 44.544,63.091C44.621,63.894 44.524,64.701 44.26,65.463ZM112.975,55.746C111.595,54.382 109.936,53.332 108.113,52.669C106.286,52.003 104.338,51.738 102.4,51.891L87.403,51.891C87.161,51.892 86.926,51.975 86.738,52.127C86.55,52.28 86.419,52.492 86.368,52.728L79.515,88.043C79.467,88.273 79.499,88.513 79.605,88.723C79.711,88.933 79.885,89.101 80.099,89.199C80.24,89.264 80.395,89.298 80.55,89.298L88.314,89.298C88.556,89.297 88.79,89.213 88.979,89.061C89.167,88.909 89.297,88.697 89.349,88.46L91.021,79.916L96.816,79.916C99.374,79.98 101.927,79.655 104.388,78.951C106.461,78.277 108.361,77.155 109.952,75.663C112.659,73.253 114.489,70.011 115.154,66.447C115.671,64.619 115.742,62.694 115.363,60.832C114.984,58.97 114.165,57.226 112.975,55.746ZM104.895,65.463C104.66,67.48 103.697,69.342 102.188,70.7C100.285,71.86 98.066,72.395 95.843,72.228L92.394,72.228L94.89,59.538L99.354,59.538C102.631,59.538 103.942,60.227 104.472,60.813C104.873,61.513 105.118,62.291 105.19,63.093C105.263,63.896 105.163,64.703 104.895,65.463Z" fill="#FFFFFF"/>
<path d="M38.676,58.489C40.779,58.228 42.899,58.807 44.576,60.102C45.107,60.913 45.446,61.835 45.567,62.796C45.688,63.758 45.588,64.735 45.275,65.652C44.996,67.924 43.888,70.012 42.165,71.518C40.08,72.839 37.627,73.455 35.165,73.275L30.448,73.275L33.347,58.489L38.676,58.489ZM19.641,88.252L27.402,88.252L29.244,78.867L35.904,78.867C38.356,78.932 40.802,78.622 43.16,77.947C45.093,77.316 46.863,76.265 48.34,74.868C50.886,72.607 52.605,69.563 53.227,66.216C53.717,64.555 53.803,62.802 53.48,61.101C53.156,59.4 52.431,57.801 51.366,56.436C49.308,54.104 46.028,52.94 41.53,52.94L26.641,52.94L19.641,88.252ZM59.023,43.535L66.825,43.535L64.987,52.917L71.859,52.917C76.188,52.917 79.168,53.664 80.804,55.159C82.44,56.654 82.933,59.068 82.285,62.406L79.05,78.847L71.055,78.847L74.121,63.224C74.341,62.628 74.421,61.989 74.355,61.357C74.289,60.725 74.078,60.116 73.74,59.578C72.618,58.78 71.236,58.435 69.871,58.613L63.78,58.613L59.804,78.847L52.02,78.847L59.023,43.535ZM99.354,58.489C101.457,58.227 103.579,58.807 105.256,60.102C105.787,60.914 106.125,61.835 106.246,62.797C106.367,63.758 106.266,64.735 105.953,65.652C105.662,67.94 104.531,70.037 102.78,71.537C100.695,72.86 98.241,73.477 95.778,73.297L91.125,73.297L94.024,58.509L99.354,58.489ZM80.319,88.252L88.187,88.252L90.09,78.847L96.751,78.847C99.203,78.911 101.649,78.6 104.007,77.925C105.916,77.292 107.663,76.249 109.125,74.868C111.67,72.607 113.388,69.563 114.009,66.216C114.499,64.555 114.585,62.802 114.262,61.101C113.938,59.4 113.213,57.801 112.148,56.436C110.132,54.09 106.847,52.917 102.292,52.917L87.341,52.917L80.319,88.252Z" fill="#000004"/>
<defs>
<radialGradient id="pf_0_5_9" cx="0" cy="0" r="1" gradientUnits="userSpaceOnUse" gradientTransform="matrix(44.406537 0 0 43.975571 19.897 22.805)">
<stop stop-color="#FFFFFF"/>
<stop offset="0.5" stop-color="#4C6B97"/>
<stop offset="1" stop-color="#231F20"/>
</radialGradient>
</defs>
</svg>
