<svg width="102" height="100" viewBox="0 0 102 100" fill="none" xmlns="http://www.w3.org/2000/svg" xmlns:xlink="http://www.w3.org/1999/xlink">
<path d="M50.667,-1C37.409,-1 24.682,4.271 15.315,13.645C5.94,23.018 0.667,35.745 0.667,49C0.667,62.255 5.94,74.982 15.315,84.355C24.682,93.729 37.409,99 50.667,99C63.924,99 76.651,93.729 86.018,84.355C95.393,74.982 100.667,62.255 100.667,49C100.667,35.745 95.393,23.018 86.018,13.645C76.651,4.271 63.924,-1 50.667,-1Z" fill="url(#pf_0_11_46)"/>
<path d="M23.3,48.472C37.878,42.122 47.596,37.935 52.456,35.912C66.346,30.136 69.229,29.133 71.112,29.099C71.526,29.093 72.448,29.195 73.05,29.682C73.55,30.092 73.69,30.647 73.76,31.036C73.823,31.425 73.909,32.311 73.839,33.004C73.089,40.91 69.831,60.096 68.175,68.951C67.479,72.698 66.096,73.955 64.76,74.077C61.854,74.345 59.651,72.159 56.839,70.315C52.44,67.43 49.956,65.635 45.682,62.82C40.745,59.567 43.948,57.779 46.76,54.857C47.495,54.092 60.292,42.455 60.534,41.4C60.565,41.268 60.596,40.776 60.3,40.516C60.01,40.256 59.581,40.345 59.268,40.415C58.823,40.515 51.8,45.162 38.175,54.355C36.182,55.726 34.378,56.394 32.753,56.358C30.971,56.32 27.534,55.349 24.979,54.519C21.854,53.501 19.362,52.963 19.581,51.234C19.69,50.334 20.932,49.413 23.3,48.472Z" fill="#FFFFFF"/>
<defs>
<linearGradient id="pf_0_11_46" x1="5000.667" y1="-1" x2="5000.667" y2="9999" gradientUnits="userSpaceOnUse">
<stop stop-color="#2AABEE"/>
<stop offset="1" stop-color="#229ED9"/>
</linearGradient>
</defs>
</svg>
