<svg width="50" height="26" viewBox="0 0 50 26" fill="none" xmlns="http://www.w3.org/2000/svg" xmlns:xlink="http://www.w3.org/1999/xlink">
<path d="M3.328,0.047C2.638,-0.643 1.519,-0.643 0.829,0.047C0.139,0.737 0.139,1.855 0.829,2.545L3.328,0.047ZM24.163,23.38L22.914,24.63C23.604,25.32 24.723,25.32 25.413,24.63L24.163,23.38ZM47.497,2.545C48.187,1.855 48.187,0.737 47.497,0.047C46.807,-0.643 45.689,-0.643 44.999,0.047L47.497,2.545ZM0.829,2.545L22.914,24.63L25.413,22.131L3.328,0.047L0.829,2.545ZM25.413,24.63L47.497,2.545L44.999,0.047L22.914,22.131L25.413,24.63Z" fill="#05FF2D"/>
</svg>
