<svg width="54" height="30" viewBox="0 0 54 30" fill="none" xmlns="http://www.w3.org/2000/svg" xmlns:xlink="http://www.w3.org/1999/xlink">
<path d="M2.414,0.086C1.633,-0.695 0.367,-0.695 -0.414,0.086C-1.195,0.867 -1.195,2.133 -0.414,2.914L2.414,0.086ZM26,26.5L24.586,27.914C25.367,28.695 26.633,28.695 27.414,27.914L26,26.5ZM52.414,2.914C53.195,2.133 53.195,0.867 52.414,0.086C51.633,-0.695 50.367,-0.695 49.586,0.086L52.414,2.914ZM-0.414,2.914L24.586,27.914L27.414,25.086L2.414,0.086L-0.414,2.914ZM27.414,27.914L52.414,2.914L49.586,0.086L24.586,25.086L27.414,27.914Z" fill="#05FF2D"/>
</svg>
