<svg width="300" height="300" viewBox="0 0 300 300" fill="none" xmlns="http://www.w3.org/2000/svg">
<rect width="300" height="300" rx="20" fill="#822222"/>
<g clip-path="url(#clip0_11_245)">
<rect x="190.573" y="78.6341" width="87.6678" height="116.89" rx="5.84452" transform="rotate(10 190.573 78.6341)" fill="#FFF0CC"/>
<g clip-path="url(#clip1_11_245)">
<path d="M258.058 127.74C257.379 126.657 249.589 117.663 248.048 116.898C247.377 116.568 246.689 116.314 245.964 116.131C242.609 115.283 238.672 115.687 235.861 117.817C235.616 118.002 235.476 118.108 235.476 118.108C235.476 118.108 235.59 117.974 235.791 117.739C236.736 116.639 237.985 115.759 239.273 115.106C239.866 114.804 240.483 114.55 241.116 114.346C241.29 114.29 242.908 113.752 242.989 113.875C242.989 113.874 242.332 112.882 242.332 112.882C241.264 111.356 240.059 109.991 238.148 109.654C235.78 109.237 233.497 110.348 232.308 112.278C231.701 111.636 230.649 111.104 229.397 110.883C228.145 110.662 226.975 110.802 226.184 111.198C225.727 108.978 223.962 107.153 221.594 106.735C219.684 106.399 218.084 107.269 216.558 108.337C216.558 108.337 215.602 109.045 215.602 109.045C215.719 108.958 217.056 110.017 217.2 110.129C217.726 110.537 218.218 110.987 218.673 111.473C219.659 112.528 220.532 113.782 221.044 115.139C221.152 115.428 221.214 115.593 221.214 115.593C221.214 115.593 221.118 115.446 220.951 115.188C219.038 112.225 215.477 110.499 212.035 110.148C211.29 110.073 210.557 110.076 209.813 110.156C208.104 110.348 197.708 116.135 196.699 116.921C193.783 119.193 191.665 122.511 190.973 126.438C189.489 134.854 195.108 142.88 203.524 144.364C211.223 145.721 218.594 141.133 220.931 133.899C221.976 134.985 223.363 135.761 224.961 136.043C226.559 136.325 228.127 136.069 229.481 135.407C229.202 143.004 234.56 149.836 242.259 151.193C250.675 152.677 258.7 147.058 260.184 138.642C260.877 134.714 260.022 130.872 258.058 127.74ZM204.186 138.636C199.11 137.741 195.721 132.901 196.616 127.826C197.511 122.751 202.351 119.362 207.427 120.257C212.502 121.152 215.891 125.992 214.996 131.067C214.101 136.142 209.261 139.531 204.186 138.636ZM225.663 132.058C224.325 131.822 223.431 130.545 223.667 129.207C223.903 127.868 225.179 126.974 226.518 127.21C227.857 127.446 228.751 128.723 228.515 130.061C228.279 131.4 227.002 132.294 225.663 132.058ZM243.596 145.585C238.52 144.691 235.132 139.851 236.026 134.775C236.921 129.7 241.761 126.311 246.837 127.206C251.912 128.101 255.301 132.941 254.406 138.016C253.511 143.091 248.671 146.48 243.596 145.585Z" fill="#822222"/>
</g>
</g>
<rect x="190.867" y="79.0537" width="86.9433" height="116.166" rx="5.48225" transform="rotate(10 190.867 79.0537)" stroke="#822222" stroke-width="0.724527"/>
<rect x="22.9029" y="94.1513" width="86.9433" height="116.166" rx="5.48225" transform="rotate(-10 22.9029 94.1513)" fill="#FFF0CC"/>
<rect x="22.9029" y="94.1513" width="86.9433" height="116.166" rx="5.48225" transform="rotate(-10 22.9029 94.1513)" stroke="#822222" stroke-width="0.724527"/>
<path d="M67.7561 115.858C76.1024 114.386 84.044 119.86 85.494 128.083M90.4547 144.573L105.857 155.199M94.5615 126.484C96.8815 139.642 87.9367 152.217 74.5825 154.572C61.2283 156.927 48.5219 148.169 46.2018 135.012C43.8818 121.854 52.8266 109.278 66.1808 106.924C79.535 104.569 92.2414 113.327 94.5615 126.484Z" stroke="#822222" stroke-width="5.79622" stroke-linecap="round" stroke-linejoin="round"/>
<g filter="url(#filter0_d_11_245)">
<rect x="105.804" y="69.2152" width="87.6678" height="116.89" rx="5.84452" fill="#822222"/>
<path d="M142.01 122.41C141.859 122.601 141.709 122.792 141.554 122.988C139.819 125.362 138.919 127.792 138.07 130.576C137.599 132.04 137.599 132.04 136.983 133.432C136.358 134.939 136.007 136.417 135.694 138.009C134.859 142.009 133.743 145.921 132.62 149.849C132.103 151.662 131.626 153.48 131.182 155.313C129.594 155.313 128.006 155.313 126.37 155.313C125.953 151.756 125.841 148.206 125.744 144.629C125.726 144.029 125.709 143.429 125.691 142.829C125.649 141.372 125.608 139.916 125.568 138.46C124.915 139.769 125.029 141.222 124.967 142.662C124.942 143.167 124.942 143.167 124.917 143.682C124.848 145.124 124.782 146.567 124.716 148.01C124.668 149.061 124.617 150.113 124.566 151.164C124.552 151.493 124.537 151.822 124.523 152.161C124.411 154.465 124.411 154.465 123.964 154.912C122.094 155.082 121.083 154.788 119.553 153.708C119.421 154.237 119.289 154.767 119.152 155.313C118.358 155.313 117.564 155.313 116.746 155.313C116.704 153.006 116.865 150.804 117.147 148.517C117.567 144.884 117.632 141.31 117.548 137.658C117.472 137.905 117.396 138.153 117.317 138.408C115.442 144.434 113.202 150.094 110.33 155.714C109.801 155.714 109.271 155.714 108.726 155.714C109.956 149.852 111.864 144.175 113.789 138.51C113.938 138.065 114.087 137.619 114.241 137.159C116.03 131.968 116.03 131.968 118.449 130.387C121.088 129.204 123.991 128.659 126.796 128.003C127.662 127.799 128.527 127.593 129.391 127.385C130.174 127.197 130.958 127.013 131.742 126.829C133.898 126.223 135.859 125.517 137.523 123.965C139.068 122.543 139.879 122.364 142.01 122.41Z" fill="#FFF0CC"/>
<path d="M160.857 122.811C161.926 123.282 162.715 123.813 163.644 124.542C165.526 125.897 167.607 126.585 169.779 127.351C170.639 127.664 171.498 127.979 172.356 128.294C172.782 128.45 173.209 128.607 173.648 128.768C185.785 133.289 185.785 133.289 188.526 138.46C189.177 139.912 189.487 141.211 189.67 142.789C189.722 143.234 189.773 143.678 189.826 144.136C189.902 144.827 189.902 144.827 189.98 145.532C190.061 146.21 190.061 146.21 190.143 146.901C190.462 149.718 190.602 152.479 190.531 155.313C189.936 155.114 189.936 155.114 189.328 154.912C188.843 153.794 188.843 153.794 188.376 152.307C188.249 151.909 188.249 151.909 188.12 151.503C187.85 150.651 187.587 149.797 187.323 148.943C187.146 148.383 186.969 147.823 186.791 147.263C185.919 144.501 185.093 141.745 184.465 138.915C184.029 137.847 183.471 137.463 182.511 136.855C182.627 137.277 182.743 137.699 182.862 138.134C183.329 140.004 183.607 141.886 183.885 143.793C184.052 144.874 184.233 145.946 184.433 147.021C184.516 147.468 184.516 147.468 184.6 147.924C184.708 148.503 184.818 149.082 184.931 149.66C185.286 151.573 185.366 153.366 185.318 155.313C184.415 154.409 184.292 153.934 183.968 152.719C183.869 152.365 183.771 152.011 183.669 151.646C183.466 150.899 183.265 150.152 183.067 149.405C182.968 149.05 182.868 148.695 182.765 148.33C182.634 147.843 182.634 147.843 182.5 147.346C181.865 145.944 180.849 145.432 179.479 144.83C177.972 143.671 177.675 142.288 177.298 140.467C177.1 138.863 176.976 137.265 176.897 135.651C174.912 135.85 174.912 135.85 172.887 136.053C173.408 136.243 173.929 136.433 174.466 136.63C176.045 137.206 176.045 137.206 176.496 137.658C176.587 138.192 176.654 138.73 176.711 139.269C176.746 139.603 176.781 139.937 176.817 140.282C177.778 150.211 177.778 150.211 176.095 154.912C174.639 154.912 173.184 154.912 171.684 154.912C170.903 152.452 170.135 150.003 169.554 147.488C167.703 139.962 164.924 132.314 161.339 125.443C160.857 124.416 160.857 124.416 160.857 122.811Z" fill="#FFF0CC"/>
<path d="M150.822 89.7682C151.445 89.7615 152.067 89.7506 152.69 89.7352C153.59 89.7132 154.489 89.7045 155.389 89.6986C155.665 89.6895 155.942 89.6804 156.227 89.671C157.756 89.6777 158.397 89.865 159.602 90.8348C160.609 92.1085 161.173 93.4105 161.709 94.9243C162.76 98.1814 162.76 98.1814 165.049 100.55C165.419 100.721 165.789 100.892 166.17 101.068C168.353 102.2 170.016 103.414 171.283 105.557C171.655 107.488 171.296 108.789 170.232 110.446C167.442 114.124 162.957 117.795 158.28 118.556C157.401 118.658 156.527 118.741 155.644 118.799C155.644 118.534 155.644 118.269 155.644 117.996C155.992 117.894 156.341 117.793 156.7 117.688C157.162 117.549 157.624 117.411 158.1 117.269C158.556 117.134 159.012 116.999 159.482 116.86C161.965 116.129 161.965 116.129 163.664 114.385C163.284 114.277 162.903 114.17 162.511 114.059C161.258 113.583 161.258 113.583 160.456 112.379C160.456 110.828 161.034 110.135 162.06 109.068C163.315 107.691 163.586 106.592 163.739 104.761C163.717 103.825 163.717 103.825 162.862 102.749C162.49 102.815 162.118 102.881 161.734 102.949C158.554 103.388 155.698 103.53 152.837 101.946C152.572 101.681 152.307 101.417 152.035 101.144C152.035 100.746 152.035 100.349 152.035 99.9399C152.465 99.9813 152.895 100.023 153.338 100.065C155.781 100.087 157.883 98.9479 160.055 97.9337C160.22 95.1986 160.22 95.1986 159.253 92.7174C158.177 92.2076 158.177 92.2076 156.847 92.3161C155.733 93.0821 154.868 94.0508 153.965 95.0497C153.475 95.5713 152.985 96.0922 152.494 96.6124C152.28 96.8461 152.067 97.0798 151.847 97.3205C150.956 98.2105 150.327 98.7243 149.048 98.7754C147.483 98.1015 147.112 96.7927 146.496 95.3005C146.309 94.8726 146.309 94.8726 146.118 94.436C145.811 93.7324 145.513 93.0246 145.218 92.3161C144.821 92.4486 144.424 92.581 144.015 92.7174C144.146 94.5627 144.334 95.9124 145.243 97.5324C146.163 99.2081 146.155 100.457 146.02 102.347C144.846 102.691 143.982 102.904 142.829 102.418C142.14 102.018 141.471 101.583 140.807 101.144C139.619 103.165 139.62 105.291 140.005 107.564C140.757 108.855 141.699 109.787 142.812 110.774C143.516 111.425 144.167 112.071 144.817 112.78C144.817 113.31 144.817 113.839 144.817 114.385C143.229 114.385 141.641 114.385 140.005 114.385C141.79 116.682 144.095 117.217 146.822 117.996C146.822 118.129 146.822 118.261 146.822 118.398C144.016 118.398 141.995 117.739 139.528 116.492C139.262 116.357 138.995 116.223 138.721 116.084C133.405 113.295 133.405 113.295 132.385 110.774C132.179 109.15 132.241 108.249 132.987 106.786C134.735 104.644 136.643 102.315 139.203 101.144C139.6 101.144 139.997 101.144 140.406 101.144C140.414 100.8 140.414 100.8 140.423 100.449C140.616 97.1701 141.415 93.5023 143.631 90.9839C145.586 89.3051 148.364 89.7874 150.822 89.7682Z" fill="#FFF0CC"/>
<path d="M152.035 122.41C152.862 122.586 152.862 122.586 153.639 122.811C153.639 123.341 153.639 123.871 153.639 124.416C153.837 124.209 154.036 124.003 154.24 123.789C155.758 122.916 156.75 123.285 158.451 123.614C158.716 123.746 158.98 123.879 159.253 124.015C159.043 125.882 158.56 127.127 157.549 128.705C157.315 129.079 157.081 129.453 156.841 129.838C155.983 130.914 155.277 131.45 154.04 132.04C152.27 132.193 151.524 132.234 150.03 131.238C150.162 130.576 150.294 129.914 150.431 129.231C150.815 129.202 150.815 129.202 151.206 129.172C151.537 129.142 151.869 129.112 152.21 129.081C152.541 129.053 152.871 129.025 153.211 128.996C153.485 128.941 153.758 128.887 154.04 128.83C154.172 128.565 154.304 128.301 154.441 128.028C153.117 128.16 151.794 128.292 150.431 128.429C149.829 128.228 149.428 127.626 149.428 127.225C151.233 127.426 152.011 127.027 154.441 126.824C151.662 126.625 151.662 126.625 148.827 126.423C148.694 126.82 148.562 127.217 148.426 127.626C147.088 127.18 146.988 127.039 146.345 125.871C146.207 125.628 146.069 125.385 145.927 125.134C145.619 124.416 145.619 124.416 145.619 123.213C147.887 122.986 149.319 123.729 151.233 124.818C151.291 124.495 151.349 124.172 151.408 123.84C151.634 122.811 151.634 122.811 152.035 122.41Z" fill="#FFF0CC"/>
<path d="M142.411 124.416C142.675 124.416 142.94 124.416 143.213 124.416C143.757 125.226 144.254 126.031 144.741 126.874C145.618 128.36 146.473 129.79 147.649 131.062C148.426 132.04 148.426 132.04 148.385 132.76C147.876 134.011 147.104 134.913 146.245 135.952C145.923 136.348 145.601 136.743 145.269 137.15C144.847 137.6 144.847 137.6 144.416 138.059C144.151 138.059 143.886 138.059 143.614 138.059C142.335 133.46 142.282 129.154 142.411 124.416Z" fill="#FFF0CC"/>
<path d="M160.055 126.423C160.187 126.423 160.32 126.423 160.456 126.423C160.595 130.611 160.424 135.913 157.397 139.161C157.215 139.327 157.034 139.493 156.847 139.664C156.31 138.679 155.776 137.692 155.243 136.705C155.09 136.424 154.937 136.144 154.779 135.855C153.639 133.736 153.639 133.736 153.639 132.843C153.978 132.71 154.317 132.578 154.666 132.441C157.097 131.026 158.688 128.854 160.055 126.423Z" fill="#FFF0CC"/>
<path d="M146.822 136.855C146.822 137.12 146.822 137.385 146.822 137.658C147.078 137.583 147.334 137.509 147.599 137.432C148.008 137.345 148.008 137.345 148.426 137.256C148.558 137.389 148.69 137.521 148.827 137.658C148.544 140.632 148.544 140.632 148.025 141.67C147.933 142.488 147.86 143.308 147.799 144.128C147.766 144.568 147.732 145.007 147.697 145.46C147.673 145.798 147.649 146.137 147.624 146.485C147.359 146.485 147.094 146.485 146.822 146.485C146.406 145.459 145.998 144.431 145.594 143.401C145.476 143.111 145.357 142.822 145.236 142.524C144.606 140.901 144.864 141.411 144.215 139.463C143.881 138.46 145.771 136.855 146.822 136.855Z" fill="#FFF0CC"/>
<path d="M153.639 136.855C155.243 137.658 155.415 138.142 156.245 139.664C156.965 142.411 156.569 144.025 155.243 146.485C153.193 144.341 153.146 141.212 153.17 138.399C153.238 137.658 153.238 137.658 153.639 136.855Z" fill="#FFF0CC"/>
<path d="M152.035 122.41C152.862 122.586 152.862 122.586 153.639 122.811C153.639 123.341 153.639 123.871 153.639 124.416C153.374 124.681 153.109 124.946 152.837 125.219C152.68 125.434 152.522 125.649 152.361 125.871C151.239 126.722 150.187 126.5 148.827 126.423C148.694 126.82 148.562 127.217 148.426 127.626C147.088 127.18 146.988 127.039 146.345 125.871C146.207 125.628 146.069 125.385 145.927 125.134C145.619 124.416 145.619 124.416 145.619 123.213C147.887 122.986 149.319 123.729 151.233 124.818C151.291 124.495 151.349 124.172 151.408 123.84C151.634 122.811 151.634 122.811 152.035 122.41Z" fill="#FFF0CC"/>
<path d="M184.115 146.887C184.248 146.887 184.38 146.887 184.516 146.887C184.999 149.717 185.431 152.438 185.318 155.313C184.331 154.325 184.208 153.598 183.865 152.253C183.76 151.851 183.656 151.448 183.548 151.034C183.432 150.57 183.432 150.57 183.313 150.097C183.578 150.097 183.843 150.097 184.115 150.097C184.115 149.037 184.115 147.978 184.115 146.887Z" fill="#FFF0CC"/>
<path d="M190.13 150.899C190.263 150.899 190.395 150.899 190.531 150.899C190.531 152.356 190.531 153.812 190.531 155.313C190.134 155.18 189.737 155.048 189.328 154.912C189.386 154.696 189.444 154.481 189.504 154.26C189.767 153.146 189.951 152.028 190.13 150.899Z" fill="#FFF0CC"/>
</g>
<g clip-path="url(#clip2_11_245)">
<rect x="22.4832" y="158.332" width="255.034" height="72.4527" rx="14.4905" fill="#FFF0CC"/>
<path d="M79.4817 198.753V205.464H77.5749C77.3107 207.247 76.8402 209.014 76.1633 210.764C75.503 212.514 74.5619 213.983 73.3402 215.172C72.6964 215.865 71.3839 216.633 69.4027 217.475C67.4381 218.317 64.4252 219.01 60.3638 219.555C56.3025 220.116 50.8049 220.306 43.8709 220.125C46.2813 220.174 48.799 219.869 51.424 219.208C55.9146 218.102 60.273 216.27 64.4994 213.711C68.7424 211.152 71.8296 208.494 73.7612 205.737C73.8108 205.654 73.8685 205.563 73.9346 205.464H71.7058C70.8143 205.464 69.8733 205.398 68.8827 205.266C67.8921 205.134 66.9593 204.878 66.0843 204.498C65.2259 204.119 64.5242 203.574 63.9794 202.864C63.4346 202.138 63.1622 201.188 63.1622 200.016C63.1622 198.596 63.3685 197.234 63.7813 195.93C64.2105 194.626 64.7306 193.437 65.3414 192.364C65.9523 191.274 66.5631 190.325 67.174 189.516C67.7848 188.707 68.2966 188.08 68.7093 187.634C69.1386 187.188 69.3532 186.965 69.3532 186.965C69.3532 186.965 69.6256 187.064 70.1704 187.263C70.7317 187.461 71.4169 187.807 72.2258 188.303C73.0513 188.781 73.885 189.467 74.727 190.358C75.5855 191.25 76.3202 192.38 76.931 193.751C77.5419 195.121 77.9133 196.788 78.0454 198.753H79.4817ZM68.536 198.753H74.7023C73.6291 197.647 72.3497 196.739 70.8638 196.029C69.3945 195.319 68.0737 194.799 66.9016 194.469C65.7459 194.122 65.1681 193.949 65.1681 193.949C65.1681 193.949 65.069 194.114 64.8709 194.444C64.6728 194.758 64.5077 195.154 64.3756 195.633C64.2435 196.112 64.2435 196.59 64.3756 197.069C64.5242 197.531 64.9122 197.928 65.5395 198.258C66.1669 198.588 67.1657 198.753 68.536 198.753ZM87.3072 186.668L83.1963 189.417L79.3579 183.721L85.0784 179.883L86.911 182.656L91.0218 179.883L94.8602 185.603L89.1397 189.417L87.3072 186.668ZM96.5194 198.753H97.3862V205.464C96.2966 205.464 95.3885 205.217 94.6621 204.721C93.9522 204.209 93.3744 203.566 92.9286 202.79C92.4829 201.997 92.1279 201.163 91.8638 200.288C91.6161 199.413 91.4098 198.58 91.2447 197.787C91.0961 196.995 90.9475 196.343 90.7989 195.831C90.8485 196.821 90.8154 197.87 90.6999 198.976C90.6008 200.082 90.3119 201.13 89.8331 202.121C89.3544 203.095 88.6032 203.896 87.5796 204.523C86.5725 205.15 85.1857 205.464 83.4192 205.464H79.2589V198.753H84.1621C85.0867 198.753 85.8709 198.638 86.5147 198.406C87.1751 198.175 87.7117 197.87 88.1244 197.49C88.5537 197.11 88.8921 196.698 89.1397 196.252C89.4039 195.806 89.602 195.36 89.7341 194.915C89.8827 194.452 89.9817 194.031 90.0312 193.652C90.0973 193.272 90.1468 192.967 90.1798 192.735C90.2128 192.504 90.2624 192.389 90.3284 192.389C90.3944 192.372 90.4935 192.504 90.6256 192.785C90.7742 193.115 90.997 193.602 91.2942 194.246C91.6079 194.873 91.9959 195.534 92.4581 196.227C92.9369 196.921 93.5065 197.515 94.1668 198.01C94.8437 198.505 95.6279 198.753 96.5194 198.753ZM107.044 210.268L111.304 207.421L115.142 213.116L109.446 216.955L107.515 214.082L103.255 216.955L99.4416 211.259L105.137 207.421L107.044 210.268ZM115.786 198.753H116.653V205.464C115.563 205.464 114.655 205.217 113.929 204.721C113.219 204.209 112.641 203.566 112.195 202.79C111.749 201.997 111.394 201.163 111.13 200.288C110.883 199.397 110.676 198.555 110.511 197.763C110.363 196.97 110.206 196.326 110.041 195.831C110.107 196.821 110.082 197.87 109.966 198.976C109.867 200.082 109.578 201.13 109.1 202.121C108.621 203.095 107.87 203.896 106.846 204.523C105.839 205.15 104.452 205.464 102.686 205.464H97.2376V198.753H103.429C104.353 198.753 105.137 198.638 105.781 198.406C106.425 198.175 106.962 197.87 107.391 197.49C107.82 197.11 108.159 196.698 108.406 196.252C108.67 195.806 108.868 195.36 109.001 194.915C109.133 194.452 109.232 194.031 109.298 193.652C109.364 193.272 109.413 192.967 109.446 192.735C109.479 192.504 109.529 192.389 109.595 192.389C109.661 192.372 109.76 192.504 109.892 192.785C110.041 193.115 110.264 193.602 110.561 194.246C110.874 194.873 111.262 195.534 111.725 196.227C112.203 196.921 112.773 197.515 113.433 198.01C114.11 198.505 114.894 198.753 115.786 198.753ZM129.406 205.464H116.43V198.753H129.406V205.464ZM142.036 205.464H129.059V198.753H142.036V205.464ZM154.666 205.464H141.689V198.753H154.666V205.464ZM167.295 205.464H154.319V198.753H167.295V205.464ZM179.677 211.668L180.792 213.525L167.171 215.754L167.221 215.432L179.677 211.668ZM184.878 195.063C185.01 195.905 184.894 197.143 184.531 198.778C184.184 200.396 183.788 201.915 183.342 203.334C182.913 204.754 182.699 205.464 182.699 205.464H167.048V198.753H171.357C173.354 193.701 174.964 189.656 176.186 186.619C176.186 186.619 176.565 186.792 177.325 187.139C178.084 187.469 178.976 187.989 179.999 188.699C181.039 189.392 182.013 190.267 182.921 191.324C183.829 192.38 184.482 193.627 184.878 195.063ZM171.802 198.753H181.51C180.866 198.093 179.917 197.35 178.662 196.524C177.407 195.699 175.765 194.807 173.734 193.85C173.239 195.022 172.595 196.656 171.802 198.753ZM201.222 198.753H201.445V205.464C200.867 205.481 200.314 205.406 199.786 205.241C199.819 205.869 199.811 206.488 199.761 207.099C199.431 210.252 198.217 212.951 196.121 215.196C195.526 215.939 194.239 216.732 192.257 217.574C190.293 218.416 187.272 219.101 183.194 219.629C179.099 220.174 173.585 220.347 166.651 220.149C169.062 220.199 171.579 219.902 174.204 219.258C177.523 218.432 180.693 217.202 183.714 215.568C186.719 213.933 189.278 212.15 191.391 210.219C193.504 208.287 194.866 206.488 195.477 204.82C194.272 203.995 193.232 203.12 192.357 202.195C191.482 201.271 190.805 200.478 190.326 199.818C189.864 199.141 189.632 198.803 189.632 198.803L192.703 190.036C192.786 190.713 193.108 191.538 193.669 192.513C194.247 193.47 194.957 194.428 195.799 195.385C196.657 196.326 197.565 197.127 198.523 197.787C199.48 198.431 200.38 198.753 201.222 198.753ZM213.035 169.843C213.035 169.843 213.158 169.892 213.406 169.991C213.654 170.09 213.934 170.272 214.248 170.536C214.578 170.8 214.867 171.18 215.115 171.675C215.362 172.154 215.486 172.781 215.486 173.557C215.486 175.274 215.016 176.851 214.075 178.287L205.308 179.724C205.308 179.724 205.688 179.649 206.447 179.501C207.207 179.336 207.834 179.179 208.329 179.03C208.874 178.849 210.121 178.188 212.069 177.049C212.267 176.934 212.589 176.727 213.035 176.43C213.48 176.116 213.91 175.753 214.322 175.34C214.735 174.911 214.941 174.474 214.941 174.028C214.941 173.764 214.908 173.623 214.842 173.607C214.743 174.135 214.529 174.622 214.198 175.068C213.885 175.497 213.381 175.745 212.688 175.811C212.16 175.811 211.755 175.596 211.474 175.167C211.21 174.738 211.144 174.193 211.276 173.533C211.507 172.757 211.854 171.948 212.316 171.106C212.795 170.264 213.035 169.843 213.035 169.843ZM212.391 173.656C213.431 173.64 214.174 173.508 214.619 173.26C214.19 172.781 213.654 172.443 213.01 172.245C212.382 172.03 212.069 171.923 212.069 171.923C212.069 171.923 211.994 172.022 211.846 172.22C211.714 172.418 211.648 172.649 211.648 172.914C211.648 173.293 211.895 173.541 212.391 173.656ZM222.247 215.444L216.551 219.283L212.713 213.587L218.433 209.748L222.247 215.444ZM238.641 192.661C239.945 194.312 240.465 196.12 240.201 198.084C240.102 198.877 239.953 199.595 239.755 200.239C239.128 202.171 238.195 203.533 236.957 204.325C235.719 205.117 234.439 205.538 233.118 205.588C231.798 205.654 230.683 205.538 229.775 205.241C227.645 204.564 225.128 203.285 222.222 201.403C222.899 203.087 223.411 204.432 223.757 205.439C220.885 205.39 217.137 205.39 212.515 205.439C207.892 205.472 204.144 205.472 201.272 205.439V198.728H205.085C204.557 197.507 204.375 196.244 204.54 194.939C204.788 192.991 205.308 191.472 206.101 190.383C206.893 189.293 207.818 188.526 208.874 188.08C209.667 187.651 210.5 187.337 211.375 187.139C215.024 186.33 218.119 185.678 220.662 185.182C219.787 184.472 219.102 183.754 218.607 183.028C218.111 182.301 217.765 181.691 217.566 181.195C217.368 180.7 217.269 180.452 217.269 180.452L218.879 171.859C218.961 173.015 219.44 174.096 220.315 175.103C221.19 176.094 222.181 176.977 223.287 177.753C224.41 178.513 225.4 179.115 226.259 179.561C227.134 179.99 227.571 180.205 227.571 180.205V187.609C227.571 187.609 226.911 187.436 225.59 187.089C224.286 186.726 222.866 186.52 221.331 186.47C218.689 186.536 216.32 186.908 214.223 187.584C214.504 187.651 214.76 187.717 214.991 187.783C217.253 188.509 219.993 189.929 223.213 192.042C225.706 193.61 227.967 195.038 229.998 196.326C231.121 197.053 232.293 197.688 233.514 198.233C234.885 198.844 236.04 199.182 236.981 199.248C237.691 199.265 238.327 199.042 238.888 198.58C239.73 197.771 240.077 196.788 239.928 195.633C239.78 194.477 239.351 193.487 238.641 192.661ZM205.853 194.444C205.259 194.989 204.92 195.649 204.838 196.425C204.772 197.201 204.879 197.969 205.16 198.728H217.987C216.815 197.985 215.742 197.309 214.768 196.698C213.629 195.955 212.457 195.319 211.252 194.791C209.865 194.18 208.709 193.842 207.785 193.775C207.058 193.759 206.414 193.982 205.853 194.444Z" fill="#822222"/>
</g>
<rect x="22.8455" y="158.694" width="254.309" height="71.7282" rx="14.1283" stroke="#822222" stroke-width="0.724527"/>
<path d="M50.9091 172.257C50.9091 172.257 53.358 178.43 57.9109 175.352C62.4638 172.273 59.9072 168.296 57.8191 165.993C55.7309 163.69 53.535 163.582 50.6559 166.192C47.7769 168.803 47.6692 170.998 47.5617 173.194C47.4542 175.39 47.2391 179.782 49.9569 180.465C52.6746 181.148 52.314 177.279 50.172 176.073C48.03 174.868 44.7363 174.707 44.7363 174.707C44.7363 174.707 47.2009 169.325 44.4293 169.739C41.6577 170.154 44.6287 176.902 44.6287 176.902C44.6287 176.902 42.2178 181.186 38.2409 183.743C34.2639 186.3 29.9263 188.134 28.5673 186.218C27.2082 184.303 31.7612 181.225 36.2602 179.244C40.7592 177.263 49.1277 174.922 45.5654 180.25C42.003 185.578 40.3985 173.394 40.3985 173.394" stroke="#AD917B" stroke-width="1.45455" stroke-linecap="round"/>
<path d="M81.4468 166.05H40.7196" stroke="#AD917B" stroke-width="1.35758" stroke-linecap="round"/>
<path d="M31.8953 215.602L31.8953 174.875" stroke="#AD917B" stroke-width="1.35758" stroke-linecap="round"/>
<mask id="path-25-inside-1_11_245" fill="white">
<path d="M31.2166 165.372H41.3984V167.069C41.3984 171.755 37.5996 175.553 32.9135 175.553H31.2166V165.372Z"/>
</mask>
<path d="M31.2166 165.372H41.3984H31.2166ZM42.7559 167.069C42.7559 172.504 38.3493 176.911 32.9135 176.911H31.2166V174.196H32.9135C36.8498 174.196 40.0408 171.005 40.0408 167.069L42.7559 167.069ZM31.2166 175.553V165.372V175.553ZM42.7559 165.372V167.069C42.7559 172.504 38.3493 176.911 32.9135 176.911L32.9135 174.196C36.8498 174.196 40.0408 171.005 40.0408 167.069V165.372H42.7559Z" fill="#AD917B" mask="url(#path-25-inside-1_11_245)"/>
<circle cx="35.459" cy="169.614" r="0.848485" fill="#AD917B"/>
<path d="M249.057 216.413C249.057 216.413 246.608 210.24 242.056 213.319C237.503 216.397 240.059 220.374 242.147 222.677C244.236 224.981 246.431 225.088 249.31 222.478C252.19 219.868 252.297 217.672 252.405 215.476C252.512 213.28 252.727 208.889 250.01 208.205C247.292 207.522 247.652 211.392 249.794 212.597C251.936 213.803 255.23 213.964 255.23 213.964C255.23 213.964 252.766 219.346 255.537 218.931C258.309 218.517 255.338 211.768 255.338 211.768C255.338 211.768 257.749 207.484 261.726 204.928C265.703 202.371 270.04 200.537 271.399 202.452C272.758 204.368 268.205 207.446 263.706 209.427C259.207 211.407 250.839 213.749 254.401 208.421C257.963 203.092 259.568 215.277 259.568 215.277" stroke="#AD917B" stroke-width="1.45455" stroke-linecap="round"/>
<path d="M218.52 222.62H259.247" stroke="#AD917B" stroke-width="1.35758" stroke-linecap="round"/>
<path d="M268.071 173.069V213.796" stroke="#AD917B" stroke-width="1.35758" stroke-linecap="round"/>
<mask id="path-31-inside-2_11_245" fill="white">
<path d="M268.75 223.299H258.568V221.602C258.568 216.916 262.367 213.117 267.053 213.117H268.75V223.299Z"/>
</mask>
<path d="M268.75 223.299H258.568H268.75ZM257.21 221.602C257.21 216.166 261.617 211.759 267.053 211.759H268.75V214.475H267.053C263.117 214.475 259.926 217.666 259.926 221.602L257.21 221.602ZM268.75 213.117V223.299V213.117ZM257.21 223.299V221.602C257.21 216.166 261.617 211.759 267.053 211.759L267.053 214.475C263.117 214.475 259.926 217.666 259.926 221.602V223.299H257.21Z" fill="#AD917B" mask="url(#path-31-inside-2_11_245)"/>
<circle cx="264.507" cy="219.056" r="0.848485" transform="rotate(180 264.507 219.056)" fill="#AD917B"/>
<defs>
<filter id="filter0_d_11_245" x="100.008" y="67.0416" width="99.2602" height="128.483" filterUnits="userSpaceOnUse" color-interpolation-filters="sRGB">
<feFlood flood-opacity="0" result="BackgroundImageFix"/>
<feColorMatrix in="SourceAlpha" type="matrix" values="0 0 0 0 0 0 0 0 0 0 0 0 0 0 0 0 0 0 127 0" result="hardAlpha"/>
<feMorphology radius="3.62264" operator="dilate" in="SourceAlpha" result="effect1_dropShadow_11_245"/>
<feOffset dy="3.62264"/>
<feGaussianBlur stdDeviation="1.08679"/>
<feComposite in2="hardAlpha" operator="out"/>
<feColorMatrix type="matrix" values="0 0 0 0 0 0 0 0 0 0 0 0 0 0 0 0 0 0 0.15 0"/>
<feBlend mode="normal" in2="BackgroundImageFix" result="effect1_dropShadow_11_245"/>
<feBlend mode="normal" in="SourceGraphic" in2="effect1_dropShadow_11_245" result="shape"/>
</filter>
<clipPath id="clip0_11_245">
<rect x="190.573" y="78.6341" width="87.6678" height="116.89" rx="5.84452" transform="rotate(10 190.573 78.6341)" fill="white"/>
</clipPath>
<clipPath id="clip1_11_245">
<rect width="70.2791" height="70.2791" fill="white" transform="translate(197.878 87.279) rotate(10)"/>
</clipPath>
<clipPath id="clip2_11_245">
<rect x="22.4832" y="158.332" width="255.034" height="72.4527" rx="14.4905" fill="white"/>
</clipPath>
</defs>
</svg>
