<?xml version="1.0" standalone="no"?>
<!DOCTYPE svg PUBLIC "-//W3C//DTD SVG 20010904//EN"
 "http://www.w3.org/TR/2001/REC-SVG-20010904/DTD/svg10.dtd">
<svg version="1.0" xmlns="http://www.w3.org/2000/svg"
 width="3464.000000pt" height="3464.000000pt" viewBox="0 0 3464.000000 3464.000000"
 preserveAspectRatio="xMidYMid meet">

<g transform="translate(0.000000,3464.000000) scale(0.100000,-0.100000)"
fill="#fff" stroke="none">
<path d="M16257 30595 l-848 -104 -197 -56 c-108 -31 -222 -63 -252 -72 -47
-13 -69 -29 -155 -113 l-100 -97 -375 33 c-344 30 -408 33 -775 33 l-400 1
-328 -109 -327 -109 -378 -276 c-208 -151 -386 -284 -396 -295 -13 -14 -25
-73 -48 -228 -16 -114 -30 -208 -31 -209 -1 -1 -112 12 -247 29 l-245 29 -355
-142 -355 -142 -763 -555 c-419 -305 -769 -565 -777 -577 -9 -13 -43 -163 -78
-335 l-62 -311 -284 0 -285 0 -256 -145 -257 -145 -459 -564 -459 -564 -69
-207 -68 -207 -721 -927 -721 -926 -349 -1150 -349 -1150 36 -327 37 -328 106
-177 c58 -98 113 -185 122 -194 9 -9 115 -66 236 -127 l220 -111 515 -36 c421
-30 558 -36 748 -33 l234 3 22 26 c18 21 29 66 60 252 21 125 35 235 32 245
-16 49 -14 49 -772 153 -401 55 -729 101 -730 102 0 1 14 196 31 432 26 357
35 436 50 468 l19 37 83 0 83 0 21 -42 c38 -77 49 -83 278 -160 l216 -73 190
0 190 0 255 74 255 74 218 216 218 216 144 294 145 293 0 509 c0 280 2 509 5
509 2 0 372 -254 821 -564 l816 -565 69 -105 c37 -59 79 -110 91 -116 13 -5
104 -25 204 -45 133 -26 188 -33 205 -26 13 5 62 48 109 95 l85 86 3 195 c2
148 0 200 -10 220 -9 16 -503 364 -1353 953 l-1340 927 -92 120 -92 120 0 110
-1 111 161 257 161 257 176 143 176 142 69 173 69 172 180 150 c113 95 188
150 201 149 12 0 90 -12 174 -27 l152 -27 308 -410 c230 -305 314 -411 333
-415 30 -7 397 65 417 82 8 6 18 20 24 30 13 23 79 352 79 392 0 26 -41 71
-314 345 l-313 316 -27 164 c-14 91 -25 165 -23 166 1 1 238 208 527 461 l525
459 400 232 399 233 146 0 146 0 51 -52 c34 -36 136 -192 308 -473 142 -231
268 -435 279 -452 37 -57 51 -58 262 -18 114 22 199 44 213 54 17 13 31 50 62
176 22 88 39 169 37 180 -3 11 -127 203 -276 427 l-272 408 0 110 0 111 88
117 89 117 669 268 669 267 153 0 152 0 0 -47 c0 -46 -4 -53 -135 -217 l-135
-169 0 -441 0 -442 71 -174 c39 -96 73 -181 76 -188 5 -11 587 -468 644 -506
24 -15 62 -16 400 -14 l374 3 285 180 285 180 117 230 116 231 -34 479 c-18
264 -36 492 -38 507 -3 15 -72 128 -154 250 l-149 223 -122 60 c-111 55 -141
75 -108 75 6 0 296 43 642 95 l630 95 567 -33 568 -33 45 -44 45 -44 0 -281
-1 -280 -173 -1555 c-118 -1064 -170 -1564 -165 -1585 5 -16 18 -36 31 -44 21
-13 458 -82 527 -83 23 0 41 8 58 25 25 24 29 54 234 1763 l209 1739 0 246 0
246 -148 258 c-82 142 -158 265 -169 272 -21 14 -1123 224 -1165 222 -13 -1
-404 -48 -871 -104z m1103 -80 c91 -1 185 -7 210 -13 25 -6 88 -19 140 -28 52
-9 138 -28 190 -41 102 -26 300 -101 300 -113 0 -4 11 -11 24 -14 40 -10 138
-115 178 -191 79 -151 83 -176 82 -485 -1 -201 -5 -304 -18 -385 -9 -60 -21
-166 -27 -235 -6 -69 -17 -174 -25 -235 -8 -60 -21 -182 -29 -270 -8 -88 -19
-191 -25 -230 -16 -102 -18 -121 -36 -330 -9 -104 -27 -279 -40 -388 -13 -109
-24 -217 -24 -241 0 -24 -9 -102 -19 -172 -11 -71 -22 -172 -26 -224 -6 -92
-15 -176 -35 -310 -6 -36 -17 -150 -26 -255 -17 -207 -34 -293 -62 -313 -18
-15 -187 -10 -306 8 -86 13 -99 41 -76 161 6 30 17 124 26 209 8 85 19 189 24
230 16 118 39 369 40 429 0 30 4 80 10 110 5 31 19 148 31 261 11 113 25 241
29 285 5 44 16 159 24 255 9 96 20 211 26 255 5 44 15 130 21 190 6 61 17 162
26 225 8 63 21 187 28 275 8 88 19 194 25 235 22 155 31 259 31 396 1 164 -12
206 -87 279 -68 67 -237 142 -394 175 -66 14 -513 8 -605 -9 -33 -6 -112 -18
-175 -26 -254 -36 -229 -32 -510 -79 -47 -8 -138 -17 -202 -21 -65 -3 -159
-13 -210 -21 -51 -8 -131 -19 -178 -24 -152 -17 -313 -38 -397 -51 l-83 -13 0
-52 c0 -49 2 -53 36 -73 129 -76 384 -309 456 -418 103 -154 161 -303 184
-474 38 -290 38 -284 15 -419 -11 -69 -21 -135 -21 -146 0 -33 -36 -137 -78
-227 -49 -102 -137 -222 -229 -308 -119 -112 -313 -218 -439 -240 -30 -5 -80
-13 -111 -19 -73 -12 -293 -12 -353 0 -25 6 -68 14 -97 19 -75 14 -196 67
-288 126 -191 123 -333 301 -425 530 -45 110 -59 159 -66 225 -11 106 -11 415
0 580 l8 125 42 55 c61 80 106 147 106 159 0 14 64 114 95 147 24 25 25 33 25
142 l0 115 -47 -6 c-27 -3 -91 -10 -143 -16 -130 -15 -276 -44 -405 -81 -118
-34 -525 -182 -550 -200 -14 -10 -149 -61 -264 -100 -294 -99 -415 -168 -544
-311 -83 -91 -117 -178 -117 -297 0 -129 35 -226 136 -385 24 -37 44 -70 44
-73 0 -2 12 -23 27 -47 93 -145 335 -555 340 -575 8 -33 -24 -63 -121 -113
-44 -23 -104 -54 -133 -70 -29 -16 -56 -29 -60 -29 -4 0 -24 22 -43 48 -19 26
-38 49 -41 52 -12 10 -92 146 -112 190 -11 25 -45 86 -77 135 -31 50 -82 135
-115 190 -141 241 -217 331 -339 397 -57 31 -67 33 -161 33 -114 0 -148 -9
-285 -76 -52 -25 -126 -59 -165 -74 -69 -29 -83 -35 -180 -89 -58 -32 -176
-112 -254 -170 -30 -23 -93 -70 -141 -106 -123 -91 -213 -162 -225 -176 -11
-13 -206 -153 -344 -248 -76 -52 -235 -176 -286 -223 -11 -10 -51 -43 -88 -73
-74 -59 -148 -150 -177 -215 -37 -85 -40 -98 -40 -163 0 -151 32 -207 292
-517 101 -121 309 -374 353 -430 22 -27 48 -59 57 -69 23 -26 31 -52 21 -70
-20 -35 -266 -217 -291 -216 -22 1 -142 140 -380 437 -34 43 -100 125 -145
183 -127 162 -206 231 -315 273 -58 23 -230 23 -298 1 -161 -54 -376 -262
-543 -527 -59 -96 -184 -255 -271 -347 -40 -42 -77 -92 -246 -335 -82 -117
-153 -226 -178 -275 -10 -19 -28 -53 -40 -75 -30 -58 -27 -124 12 -209 18 -38
32 -74 32 -81 0 -29 62 -134 101 -172 45 -43 147 -118 589 -434 140 -101 266
-193 279 -206 30 -29 147 -113 158 -113 4 -1 69 -45 143 -100 74 -54 250 -181
390 -281 140 -101 260 -188 265 -195 22 -24 217 -164 646 -464 327 -228 343
-244 310 -304 -26 -45 -143 -213 -178 -255 l-29 -34 -51 26 c-28 15 -79 48
-114 75 -35 26 -134 98 -219 160 -304 220 -335 243 -365 267 -52 42 -193 145
-198 145 -6 0 -718 511 -757 543 -8 7 -73 64 -145 128 -139 123 -220 188 -299
238 -73 46 -145 40 -134 -10 60 -276 66 -307 84 -493 10 -101 14 -197 10 -240
-27 -292 -61 -437 -153 -646 -178 -403 -517 -754 -826 -854 -57 -19 -195 -44
-286 -52 -81 -7 -337 33 -366 58 -5 4 -15 8 -22 8 -22 0 -233 104 -298 146
-33 22 -86 58 -117 82 -54 40 -60 42 -127 42 l-71 0 -15 -36 c-43 -103 -128
-377 -135 -439 -5 -38 -18 -131 -29 -205 -14 -92 -21 -185 -21 -289 0 -147 1
-157 27 -211 45 -96 42 -95 450 -151 422 -58 502 -66 773 -79 113 -5 216 -13
229 -16 l23 -7 -4 -156 c-5 -186 -17 -226 -70 -236 -39 -7 -457 11 -573 25
-44 5 -145 14 -225 20 -192 14 -381 42 -505 76 -201 54 -398 170 -494 290
-105 133 -156 266 -195 519 -17 108 -12 337 9 394 8 24 25 83 36 130 11 47 42
151 69 231 114 344 303 988 311 1060 17 159 46 254 137 450 21 47 51 126 66
175 14 50 32 101 39 115 7 14 212 280 455 592 244 312 445 576 449 585 6 18
59 90 108 148 63 75 365 500 420 590 44 73 72 136 100 224 l40 123 423 522
c233 286 435 533 450 547 15 14 123 81 241 148 209 118 215 121 275 121 33 0
112 9 174 20 112 19 114 19 220 0 58 -11 120 -20 137 -20 77 0 107 87 90 255
-9 85 17 193 70 295 19 36 39 90 45 120 l11 55 112 80 c62 44 159 116 215 160
57 44 166 123 241 175 76 52 309 220 519 374 l382 278 323 129 322 130 125 -5
c69 -2 172 -13 230 -24 186 -35 221 -37 253 -12 26 20 27 26 27 108 1 87 12
157 43 262 9 30 19 72 22 93 5 33 15 44 72 85 37 26 101 77 142 115 79 70 124
102 253 181 42 26 116 76 164 111 87 64 91 66 388 164 l301 99 155 6 c85 3
173 11 195 18 53 16 425 17 520 1 39 -7 106 -17 150 -23 44 -6 123 -19 175
-30 52 -11 153 -24 223 -30 l128 -11 70 47 c39 26 99 74 133 108 l63 61 239
67 c198 55 266 69 394 83 85 9 189 23 230 30 115 21 209 33 400 50 96 9 330
36 520 60 190 24 361 41 380 38 19 -4 109 -7 200 -8z"/>
<path d="M14645 29472 c-71 -52 -172 -145 -225 -206 -182 -209 -250 -378 -250
-628 0 -240 66 -434 199 -582 56 -62 174 -132 271 -162 77 -24 289 -15 420 17
55 14 162 65 190 91 36 34 222 319 237 365 25 71 12 216 -36 425 -41 182 -52
210 -104 288 -61 90 -224 242 -288 270 -13 5 -53 28 -89 49 -111 68 -172 94
-230 98 -49 4 -59 2 -95 -25z m387 -263 l183 -152 62 -276 c34 -152 62 -292
62 -311 1 -28 -21 -68 -116 -211 l-117 -176 -216 -27 c-118 -14 -226 -26 -240
-26 -17 0 -71 36 -165 113 l-140 112 -31 340 c-29 315 -30 342 -15 361 9 11
90 106 181 212 l165 192 102 0 103 0 182 -151z"/>
<path d="M6769 24264 c-46 -64 -115 -160 -154 -214 -38 -54 -133 -184 -210
-290 -77 -106 -147 -202 -155 -214 -51 -74 -206 -288 -276 -383 -177 -238
-300 -444 -358 -598 -41 -108 -49 -292 -17 -388 40 -123 136 -240 281 -342
144 -101 281 -154 422 -162 149 -9 159 -5 356 127 175 117 178 120 254 222 57
78 109 170 214 378 75 151 141 295 146 320 24 132 28 162 34 236 4 49 2 110
-5 150 -7 38 -17 98 -23 134 -5 36 -19 108 -30 160 -10 52 -23 113 -27 135
-23 109 -176 524 -271 731 -32 70 -67 114 -91 114 -4 0 -44 -52 -90 -116z
m184 -422 l149 -327 33 -325 33 -325 -197 -390 -196 -390 -180 -122 -180 -122
-155 0 -154 -1 -152 91 -152 90 -56 84 -56 85 0 178 0 179 552 811 c303 447
554 812 557 812 3 0 73 -148 154 -328z"/>
<path d="M11019 30493 c-33 -5 -37 -10 -133 -151 l-76 -114 0 -102 0 -102
-217 27 c-120 16 -233 28 -251 29 -27 0 -45 -12 -111 -75 -110 -106 -113 -113
-109 -298 l3 -152 83 -123 c53 -79 92 -126 108 -133 65 -24 308 -79 326 -73
23 7 306 218 326 242 8 11 12 52 12 123 l0 107 249 4 c226 3 251 5 269 22 31
27 176 398 168 427 -3 13 -59 94 -123 179 -95 125 -124 156 -148 161 -33 7
-334 9 -376 2z m358 -179 c58 -26 99 -73 140 -161 73 -157 21 -283 -151 -369
-149 -73 -222 -59 -329 64 -15 18 -35 32 -45 32 -13 0 -17 9 -18 43 -1 23 -8
67 -14 99 -16 71 -3 115 66 222 49 75 49 75 94 76 25 1 68 7 95 14 57 16 89
12 162 -20z m-653 -398 c22 -13 50 -33 60 -45 11 -12 25 -21 33 -21 8 0 12 -4
8 -10 -3 -5 8 -33 24 -62 46 -84 56 -143 36 -213 -22 -75 -74 -132 -164 -179
-62 -32 -77 -36 -146 -36 -104 0 -148 26 -217 127 -54 79 -68 131 -65 245 l2
97 40 41 c31 32 46 40 75 40 19 0 67 11 105 25 84 31 146 28 209 -9z"/>
<path d="M20495 29820 l-261 -261 -212 -602 c-117 -331 -213 -610 -212 -619 0
-9 10 -29 23 -43 18 -21 67 -38 285 -100 278 -79 293 -81 325 -35 8 12 106
264 217 559 l201 537 109 82 109 81 447 -160 c246 -88 457 -165 468 -171 12
-6 233 -148 492 -314 392 -253 477 -304 507 -304 28 0 86 -32 295 -163 l260
-162 122 -153 122 -152 -26 -237 c-15 -131 -29 -255 -32 -276 -6 -35 -27 -57
-280 -278 -250 -220 -274 -243 -274 -272 0 -43 138 -386 167 -414 12 -13 32
-23 45 -23 13 0 104 16 203 35 99 19 182 35 184 35 2 0 103 98 224 218 l219
217 149 298 149 298 0 352 c-1 252 -4 359 -13 378 -7 15 -120 166 -252 337
l-240 310 -525 351 -525 351 -630 280 -630 280 -474 0 -475 0 -261 -260z m820
139 c39 -6 113 -17 165 -25 52 -9 120 -19 150 -23 30 -5 75 -18 100 -29 25
-11 79 -32 120 -47 148 -54 257 -99 390 -162 74 -35 158 -74 185 -86 28 -12
86 -41 130 -65 44 -24 136 -68 205 -99 69 -31 170 -87 225 -123 55 -37 150
-97 210 -133 123 -73 315 -201 527 -352 105 -75 183 -142 308 -266 275 -271
371 -437 414 -719 12 -79 4 -162 -27 -300 -49 -212 -205 -484 -413 -719 -122
-137 -316 -312 -406 -365 l-58 -34 -35 24 c-20 13 -40 24 -44 24 -14 0 -156
161 -159 180 -2 10 12 34 32 54 20 19 36 39 36 44 0 5 82 80 182 168 220 192
245 217 304 306 l47 70 23 206 c14 114 25 227 26 252 2 71 -66 191 -173 305
-26 28 -56 59 -66 70 -64 71 -313 275 -334 275 -4 0 -64 36 -133 80 -70 44
-128 80 -130 80 -3 0 -40 22 -83 48 -43 27 -112 67 -153 89 -41 22 -93 51
-115 63 -22 13 -60 35 -85 49 -25 13 -58 35 -75 47 -16 12 -50 33 -75 47 -94
51 -168 92 -260 145 -184 107 -575 312 -595 312 -6 0 -46 15 -90 34 -190 79
-318 109 -455 104 -126 -4 -171 -23 -265 -109 -61 -57 -154 -207 -171 -274 -4
-16 -20 -59 -36 -95 -36 -78 -70 -167 -138 -360 -44 -123 -69 -193 -142 -392
-23 -61 -30 -62 -183 -9 -159 54 -200 73 -209 97 -4 10 23 96 68 213 41 108
86 230 101 271 14 41 37 102 50 135 13 33 58 159 100 280 l76 220 221 222 221
221 61 5 c34 3 100 14 147 25 138 33 184 36 284 21z"/>
<path d="M7692 28214 c-32 -22 -255 -470 -248 -498 6 -23 219 -313 245 -333
11 -9 67 -12 183 -13 l166 0 120 79 c67 44 125 89 131 100 7 12 11 108 11 255
l0 236 -77 82 c-43 44 -92 87 -110 94 -50 21 -391 20 -421 -2z m357 -172 c101
-63 181 -192 181 -292 0 -81 -45 -168 -113 -219 -85 -63 -115 -75 -187 -75
-80 0 -115 17 -191 94 -133 136 -140 269 -23 400 29 32 55 68 59 79 5 16 15
21 43 22 20 0 55 4 77 8 52 10 123 3 154 -17z"/>
<path d="M21115 27739 c-18 -5 -66 -45 -118 -97 l-87 -89 0 -234 c0 -255 2
-265 57 -287 15 -6 133 -41 261 -78 213 -60 252 -67 301 -53 10 3 22 -28 45
-118 17 -67 39 -130 50 -142 22 -24 425 -161 475 -161 31 0 48 14 160 125
l126 124 3 183 c2 112 0 197 -7 219 -8 25 -38 62 -96 118 l-85 81 -235 0 -234
0 -133 197 c-78 117 -143 203 -158 210 -29 15 -277 16 -325 2z m290 -174 c71
-21 163 -81 205 -136 34 -42 35 -46 35 -129 0 -74 -4 -92 -28 -138 -61 -116
-151 -185 -242 -184 -108 1 -258 91 -308 186 -26 50 -27 133 -3 190 9 21 16
59 16 85 0 42 4 51 43 88 36 36 49 42 92 46 108 8 139 6 190 -8z m723 -402
c120 -56 176 -122 193 -223 5 -30 -14 -106 -39 -155 -73 -146 -175 -208 -294
-180 -76 19 -118 38 -176 85 -67 53 -88 95 -95 198 l-6 83 47 94 c43 89 49 95
77 95 16 0 44 9 61 19 64 39 126 34 232 -16z"/>
<path d="M26185 26884 c-176 -18 -327 -33 -335 -33 -8 -1 -128 -115 -268 -253
l-254 -253 -183 -366 -184 -366 35 -349 c19 -192 37 -360 40 -374 3 -14 83
-102 186 -207 l181 -182 189 -76 c131 -52 201 -75 231 -75 23 0 175 15 337 34
l295 34 336 202 337 202 118 -24 119 -24 0 -39 0 -40 -147 -60 c-80 -33 -154
-67 -164 -75 -18 -16 -343 -469 -363 -507 -9 -17 -3 -148 25 -590 l35 -567
147 -258 147 -257 357 -285 c344 -275 360 -286 435 -309 43 -14 317 -100 608
-192 292 -92 534 -171 539 -175 4 -5 3 -24 -4 -44 -13 -40 30 -24 -415 -156
-250 -75 -279 -87 -296 -123 -12 -27 53 -442 76 -488 9 -16 27 -32 42 -35 21
-6 530 27 814 53 l66 6 77 -101 c42 -56 80 -111 86 -124 12 -29 265 -1747 258
-1753 -3 -3 -327 -93 -721 -200 -394 -106 -725 -199 -737 -205 -11 -6 -25 -22
-30 -36 -6 -14 -10 -168 -10 -348 l0 -322 49 -79 c28 -44 173 -271 323 -505
l273 -425 220 -112 220 -112 213 -1 212 0 0 -365 c0 -321 -2 -369 -17 -400
-13 -27 -23 -35 -42 -35 -108 1 -1521 -65 -1539 -71 -13 -5 -29 -24 -36 -41
-7 -18 -44 -188 -81 -378 l-69 -345 139 -795 c76 -437 141 -804 145 -815 4
-11 88 -117 187 -235 l179 -215 253 -144 253 -144 1066 -344 c587 -188 1079
-343 1094 -343 79 0 88 26 88 252 l0 183 -19 -41 c-10 -23 -22 -57 -26 -75
-24 -116 -74 -219 -105 -219 -17 0 -101 27 -155 50 -11 5 -61 22 -112 39 -50
17 -145 50 -210 75 -65 24 -152 56 -193 71 -41 14 -82 30 -91 35 -9 5 -34 12
-55 16 -34 6 -158 48 -219 74 -38 16 -290 108 -370 135 -90 30 -210 72 -240
85 -11 5 -47 18 -80 30 -33 12 -73 28 -90 35 -16 8 -77 33 -135 56 -164 66
-453 223 -508 276 -7 7 -33 29 -58 50 -26 20 -77 76 -115 123 -38 47 -74 91
-79 97 -6 7 -20 30 -32 50 -12 21 -32 51 -45 66 -12 15 -25 44 -28 65 -4 20
-18 75 -32 122 -35 119 -48 171 -67 280 -9 52 -21 111 -26 130 -4 19 -16 100
-25 180 -9 80 -20 174 -25 210 -5 36 -14 106 -20 155 -6 50 -23 158 -37 240
-39 230 -36 442 6 540 31 73 53 134 71 203 12 46 33 76 65 95 28 16 299 26
940 35 408 5 556 10 572 19 30 18 41 58 58 228 9 83 20 181 26 219 6 38 9 172
7 298 l-3 228 -27 26 -27 27 -83 -12 c-69 -10 -97 -10 -168 3 -125 22 -192 36
-215 45 -85 34 -223 109 -285 155 -41 31 -78 56 -82 56 -4 0 -32 33 -61 73
-30 39 -74 93 -98 118 -24 25 -58 66 -74 90 -17 24 -33 46 -36 49 -16 14 -196
324 -263 453 -85 165 -109 245 -95 324 5 26 10 117 11 202 l4 154 89 24 c99
26 496 134 1025 280 388 106 396 110 392 185 -2 24 -20 160 -42 303 -21 143
-51 341 -65 440 -14 99 -35 232 -46 295 -11 63 -24 142 -29 175 -23 160 -31
207 -50 295 -12 52 -28 127 -36 165 -9 39 -25 95 -36 125 -11 30 -22 64 -25
75 -11 37 -84 144 -119 174 -92 81 -266 122 -383 91 -71 -19 -177 -42 -226
-50 -27 -5 -99 -20 -158 -35 -60 -14 -117 -23 -128 -20 -24 8 -43 51 -63 145
-9 41 -21 89 -25 105 -19 63 -22 102 -8 113 7 6 132 45 277 87 265 76 346 106
387 141 18 16 93 219 93 253 0 5 -8 11 -17 14 -341 104 -525 157 -546 157 -59
0 -561 191 -714 271 -172 91 -385 230 -465 305 -105 98 -288 295 -307 329 -12
22 -36 63 -53 90 -17 28 -49 84 -71 125 -22 41 -51 95 -65 119 -14 25 -31 74
-38 110 -7 36 -25 108 -38 158 -14 51 -30 130 -36 175 -6 46 -15 111 -20 144
-16 99 -11 162 26 355 8 42 14 96 13 121 -2 43 3 53 152 261 l154 217 75 29
c176 70 266 111 282 131 14 17 18 40 18 96 l0 74 -62 84 c-35 46 -73 89 -86
95 -68 33 -160 1 -547 -190 -321 -159 -411 -200 -460 -209 -22 -5 -65 -16 -95
-25 -202 -61 -408 -61 -570 0 -25 9 -56 19 -70 22 -38 9 -110 55 -193 122
-197 159 -295 326 -328 556 -9 64 -8 99 3 180 8 55 13 121 11 146 -4 43 6 67
160 375 l165 329 224 221 223 221 120 12 c66 6 163 20 215 31 226 50 230 51
260 35 36 -19 56 -44 143 -185 39 -63 73 -117 77 -120 3 -3 37 -50 75 -104 37
-55 105 -141 149 -191 45 -50 106 -120 138 -156 31 -35 111 -118 178 -184 67
-66 130 -133 140 -150 47 -76 756 -789 898 -903 102 -81 129 -97 229 -132 28
-10 73 -35 100 -55 26 -20 86 -63 132 -97 164 -118 233 -200 321 -380 28 -56
55 -110 59 -118 8 -15 85 -257 101 -320 15 -56 59 -212 70 -245 5 -16 14 -59
21 -95 20 -109 114 -484 214 -855 15 -55 38 -145 50 -200 13 -55 35 -143 49
-195 37 -136 53 -206 82 -369 26 -153 26 -164 -7 -336 -26 -128 -88 -257 -169
-348 -45 -51 -60 -75 -60 -98 0 -44 45 -84 116 -104 90 -25 145 -46 186 -72
21 -12 42 -23 46 -23 23 0 182 -197 182 -224 0 -3 11 -29 24 -58 31 -67 70
-186 86 -263 7 -33 18 -87 25 -120 28 -127 34 -162 40 -240 8 -92 35 -237 70
-375 10 -36 23 -103 31 -149 7 -47 16 -92 19 -100 4 -9 22 -88 42 -176 19 -88
42 -187 50 -220 27 -114 33 -140 49 -225 8 -47 20 -107 25 -135 6 -27 19 -151
30 -275 21 -236 21 -441 0 -630 -6 -52 -15 -142 -21 -200 -23 -217 -72 -390
-154 -540 l-41 -75 1 -160 c1 -88 7 -189 13 -225 7 -36 19 -105 27 -155 11
-64 18 -185 21 -413 5 -307 1 -404 -27 -617 -5 -38 -16 -144 -25 -235 -8 -91
-19 -185 -24 -210 -6 -25 -17 -85 -26 -135 -9 -49 -21 -110 -26 -135 -10 -40
-96 -282 -120 -335 -4 -11 -18 -45 -29 -75 -27 -70 -116 -240 -161 -305 -155
-228 -316 -344 -529 -380 -157 -27 -356 29 -495 140 -54 43 -71 48 -110 29
-67 -32 -70 -107 -8 -229 68 -135 149 -221 268 -285 33 -18 78 -43 100 -55 52
-30 267 -125 375 -165 81 -30 141 -53 185 -70 53 -22 161 -60 168 -60 7 0 94
-31 322 -116 199 -74 314 -114 673 -235 144 -49 269 -94 276 -102 7 -7 33 -19
57 -27 24 -7 59 -24 77 -37 l32 -24 0 95 c0 84 -2 98 -22 120 -18 19 -232 94
-1053 367 l-1029 342 -153 121 c-106 85 -152 127 -152 142 -1 11 1 23 4 26 3
3 108 -20 233 -51 125 -31 236 -55 247 -53 11 2 150 85 309 186 l290 182 181
399 182 400 67 475 c37 261 67 507 67 545 0 39 -15 367 -32 730 l-33 660 102
305 102 305 0 533 0 532 -171 613 -170 612 -35 370 c-18 204 -34 377 -34 386
0 20 -205 366 -234 396 -11 12 -79 45 -151 73 -71 28 -134 55 -138 59 -5 5 34
165 87 356 l95 347 -370 1312 c-203 721 -376 1334 -384 1363 -15 51 -22 58
-228 231 -117 98 -222 184 -233 190 -11 6 -76 25 -145 42 l-124 31 -678 677
-678 677 -203 340 c-112 187 -212 348 -223 358 -25 22 -40 22 -428 -19z"/>
<path d="M15171 26833 c-16 -13 -30 -51 -51 -131 -30 -121 -38 -138 -46 -107
-3 11 -18 54 -32 95 -24 68 -30 76 -62 87 -43 15 -409 17 -460 3 -41 -11 -183
-149 -199 -193 -17 -44 -14 -360 3 -400 7 -18 65 -82 127 -144 146 -142 141
-141 370 -83 181 46 187 50 247 142 20 32 40 58 45 58 4 0 39 -21 79 -47 l71
-48 238 0 239 0 92 93 93 92 3 191 c2 129 -1 201 -8 220 -8 18 -51 54 -134
108 l-122 81 -236 0 c-210 0 -238 -2 -257 -17z m519 -143 c56 -32 97 -90 115
-165 41 -173 -5 -285 -139 -338 -88 -36 -153 -45 -219 -32 -56 11 -134 54
-143 80 -3 7 -48 41 -99 75 -70 46 -100 61 -122 58 -21 -2 -27 -8 -25 -22 6
-35 -21 -133 -47 -172 -64 -94 -197 -145 -316 -123 -101 20 -145 54 -187 144
-20 45 -23 64 -22 188 l1 138 44 45 45 45 161 2 161 2 38 -30 c25 -20 51 -56
74 -102 l35 -72 71 0 c91 -1 105 9 120 90 6 35 22 90 35 121 21 50 28 58 51
58 15 0 39 5 55 11 52 22 98 28 183 25 69 -1 94 -7 130 -26z"/>
<path d="M26103 26271 c-338 -357 -483 -619 -483 -873 0 -177 53 -282 195
-387 95 -70 138 -85 259 -89 193 -7 256 13 616 191 l85 43 32 89 c18 50 33 95
33 100 0 6 -24 46 -54 90 -76 113 -317 501 -345 556 -35 67 -234 363 -246 365
-5 1 -47 -38 -92 -85z m292 -491 l277 -401 -23 -65 -24 -66 -208 -89 -209 -89
-120 0 -121 0 -108 81 -109 81 0 236 0 235 178 238 c97 131 180 238 184 239 3
0 131 -180 283 -400z"/>
<path d="M24145 24653 c-82 -21 -498 -144 -514 -152 -11 -6 -70 -95 -132 -197
-88 -148 -112 -194 -111 -223 0 -47 62 -480 73 -508 9 -24 272 -227 320 -247
25 -11 70 -7 287 20 141 18 276 36 300 39 42 6 46 10 163 166 l119 160 0 94
c0 69 3 95 13 95 6 0 99 -25 206 -55 189 -54 196 -55 320 -54 178 0 186 4 243
114 l47 90 1 122 c0 73 -5 132 -12 148 -8 18 -38 38 -105 70 -78 37 -187 70
-625 185 -514 135 -550 143 -593 133z m177 -174 c136 -27 195 -41 213 -48 11
-5 63 -22 115 -39 52 -17 149 -49 215 -73 120 -42 157 -53 294 -89 93 -25 199
-83 206 -113 6 -24 -45 -195 -70 -233 -21 -32 -51 -31 -155 7 -47 17 -143 50
-215 74 -71 24 -168 58 -215 75 -116 43 -138 49 -144 42 -3 -3 -6 -53 -6 -110
0 -58 -5 -135 -11 -171 -12 -69 -58 -165 -104 -213 -35 -38 -135 -105 -203
-136 -52 -24 -68 -26 -192 -27 -131 0 -137 1 -200 31 -126 61 -240 173 -268
264 -22 73 -34 195 -23 235 6 22 8 56 5 77 -6 34 2 50 81 182 76 128 90 146
118 151 18 4 68 24 112 45 76 36 107 47 200 69 56 13 183 13 247 0z"/>
<path d="M24050 24175 c-62 -19 -123 -75 -156 -141 -23 -48 -26 -63 -22 -124
4 -56 11 -77 34 -107 52 -69 60 -72 163 -73 l93 0 39 39 39 39 0 162 0 162
-29 29 c-34 33 -83 38 -161 14z m20 -190 c0 -69 -3 -85 -15 -85 -12 0 -15 16
-15 85 0 69 3 85 15 85 12 0 15 -16 15 -85z"/>
<path d="M27910 24284 c-25 -8 -54 -19 -65 -23 -11 -5 -60 -24 -109 -42 -134
-50 -281 -155 -320 -228 -7 -14 -25 -47 -39 -73 -47 -86 -57 -139 -57 -307 0
-86 5 -174 10 -196 6 -22 14 -58 19 -80 5 -22 21 -85 36 -140 14 -55 30 -118
35 -140 17 -82 110 -283 171 -372 17 -24 87 -100 157 -169 101 -101 150 -140
253 -205 70 -44 183 -104 251 -134 67 -31 137 -62 153 -69 97 -45 249 -101
375 -141 47 -14 134 -42 195 -62 114 -36 152 -38 187 -6 10 9 18 24 18 33 0
19 -95 394 -148 585 -35 126 -59 219 -77 295 -30 132 -103 386 -216 750 -99
318 -116 364 -162 438 -49 78 -121 163 -176 206 -32 24 -105 60 -164 80 -63
21 -263 21 -327 0z m391 -165 c105 -78 108 -82 128 -142 75 -231 591 -1907
591 -1921 0 -9 -7 -16 -15 -16 -8 0 -241 90 -517 201 l-503 200 -161 161 -161
160 -132 332 -131 333 0 209 0 209 147 147 c133 133 151 148 183 149 19 0 118
13 220 29 102 15 198 28 214 29 21 1 56 -20 137 -80z"/>
<path d="M7543 20508 c-145 -145 -163 -166 -163 -195 0 -26 94 -377 117 -439
2 -6 -31 -37 -74 -69 -43 -32 -102 -78 -130 -102 l-53 -45 0 -208 0 -208 33
-28 c18 -16 77 -58 132 -94 l99 -65 196 0 c166 0 200 3 221 17 22 14 35 49 94
255 94 331 90 289 40 392 -43 88 -43 89 -21 95 12 3 61 45 109 94 l87 89 0
241 c0 214 -2 242 -17 260 -10 12 -103 55 -208 96 -155 62 -200 76 -244 76
l-55 0 -163 -162z m342 -30 c87 -14 142 -37 189 -78 57 -50 70 -83 71 -175 0
-120 -33 -212 -97 -270 -41 -37 -57 -45 -105 -51 -30 -3 -84 -4 -119 -1 -62 6
-166 35 -172 49 -2 3 -14 19 -28 35 -51 56 -65 104 -62 208 1 53 6 99 10 101
5 3 19 27 33 54 26 51 98 120 126 120 9 0 22 7 30 16 7 9 21 13 33 10 12 -3
53 -11 91 -18z m-172 -752 c35 -3 87 -15 117 -26 96 -35 132 -73 156 -163 13
-51 13 -66 -1 -139 -19 -103 -46 -159 -96 -201 -74 -64 -210 -67 -345 -8 -59
27 -90 54 -115 103 -16 31 -19 59 -19 158 l0 121 47 55 c46 54 101 94 127 94
8 0 24 9 37 19 18 14 25 16 27 7 2 -8 27 -16 65 -20z"/>
<path d="M2885 20038 c-28 -16 -30 -20 -75 -153 l-40 -120 0 -562 0 -562 180
-360 c162 -325 183 -363 217 -384 21 -14 263 -144 539 -291 l500 -267 426 -35
425 -35 393 35 393 36 294 220 293 220 75 150 75 150 0 307 -1 308 -72 180
-73 180 -379 278 c-209 153 -394 285 -412 293 -26 11 -115 14 -484 14 -390 0
-455 -2 -482 -16 -18 -9 -137 -136 -276 -295 -188 -217 -245 -288 -251 -317
-5 -20 -23 -205 -41 -410 l-33 -372 42 -86 c38 -76 40 -85 23 -82 -11 2 -146
115 -301 252 l-280 249 0 682 0 682 -26 27 -27 26 -209 0 -208 0 -70 35 c-73
37 -102 42 -135 23z m212 -182 c37 -8 100 -17 138 -21 73 -7 178 -23 207 -31
24 -7 31 -73 18 -179 -6 -49 -15 -128 -20 -175 -5 -47 -16 -137 -25 -200 -23
-178 -18 -329 16 -500 51 -255 113 -394 221 -497 105 -101 265 -240 308 -269
91 -61 167 -87 273 -92 91 -4 100 -3 122 18 42 39 38 63 -33 209 l-66 136 -3
135 c-3 140 8 259 33 370 9 36 18 97 21 135 5 55 11 77 32 102 14 17 45 64 68
105 52 91 133 182 221 248 37 27 79 65 94 83 26 34 27 34 130 40 57 3 117 10
133 17 54 21 231 24 315 5 41 -9 120 -19 175 -22 81 -5 107 -11 135 -29 19
-13 62 -33 95 -45 131 -49 302 -152 416 -252 129 -113 268 -323 313 -472 10
-33 21 -71 26 -85 5 -14 15 -67 21 -118 18 -133 -7 -299 -70 -462 -54 -137
-91 -191 -222 -320 -102 -100 -290 -204 -441 -245 -32 -8 -82 -21 -110 -29
-29 -8 -87 -19 -128 -26 -41 -6 -109 -16 -150 -23 -97 -16 -342 -15 -445 1
-44 7 -127 17 -185 23 -58 5 -139 17 -180 26 -41 8 -95 19 -120 24 -288 56
-595 175 -813 315 -37 24 -70 44 -73 44 -13 0 -126 94 -199 167 -86 84 -205
252 -271 383 -61 120 -125 314 -134 405 -4 44 -13 127 -20 185 -13 110 -8 338
10 460 5 36 10 125 10 199 0 157 17 228 59 254 32 20 17 20 98 3z"/>
<path d="M5105 19069 c-133 -30 -247 -148 -295 -304 -7 -22 -16 -49 -20 -60
-8 -21 -33 -187 -50 -326 -34 -286 14 -534 115 -584 36 -18 60 -20 255 -19
127 1 238 6 272 13 45 10 105 42 275 148 120 74 225 142 234 149 9 8 29 40 45
72 29 57 29 58 32 271 3 185 1 220 -14 260 -38 100 -164 225 -298 296 -53 28
-184 69 -270 84 -71 13 -225 13 -281 0z m229 -114 l230 -34 113 -113 113 -113
0 -235 0 -236 -242 -152 -243 -152 -200 0 -200 0 -52 104 -52 105 31 313 30
313 117 118 c63 64 118 117 121 117 3 0 108 -16 234 -35z"/>
<path d="M29950 18080 c-82 -28 -207 -65 -320 -97 -30 -8 -66 -19 -80 -23 -14
-4 -52 -15 -85 -24 -33 -9 -157 -42 -275 -75 -118 -32 -244 -63 -280 -70 -87
-17 -120 -35 -120 -66 0 -14 49 -121 108 -238 276 -540 426 -697 668 -697 71
0 119 12 200 50 72 33 162 179 188 304 40 193 72 425 86 621 6 83 15 188 19
235 6 56 6 89 -1 98 -12 14 -3 16 -108 -18z m-40 -150 c0 -12 -30 -199 -66
-418 l-66 -397 -50 -77 -51 -78 -101 0 -101 0 -152 121 -151 121 -109 246
c-59 135 -108 250 -108 256 0 6 182 63 405 127 340 98 417 117 478 118 66 1
72 -1 72 -19z"/>
<path d="M6533 15786 c-194 -39 -357 -76 -363 -82 -6 -6 -145 -220 -309 -475
-266 -414 -301 -464 -326 -467 -25 -3 -62 30 -329 296 -166 165 -311 305 -323
311 -12 6 -34 11 -50 11 -19 0 -90 41 -230 135 l-203 135 -302 0 -303 0 -242
-69 c-133 -38 -248 -73 -255 -77 -7 -4 -94 -72 -194 -151 l-181 -144 -146
-368 -147 -367 0 -309 0 -309 106 -391 c59 -214 111 -399 116 -409 13 -25 703
-852 718 -861 15 -9 470 -74 521 -75 66 0 73 12 155 299 68 238 74 267 63 294
-15 37 -61 57 -128 57 l-50 0 -255 288 -256 287 -100 300 -100 300 0 248 0
247 94 188 94 187 216 92 216 92 181 -31 181 -30 232 -166 c158 -113 244 -181
272 -216 22 -28 73 -92 113 -143 l72 -91 -163 -324 -163 -323 -3 -496 -3 -497
141 -387 c77 -213 147 -399 154 -414 8 -14 258 -422 556 -906 l541 -880 256
-257 256 -256 283 -71 c156 -39 296 -71 311 -71 15 0 214 62 441 138 l413 137
442 338 c243 186 456 352 472 370 17 18 108 172 203 343 l172 311 0 300 0 299
-146 258 c-118 206 -153 260 -178 273 -17 9 -166 76 -331 150 -203 90 -311
133 -335 133 -19 0 -168 -15 -330 -34 l-295 -33 -295 -149 -295 -149 -150
-224 -150 -223 0 -302 0 -301 178 -320 c98 -176 188 -327 198 -336 11 -8 101
-42 200 -74 107 -36 179 -64 179 -72 0 -7 -45 -35 -100 -63 l-100 -50 -176 29
c-97 17 -177 31 -178 33 -2 2 -304 440 -672 973 l-669 970 -132 395 -133 394
0 240 0 241 43 107 c28 72 46 106 55 103 7 -2 162 -100 345 -217 l332 -213
291 -3 290 -3 180 71 c98 39 189 78 202 86 12 8 89 114 170 236 l147 221 3
391 2 391 -73 258 -74 257 -213 356 c-118 195 -223 362 -234 370 -11 8 -32 14
-46 13 -14 0 -183 -33 -377 -73z m328 -99 c47 -31 184 -218 267 -362 88 -155
214 -459 258 -625 128 -480 92 -831 -113 -1100 -67 -88 -95 -113 -178 -161
-119 -70 -250 -106 -422 -118 -159 -11 -289 2 -378 39 -49 20 -174 86 -215
113 -55 37 -198 157 -260 218 -25 24 -88 70 -140 103 l-93 58 -18 -23 c-50
-65 -109 -214 -150 -382 -15 -62 -19 -114 -19 -257 0 -186 6 -229 59 -405 12
-38 26 -88 32 -110 19 -71 161 -488 205 -600 19 -51 159 -292 217 -376 36 -52
99 -156 141 -231 42 -76 98 -169 125 -207 27 -38 60 -86 74 -107 13 -22 42
-57 64 -80 22 -23 133 -180 246 -350 113 -170 238 -349 278 -399 172 -214 344
-315 534 -315 73 0 179 21 230 44 17 8 64 30 106 49 98 44 109 61 109 159 l0
77 -47 7 c-90 13 -183 58 -304 146 -66 48 -102 84 -154 154 -37 50 -73 102
-80 115 -34 66 -98 205 -135 294 -41 98 -42 102 -44 225 0 69 3 177 8 240 l8
115 117 178 116 178 268 135 c173 87 280 134 300 134 18 0 91 9 162 20 72 12
184 25 250 30 107 8 125 7 170 -9 28 -10 93 -31 145 -46 52 -14 122 -40 154
-56 68 -35 199 -118 238 -151 41 -36 123 -138 150 -188 14 -25 38 -70 55 -100
62 -113 103 -277 103 -410 -1 -146 -51 -333 -131 -479 -16 -30 -29 -60 -29
-66 0 -20 -98 -159 -194 -275 -53 -63 -140 -152 -193 -199 -115 -98 -272 -221
-293 -229 -8 -3 -84 -52 -168 -109 -379 -256 -654 -378 -965 -428 -76 -12
-100 -12 -165 0 -270 48 -445 150 -642 373 -62 70 -137 156 -168 191 -64 72
-57 61 -260 388 -83 133 -205 313 -270 400 -134 177 -189 264 -320 503 -49 91
-111 203 -136 250 -26 47 -58 109 -71 137 -14 29 -40 77 -60 105 -19 29 -48
91 -64 138 -16 47 -55 153 -86 235 -121 319 -136 368 -151 525 -8 80 -18 164
-24 186 -17 74 -22 178 -11 249 34 224 41 276 41 328 0 54 9 76 166 389 135
270 165 337 158 355 -18 46 -311 345 -469 479 -97 82 -140 110 -259 168 -162
79 -230 96 -375 96 -180 -1 -313 -36 -477 -125 -108 -59 -188 -145 -244 -261
-77 -159 -90 -231 -90 -519 0 -316 21 -455 107 -700 78 -223 178 -378 355
-552 158 -155 169 -165 315 -262 67 -44 127 -89 132 -99 8 -15 0 -31 -40 -83
-27 -35 -79 -106 -116 -158 -37 -51 -82 -105 -101 -119 l-34 -26 -57 29 c-147
75 -476 325 -528 401 -10 15 -36 47 -59 73 -65 74 -157 207 -224 326 -34 61
-68 117 -77 127 -18 20 -77 212 -156 513 l-60 230 -1 300 c0 224 3 308 13 330
7 17 34 91 60 165 27 74 64 167 83 205 19 39 50 109 68 158 l33 87 141 113
c77 62 152 120 166 129 14 9 122 43 240 77 196 55 225 61 315 62 55 0 124 4
153 8 60 8 231 -4 277 -21 229 -80 308 -118 450 -213 61 -41 119 -82 130 -92
12 -10 50 -43 85 -73 123 -103 208 -186 393 -377 105 -110 121 -123 152 -123
39 0 45 7 176 185 44 61 93 124 109 140 30 32 142 200 316 472 101 159 112
172 144 178 19 4 45 13 57 20 12 8 52 21 90 30 37 9 84 20 103 25 19 5 82 21
140 35 57 14 106 28 109 30 8 9 18 5 52 -18z"/>
<path d="M6479 15098 c-57 -77 -120 -160 -139 -182 -45 -52 -90 -113 -90 -121
0 -6 -221 -311 -344 -475 -17 -24 -30 -55 -33 -82 l-4 -43 113 -117 c234 -242
386 -346 539 -368 167 -24 313 41 383 170 68 125 73 428 12 664 -41 157 -138
411 -198 521 -22 39 -51 94 -65 123 -42 82 -53 76 -174 -90z m211 -408 l133
-365 -31 -184 -31 -185 -43 -43 -42 -43 -109 0 -108 0 -208 179 -209 180 29
137 c22 110 34 144 57 173 15 20 115 148 221 284 107 137 197 245 201 240 4
-4 67 -172 140 -373z"/>
<path d="M8030 11874 c-234 -69 -421 -213 -474 -365 -23 -64 -20 -173 5 -250
21 -64 74 -179 87 -189 4 -3 36 -50 72 -105 129 -198 244 -335 335 -401 61
-43 159 -94 182 -94 22 0 354 282 399 339 114 145 190 350 181 486 -10 150
-88 313 -207 436 -79 81 -126 111 -226 144 -106 34 -234 34 -354 -1z m440
-220 c80 -64 146 -117 147 -118 2 -2 16 -67 32 -145 l29 -143 -61 -150 -60
-150 -179 -149 -178 -150 -70 23 -70 22 -158 191 -158 190 -58 204 c-32 112
-54 207 -49 212 4 4 80 69 168 143 l160 135 180 0 180 1 145 -116z"/>
<path d="M28608 14902 c-25 -5 -30 -34 -19 -99 9 -54 22 -173 36 -338 8 -84
66 -345 86 -385 4 -8 17 -36 28 -62 11 -25 44 -71 73 -101 52 -53 57 -56 210
-106 86 -28 168 -51 181 -51 53 0 124 32 173 79 161 152 235 300 334 671 22
85 55 204 71 263 17 60 28 115 25 124 -6 14 -70 15 -594 12 -323 -2 -595 -5
-604 -7z m987 -159 c-7 -27 -46 -167 -85 -312 l-72 -264 -85 -114 -85 -113
-47 0 c-30 0 -108 21 -221 58 l-174 58 -58 174 -58 175 0 192 0 193 449 0 450
0 -14 -47z"/>
<path d="M9483 13139 c-81 -61 -156 -120 -165 -131 -16 -18 -18 -44 -18 -226
l0 -205 94 -93 93 -94 137 0 c118 0 136 -2 136 -16 0 -9 -12 -84 -26 -167 -19
-114 -23 -157 -15 -174 17 -37 218 -300 243 -317 17 -12 49 -16 135 -16 61 0
123 4 137 10 35 13 301 214 320 242 13 19 16 56 16 221 l0 199 -93 94 -92 94
-144 0 -143 0 6 28 c3 15 17 107 31 205 25 167 26 180 10 203 -9 14 -70 61
-136 105 -90 59 -129 79 -154 79 -18 0 -66 16 -106 35 -41 19 -83 35 -95 35
-13 0 -87 -49 -171 -111z m333 -85 c43 -5 125 -52 156 -89 10 -11 34 -51 55
-90 32 -59 37 -79 37 -130 -1 -83 -48 -159 -136 -215 -171 -111 -280 -95 -404
60 -64 79 -78 144 -59 280 6 44 11 49 100 115 89 66 96 70 152 72 32 1 77 0
99 -3z m490 -659 c89 -52 166 -169 181 -276 17 -121 -165 -289 -317 -292 -47
-1 -65 3 -106 29 -51 31 -105 95 -151 179 -30 55 -38 149 -15 178 7 8 20 55
28 103 9 49 17 90 19 92 2 2 12 -1 23 -7 31 -16 91 -13 152 10 67 24 126 19
186 -16z"/>
<path d="M24729 12515 c-189 -96 -228 -119 -237 -142 -12 -31 -74 -459 -74
-511 0 -46 215 -407 252 -422 14 -5 112 -23 218 -38 106 -16 195 -32 199 -35
3 -4 -8 -159 -25 -344 -35 -386 -34 -393 35 -412 41 -12 314 -15 376 -4 24 4
44 14 54 29 8 13 62 195 119 404 l104 381 0 373 0 374 -145 181 c-80 99 -155
187 -168 196 -32 20 -357 85 -426 85 -51 -1 -76 -11 -282 -115z m546 -90 c39
-15 82 -37 97 -49 15 -12 50 -39 78 -60 27 -22 50 -44 50 -49 0 -5 14 -26 32
-46 40 -45 101 -176 121 -261 30 -124 31 -184 3 -345 -28 -161 -31 -175 -70
-335 -15 -58 -31 -125 -36 -150 -6 -25 -17 -74 -25 -110 -9 -36 -20 -96 -25
-135 -16 -111 -26 -152 -45 -181 -16 -25 -20 -26 -74 -20 -80 10 -185 43 -205
65 -22 24 -19 48 30 241 32 125 64 347 64 449 0 37 -2 42 -17 36 -10 -3 -48
-13 -85 -20 -56 -12 -76 -12 -135 -1 -123 25 -192 59 -280 140 -147 134 -213
353 -153 506 20 49 33 98 46 166 2 13 17 27 35 35 18 7 53 31 78 53 51 44 128
82 193 96 24 5 90 8 148 6 86 -3 117 -8 175 -31z"/>
<path d="M25005 12125 c-16 -8 -49 -36 -72 -62 -41 -45 -43 -50 -43 -112 0
-73 21 -116 73 -153 29 -21 43 -23 147 -23 98 0 123 3 173 24 l57 23 0 95 c0
91 -1 97 -30 133 -46 58 -118 90 -204 90 -43 0 -83 -6 -101 -15z m110 -104
c44 -16 50 -21 53 -49 l3 -32 -76 0 c-63 0 -76 3 -72 14 3 8 9 31 13 50 7 41
10 41 79 17z"/>
<path d="M26533 11426 c-72 -18 -141 -39 -152 -47 -11 -8 -117 -158 -236 -334
l-215 -320 0 -239 0 -239 239 -443 240 -444 31 -247 31 -247 -383 -383 -383
-383 -55 0 -56 0 -27 113 -28 113 -227 227 -227 226 -387 71 c-213 38 -396 70
-407 70 -10 0 -212 -81 -447 -179 l-428 -180 -218 -218 -219 -218 -96 -297
-97 -298 -34 -11 c-18 -6 -35 -9 -37 -7 -2 2 -16 76 -31 163 l-27 160 -443
853 -444 853 0 100 c0 104 -13 150 -45 163 -28 10 -73 7 -318 -28 -208 -30
-242 -37 -263 -57 -24 -22 -24 -23 -24 -226 l0 -203 686 -1372 686 -1372 29
-174 c17 -96 28 -178 27 -182 -2 -4 -99 -89 -216 -190 l-212 -182 -565 -188
c-544 -181 -565 -188 -570 -167 -3 12 -30 134 -61 271 l-55 250 -250 358
c-138 197 -258 362 -267 367 -10 5 -178 41 -374 80 l-358 72 -257 -72 -258
-71 -157 -156 -157 -156 -107 -285 c-90 -239 -107 -294 -106 -336 5 -139 63
-855 72 -885 8 -29 61 -80 295 -285 157 -137 294 -253 304 -257 10 -3 278 8
594 25 317 17 579 28 584 24 4 -4 -35 -94 -87 -199 l-95 -191 -149 -120 c-82
-66 -161 -126 -175 -132 -14 -7 -251 -57 -526 -111 -453 -88 -501 -100 -522
-122 -23 -25 -23 -29 -23 -261 l0 -235 82 -124 c50 -76 91 -128 106 -133 16
-6 116 2 315 27 l292 37 385 175 c212 96 391 180 399 186 8 6 125 154 261 329
l248 317 97 393 c54 215 103 397 109 403 6 6 443 174 971 374 l960 363 1187
593 1188 594 405 540 405 540 68 0 67 0 289 292 289 292 113 229 114 228 0
187 0 187 641 405 c398 251 645 413 652 427 7 17 0 119 -27 389 -30 298 -40
370 -54 388 -10 11 -98 100 -197 197 l-180 176 -380 206 -381 207 -304 -1
-305 -1 -132 -32z m602 -122 c50 -9 113 -27 142 -40 28 -13 56 -24 62 -24 5 0
72 -32 148 -72 76 -39 163 -84 193 -99 31 -15 78 -45 105 -66 28 -22 73 -52
100 -68 28 -16 93 -70 145 -120 52 -49 123 -114 157 -143 73 -64 109 -113 129
-179 26 -82 74 -277 74 -298 0 -12 7 -47 15 -79 25 -94 23 -141 -5 -171 -13
-14 -80 -62 -149 -107 -69 -46 -329 -219 -578 -385 -250 -167 -468 -309 -486
-317 -18 -7 -45 -28 -62 -45 l-30 -32 -1 -147 c-1 -116 -5 -163 -22 -223 -43
-160 -153 -332 -319 -503 -54 -56 -117 -121 -139 -146 -55 -60 -190 -182 -289
-263 -44 -35 -96 -84 -115 -108 -19 -24 -98 -109 -175 -189 -158 -163 -215
-228 -366 -415 -108 -135 -169 -218 -169 -232 0 -4 -25 -36 -56 -71 -102 -114
-357 -291 -564 -390 -169 -81 -261 -122 -271 -122 -6 0 -36 -13 -67 -30 -63
-32 -333 -160 -338 -160 -4 0 -63 -28 -348 -164 -87 -42 -161 -76 -163 -76 -3
0 -73 -33 -156 -74 -84 -40 -199 -96 -257 -124 -97 -46 -139 -66 -335 -155
-38 -17 -135 -64 -215 -103 -80 -39 -154 -74 -165 -77 -86 -24 -258 -90 -363
-138 -35 -16 -70 -29 -77 -29 -8 0 -16 -4 -19 -9 -3 -5 -20 -11 -38 -15 -71
-13 -219 -66 -328 -118 -63 -30 -131 -60 -150 -67 -19 -7 -44 -17 -55 -21 -11
-5 -72 -28 -135 -51 -166 -61 -343 -160 -398 -223 -25 -29 -31 -46 -41 -132
-12 -91 -25 -164 -53 -284 -49 -212 -182 -501 -302 -654 -94 -120 -219 -227
-377 -323 -113 -68 -304 -158 -399 -188 -47 -14 -94 -30 -105 -35 -46 -19
-239 -60 -400 -85 -49 -8 -121 -20 -158 -27 -67 -12 -69 -12 -86 11 -10 13
-24 56 -31 95 -7 39 -17 76 -21 82 -9 11 -17 319 -9 327 3 3 194 42 425 87
397 77 425 84 514 126 239 113 428 297 530 515 79 169 127 397 86 413 -15 5
-178 -10 -204 -19 -8 -3 -44 -10 -80 -16 -109 -16 -263 -41 -311 -49 -155 -27
-224 -32 -364 -27 -126 4 -166 9 -241 31 -223 67 -374 185 -487 380 -23 39
-48 82 -57 96 -9 14 -23 61 -33 105 -10 44 -23 103 -29 130 -7 29 -13 172 -15
342 l-4 292 95 253 94 252 124 124 123 123 205 59 c275 78 374 87 546 51 49
-11 116 -31 149 -44 32 -14 86 -37 119 -51 32 -13 64 -31 70 -38 5 -7 36 -35
67 -62 32 -26 90 -87 130 -135 40 -47 76 -88 79 -91 11 -9 84 -133 111 -190
102 -209 174 -436 238 -752 15 -76 -9 -80 443 71 227 76 439 152 472 168 57
29 129 57 350 139 113 41 118 45 347 243 164 141 167 144 173 190 3 25 10 70
14 99 11 72 -2 135 -49 231 -22 45 -40 88 -40 95 0 8 -21 58 -46 112 -26 55
-71 150 -100 213 -30 62 -54 115 -54 118 0 2 -42 90 -94 196 -51 106 -104 215
-116 242 -12 28 -64 138 -115 245 -50 107 -99 211 -108 230 -19 44 -74 164
-95 210 -9 19 -25 51 -37 70 -11 19 -36 69 -55 110 -18 41 -57 126 -87 189
-29 62 -53 117 -53 122 0 5 -81 171 -180 369 -99 198 -180 368 -180 377 0 10
-9 42 -20 71 -25 66 -25 94 0 117 11 10 20 26 20 35 0 14 13 18 61 24 42 4 89
19 150 49 117 56 117 56 169 -73 46 -115 186 -415 210 -450 5 -8 25 -49 44
-90 66 -147 80 -177 138 -300 33 -69 77 -163 98 -210 21 -47 83 -178 139 -292
56 -114 101 -210 101 -212 0 -3 22 -49 48 -103 80 -162 162 -373 162 -415 0
-20 49 -169 59 -180 7 -8 198 55 211 69 4 4 18 37 30 73 36 105 78 206 114
278 18 37 50 119 71 182 l37 115 190 191 c186 187 192 192 271 224 45 18 132
59 192 90 111 57 271 124 355 149 25 8 70 22 101 32 30 11 75 19 100 19 24 0
73 5 109 10 63 9 93 7 250 -20 119 -20 278 -89 389 -167 156 -110 362 -367
417 -519 46 -126 37 -119 141 -122 l92 -3 68 59 c118 102 701 681 747 743 25
32 54 84 65 115 21 54 21 59 6 182 -21 170 -29 196 -102 345 -35 70 -63 133
-63 139 0 5 -30 67 -67 137 -106 201 -147 283 -164 326 -9 22 -26 63 -37 90
-11 28 -33 86 -47 130 -15 44 -32 86 -37 93 -7 8 -11 84 -10 202 l0 189 30 43
c16 24 42 68 57 98 39 78 132 219 164 249 15 15 50 60 78 102 l51 75 69 16
c37 9 100 25 138 36 97 28 105 29 240 31 73 1 156 -5 210 -15z"/>
<path d="M26930 10834 c-14 -3 -57 -21 -97 -40 -89 -43 -184 -134 -233 -225
-34 -62 -35 -68 -38 -191 -6 -181 15 -244 189 -587 95 -188 117 -220 149 -221
29 0 318 180 671 418 84 57 164 108 178 114 14 5 50 25 79 45 l52 36 0 106 0
106 -80 69 c-74 64 -217 174 -265 203 -132 80 -195 112 -265 132 -25 7 -58 18
-75 23 -34 11 -228 19 -265 12z m390 -190 l225 -96 83 -81 82 -82 0 -65 0 -65
-378 -232 c-207 -127 -383 -233 -390 -235 -9 -2 -67 81 -153 217 l-138 220 -1
150 0 150 107 107 108 108 115 0 115 0 225 -96z"/>
<path d="M24400 8248 c-204 -58 -330 -111 -509 -211 -157 -87 -252 -160 -353
-271 -135 -150 -191 -241 -274 -451 -84 -214 -152 -513 -184 -810 -5 -44 -16
-125 -25 -180 -8 -55 -13 -110 -10 -122 8 -33 45 -63 77 -63 24 0 474 189 716
301 35 16 65 29 67 29 1 0 51 23 109 50 58 28 108 50 110 50 23 0 620 297 698
346 158 102 327 259 374 347 22 41 44 179 44 273 0 185 -141 461 -308 602 -28
23 -57 42 -64 42 -7 0 -22 6 -33 13 -11 8 -45 22 -75 32 -30 9 -65 21 -78 26
-31 12 -238 10 -282 -3z m400 -210 l182 -153 58 -115 58 -115 -29 -170 c-16
-94 -29 -173 -29 -177 0 -3 -86 -78 -190 -165 l-190 -158 -718 -312 c-394
-172 -720 -313 -724 -313 -5 0 -8 120 -8 266 l0 266 124 342 c69 187 128 349
132 359 11 29 778 537 811 537 16 1 89 14 163 29 74 16 145 29 157 30 14 1 84
-51 203 -151z"/>
<path d="M19630 6174 c-41 -8 -84 -18 -95 -22 -120 -49 -233 -136 -290 -227
-36 -57 -78 -165 -95 -245 -17 -80 -8 -320 14 -390 44 -134 58 -161 124 -227
129 -130 270 -157 567 -109 50 8 140 22 200 31 61 9 133 20 160 25 28 5 95 14
150 21 55 7 112 18 127 26 54 26 51 44 -61 453 -65 232 -97 309 -169 400 -186
235 -373 313 -632 264z m415 -224 l120 -120 86 -316 c56 -205 82 -317 75 -319
-6 -2 -191 -29 -410 -60 l-399 -56 -144 143 -143 143 0 180 0 179 85 143 c82
137 87 143 128 154 23 6 71 19 107 29 50 14 101 19 220 19 l155 1 120 -120z"/>
<path d="M11154 10859 c-114 -113 -185 -206 -1115 -1455 l-993 -1334 -133
-100 c-73 -55 -139 -110 -147 -122 -25 -39 -157 -516 -150 -542 3 -14 14 -32
24 -41 9 -9 102 -50 205 -91 145 -58 194 -74 217 -69 24 6 267 300 1371 1658
738 909 1350 1667 1359 1687 15 28 18 60 18 171 0 185 -2 190 -111 244 -59 30
-102 45 -127 45 -21 0 -85 16 -142 35 -57 19 -115 35 -129 35 -18 0 -57 -32
-147 -121z m353 -51 c37 -28 70 -54 73 -57 3 -4 32 -26 65 -51 78 -57 96 -80
90 -107 -5 -20 -137 -191 -477 -616 -57 -71 -134 -173 -173 -227 -38 -54 -124
-167 -190 -251 -66 -83 -149 -188 -183 -233 -35 -44 -87 -107 -115 -139 -28
-32 -60 -71 -71 -87 -12 -16 -97 -126 -191 -245 -93 -119 -195 -251 -225 -294
-67 -94 -206 -272 -255 -326 -33 -36 -141 -173 -573 -729 -74 -94 -136 -178
-140 -186 -3 -8 -23 -33 -45 -54 l-38 -40 -62 34 c-74 41 -208 141 -242 182
-31 36 -24 55 56 151 46 55 60 81 75 138 10 38 20 73 23 77 3 4 35 30 71 57
94 70 128 103 167 165 20 30 39 57 42 60 4 3 31 37 61 75 30 39 60 75 66 80 6
6 51 62 100 125 49 63 138 178 199 255 201 254 405 525 1080 1435 334 452 472
629 543 702 56 57 100 94 108 91 8 -3 14 -1 14 4 0 14 50 63 65 63 8 0 44 -23
82 -52z"/>
<path d="M10513 8328 l-291 -110 -280 -352 c-153 -193 -284 -361 -291 -374 -9
-16 -11 -119 -9 -385 l3 -362 104 -175 c57 -96 111 -183 119 -192 8 -10 151
-93 317 -185 l303 -168 43 -87 c24 -48 41 -90 38 -93 -3 -2 -76 -39 -162 -80
l-157 -75 -183 0 -183 0 -324 130 -325 130 -100 99 c-55 54 -110 104 -122 110
-13 6 -76 11 -152 11 -172 0 -162 10 -219 -220 l-18 -75 -60 -33 c-71 -39 -84
-55 -84 -99 0 -45 141 -327 172 -345 13 -7 193 -90 400 -184 l377 -172 360
-37 360 -37 323 107 323 108 170 168 171 169 59 0 60 0 30 -58 30 -57 505
-252 505 -252 424 -35 424 -35 164 66 164 65 607 -338 607 -338 113 -4 c63 -2
126 -1 140 3 33 8 456 426 471 464 5 14 40 161 78 326 l68 300 0 365 0 365
-94 220 c-52 121 -103 240 -114 263 -20 44 -22 45 -323 195 l-302 150 -359
-71 c-245 -49 -366 -78 -383 -91 -18 -13 -709 -904 -864 -1114 -13 -17 -57 -2
-710 235 l-696 253 0 101 0 102 170 375 170 374 0 262 0 261 -70 140 c-50 100
-70 151 -70 178 0 29 -7 45 -27 64 -16 14 -167 118 -338 232 l-310 206 -230 0
-230 -1 -292 -111z m735 -82 c20 -13 71 -33 112 -46 110 -32 189 -75 287 -156
174 -143 257 -286 314 -539 18 -77 18 -278 1 -375 -44 -241 -111 -439 -234
-685 -64 -128 -94 -182 -115 -203 -27 -27 -44 -74 -41 -109 3 -42 -28 -23 333
-198 267 -130 264 -128 810 -326 l439 -159 42 25 c23 13 60 46 81 72 92 111
272 356 383 521 143 212 171 248 286 375 49 54 105 118 124 141 27 33 44 45
74 50 21 4 62 17 90 30 103 46 137 56 281 80 87 15 223 8 262 -12 12 -7 31
-12 42 -12 60 0 271 -98 352 -163 97 -78 197 -229 246 -372 24 -68 56 -219 74
-346 12 -90 7 -270 -10 -384 -6 -33 -17 -105 -26 -160 -8 -55 -19 -118 -24
-140 -6 -22 -19 -87 -31 -145 -45 -220 -58 -243 -226 -395 -54 -49 -124 -113
-154 -141 -89 -83 -117 -104 -139 -104 -25 0 -23 -1 -306 147 -115 61 -259
136 -320 168 -60 31 -132 70 -160 85 -113 62 -154 85 -245 132 -52 28 -99 54
-105 58 -5 4 -69 38 -141 74 -159 80 -177 82 -265 24 -140 -91 -235 -122 -413
-138 -134 -12 -216 -1 -311 41 -50 22 -230 89 -239 89 -9 0 -309 147 -356 175
-48 28 -134 65 -152 65 -44 0 -299 141 -456 252 -149 106 -195 130 -226 119
-13 -5 -54 -44 -92 -86 -84 -93 -337 -285 -376 -285 -7 0 -26 -8 -43 -18 -110
-66 -354 -143 -550 -174 -79 -12 -320 -5 -380 10 -22 6 -76 18 -120 27 -44 9
-107 26 -140 37 -79 26 -315 117 -339 130 -10 5 -78 44 -150 85 -72 42 -147
85 -166 96 -72 40 -169 109 -174 124 -4 8 1 29 9 46 8 16 15 34 15 40 0 5 13
24 29 43 43 48 97 151 111 210 l11 51 52 6 c47 6 57 3 110 -28 32 -19 61 -35
64 -35 3 0 33 -20 67 -43 223 -159 511 -286 746 -332 47 -9 104 -21 127 -26
54 -12 162 -12 216 0 23 5 80 18 127 28 96 20 335 131 395 184 46 41 45 66 -6
173 l-41 86 -160 100 c-88 56 -184 114 -214 130 -233 127 -455 386 -507 595
-45 177 -47 247 -13 385 16 65 22 113 18 151 l-4 55 69 85 c38 46 113 143 167
214 54 72 117 150 140 175 24 25 66 75 94 111 l51 66 129 47 c71 26 184 69
253 96 l124 49 188 0 c181 1 189 0 225 -23z"/>
<path d="M10728 7780 c-106 -39 -172 -85 -276 -194 -94 -99 -146 -175 -190
-278 -23 -56 -26 -76 -27 -178 0 -150 15 -183 134 -300 89 -87 113 -104 486
-339 l220 -138 87 29 c86 29 88 31 122 86 48 81 134 256 163 331 17 46 29 115
43 245 26 245 26 289 -6 378 -61 169 -169 273 -366 353 -83 33 -94 35 -200 35
-99 -1 -123 -5 -190 -30z m336 -122 l189 -63 52 -80 53 -80 -33 -321 -33 -321
-58 -114 -59 -114 -60 -18 c-35 -10 -67 -15 -77 -10 -9 4 -166 116 -347 248
l-331 240 0 167 0 167 89 119 89 119 148 61 c82 33 158 61 169 61 11 1 105
-27 209 -61z"/>
<path d="M14375 6229 c-138 -57 -327 -249 -422 -426 -14 -26 -47 -79 -74 -116
-119 -163 -118 -184 11 -246 25 -12 77 -40 115 -62 39 -22 95 -51 125 -66 146
-68 180 -85 250 -123 81 -45 209 -113 333 -179 65 -35 86 -41 136 -41 79 0
100 20 139 130 55 155 72 264 72 464 0 98 -5 197 -11 220 -68 263 -146 375
-309 441 -34 14 -78 19 -180 22 -119 3 -141 1 -185 -18z m412 -171 l81 -83 31
-282 32 -281 -54 -134 -53 -133 -61 -3 -62 -3 -371 217 c-204 119 -370 220
-368 224 2 4 39 90 82 192 l79 185 181 91 181 91 110 0 110 1 82 -82z"/>
<path d="M17965 6103 c-62 -14 -238 -77 -257 -93 -23 -18 -23 -23 -26 -252
l-3 -233 141 -420 140 -420 0 -347 0 -348 -189 -252 -189 -252 -373 -67 c-350
-64 -375 -70 -396 -94 -23 -26 -23 -29 -23 -334 0 -306 0 -308 23 -328 12 -12
77 -39 145 -61 l123 -39 429 107 c235 59 433 111 439 114 15 10 564 695 579
723 9 16 12 235 12 822 l0 801 -107 427 c-83 334 -111 432 -128 449 -13 13
-76 39 -148 63 -121 39 -148 44 -192 34z m230 -187 c17 -25 30 -65 44 -131 5
-22 21 -83 35 -135 14 -52 35 -135 46 -185 12 -49 29 -119 39 -155 75 -261
166 -861 166 -1085 -1 -205 -49 -490 -117 -690 -37 -108 -107 -228 -206 -354
-88 -111 -150 -165 -286 -251 -132 -82 -172 -103 -256 -133 -177 -62 -605
-126 -656 -99 -37 20 -48 87 -68 424 -2 34 2 52 13 62 13 12 289 67 606 121
17 3 58 18 92 34 60 29 66 35 240 268 98 131 184 252 190 268 7 17 17 57 23
89 13 78 13 501 -1 624 -10 94 -49 310 -69 382 -5 19 -19 73 -30 119 -12 46
-50 170 -85 275 -35 105 -65 216 -68 246 -3 30 -15 86 -25 124 l-20 69 24 24
c13 13 24 32 24 43 0 31 115 64 193 56 35 -4 73 -3 87 3 38 15 48 13 65 -13z"/>
</g>
</svg>
