<svg width="1052" height="214" viewBox="0 0 1052 214" fill="none" xmlns="http://www.w3.org/2000/svg">
<path d="M23.6213 179C16.1546 179 10.4479 177.133 6.50125 173.4C2.55458 169.667 0.58125 163.693 0.58125 155.48V144.76H18.9813V155H40.9013C44.4213 155 46.9813 154.467 48.5813 153.4C50.2879 152.333 51.1413 150.573 51.1413 148.12C51.1413 146.947 50.8746 145.56 50.3413 143.96C49.9146 142.36 49.4346 140.76 48.9013 139.16L34.8213 98.68L55.3013 91.48L71.4613 137.72C72.6346 141.24 73.8079 144.12 74.9813 146.36C76.1546 148.6 77.3813 150.36 78.6613 151.64C80.0479 152.92 81.4879 153.827 82.9813 154.36C84.5813 154.787 86.4479 155 88.5813 155H93.3813V174.2L88.5813 179C84.1013 179 80.2079 178.68 76.9013 178.04C73.5946 177.4 70.6079 176.227 67.9413 174.52C65.3813 172.813 63.0346 170.573 60.9013 167.8C58.8746 165.027 56.9013 161.453 54.9813 157.08L54.3413 157.4C53.7013 161.24 52.7946 164.547 51.6213 167.32C50.5546 170.093 49.1679 172.333 47.4613 174.04C45.7546 175.747 43.6746 177.027 41.2213 177.88C38.7679 178.627 35.8346 179 32.4213 179H23.6213ZM88.6375 159.8L93.4375 155H98.2375C106.771 155 111.038 151.267 111.038 143.8V120.92H128.638V143.8C128.638 151.267 132.371 155 139.838 155H146.238V174.2L141.438 179C132.904 179 126.398 177.293 121.918 173.88C117.544 170.36 114.611 164.867 113.118 157.4H112.158C110.664 164.867 108.104 170.36 104.478 173.88C100.851 177.293 95.5708 179 88.6375 179V159.8ZM130.878 213.4C128.104 213.4 125.811 212.547 123.998 210.84C122.291 209.133 121.438 206.413 121.438 202.68C121.438 198.947 122.291 196.227 123.998 194.52C125.811 192.813 128.104 191.96 130.878 191.96H134.078C136.851 191.96 139.091 192.813 140.798 194.52C142.611 196.227 143.518 198.947 143.518 202.68C143.518 206.413 142.611 209.133 140.798 210.84C139.091 212.547 136.851 213.4 134.078 213.4H130.878ZM105.598 213.4C102.824 213.4 100.531 212.547 98.7175 210.84C97.0108 209.133 96.1575 206.413 96.1575 202.68C96.1575 198.947 97.0108 196.227 98.7175 194.52C100.531 192.813 102.824 191.96 105.598 191.96H108.798C111.571 191.96 113.811 192.813 115.518 194.52C117.331 196.227 118.238 198.947 118.238 202.68C118.238 206.413 117.331 209.133 115.518 210.84C113.811 212.547 111.571 213.4 108.798 213.4H105.598ZM141.45 159.8L146.25 155H163.37V174.2L158.57 179H141.45V159.8ZM158.637 159.8L163.438 155H180.558V174.2L175.758 179H158.637V159.8ZM175.825 159.8L180.625 155H197.745V174.2L192.945 179H175.825V159.8ZM193.012 159.8L197.812 155H214.933V174.2L210.133 179H193.012V159.8ZM210.2 159.8L215 155H232.12V174.2L227.32 179H210.2V159.8ZM227.387 159.8L232.188 155H249.308V174.2L244.508 179H227.387V159.8ZM244.575 159.8L249.375 155H266.495V174.2L261.695 179H244.575V159.8ZM261.762 159.8L266.562 155H283.683V174.2L278.883 179H261.762V159.8ZM278.95 159.8L283.75 155H300.87V174.2L296.07 179H278.95V159.8ZM296.137 159.8L300.938 155H318.058V174.2L313.258 179H296.137V159.8ZM313.325 159.8L318.125 155H335.245V174.2L330.445 179H313.325V159.8ZM330.512 159.8L335.312 155H352.433V174.2L347.633 179H330.512V159.8ZM347.7 159.8L352.5 155H369.62V174.2L364.82 179H347.7V159.8ZM364.887 159.8L369.688 155H386.808V174.2L382.008 179H364.887V159.8ZM382.075 159.8L386.875 155H403.995V174.2L399.195 179H382.075V159.8ZM399.262 159.8L404.062 155H421.183V174.2L416.383 179H399.262V159.8ZM416.45 159.8L421.25 155H438.37V174.2L433.57 179H416.45V159.8ZM433.637 159.8L438.438 155H455.558V174.2L450.758 179H433.637V159.8ZM450.825 159.8L455.625 155H472.745V174.2L467.945 179H450.825V159.8ZM468.012 159.8L472.812 155H489.933V174.2L485.133 179H468.012V159.8ZM485.2 159.8L490 155H507.12V174.2L502.32 179H485.2V159.8ZM502.387 159.8L507.188 155H524.308V174.2L519.508 179H502.387V159.8ZM519.575 159.8L524.375 155H541.495V174.2L536.695 179H519.575V159.8ZM536.762 159.8L541.562 155H558.683V174.2L553.883 179H536.762V159.8ZM553.95 159.8L558.75 155H575.87V174.2L571.07 179H553.95V159.8ZM571.137 159.8L575.938 155H593.058V174.2L588.258 179H571.137V159.8ZM588.325 159.8L593.125 155H610.245V174.2L605.445 179H588.325V159.8ZM605.512 159.8L610.312 155H627.433V174.2L622.633 179H605.512V159.8ZM622.7 159.8L627.5 155H644.62V174.2L639.82 179H622.7V159.8ZM639.887 159.8L644.688 155H661.808V174.2L657.008 179H639.887V159.8ZM657.075 159.8L661.875 155H678.995V174.2L674.195 179H657.075V159.8ZM674.262 159.8L679.062 155H696.183V174.2L691.383 179H674.262V159.8ZM691.45 159.8L696.25 155H713.37V174.2L708.57 179H691.45V159.8ZM805.726 103.96L766.046 122.2L761.406 111.96L801.086 93.56L805.726 103.96ZM708.637 159.8L713.438 155H713.598C718.718 155 722.504 154.413 724.958 153.24C727.518 151.96 729.544 149.773 731.038 146.68L737.278 133.72L753.118 141.4L747.518 153.08C750.078 154.253 752.691 155.267 755.358 156.12C758.024 156.867 760.744 157.24 763.518 157.24C768.104 157.24 771.411 156.28 773.438 154.36C775.464 152.333 776.478 148.813 776.478 143.8V133.72H794.078V143.8C794.078 148.28 794.824 151.533 796.318 153.56C797.918 155.587 800.051 156.6 802.718 156.6H804.318C806.558 156.6 808.371 155.8 809.758 154.2C811.144 152.493 811.838 149.827 811.838 146.2C811.838 144.707 811.678 142.84 811.358 140.6C811.038 138.253 810.611 135.427 810.078 132.12L808.638 123.96L826.078 121.08L827.358 129.24C827.891 132.333 828.264 135.267 828.478 138.04C828.691 140.707 828.798 143.427 828.798 146.2C828.798 158.147 826.718 166.947 822.558 172.6C818.504 178.147 812.158 180.92 803.518 180.92C795.944 180.92 790.238 179.107 786.398 175.48C782.558 171.853 779.944 166.253 778.558 158.68H777.598C776.744 166.36 774.824 172.013 771.838 175.64C768.958 179.16 765.118 180.92 760.318 180.92C757.224 180.92 754.131 180.333 751.038 179.16C748.051 178.093 744.104 176.12 739.198 173.24L735.838 171.32C732.531 174.52 728.744 176.6 724.478 177.56C720.318 178.52 715.038 179 708.637 179V159.8ZM998.438 38.96L1017.32 30.32V29.52C1015.18 28.1333 1013.53 26.3733 1012.36 24.24C1011.18 22.1067 1010.6 19.76 1010.6 17.2C1010.6 12.6133 1012.09 8.77333 1015.08 5.67999C1018.17 2.48 1022.06 0.879999 1026.76 0.879999C1031.34 0.879999 1035.13 2.37333 1038.12 5.36C1041.21 8.34667 1042.76 12.1333 1042.76 16.72C1042.76 26.32 1037.21 33.6267 1026.12 38.64L1003.08 49.2L998.438 38.96ZM1020.84 16.72C1020.84 19.0667 1022.6 21.0933 1026.12 22.8L1029 24.24C1030.17 23.3867 1031.02 22.5333 1031.56 21.68C1032.09 20.72 1032.36 19.4933 1032.36 18C1032.36 16.2933 1031.77 14.9067 1030.6 13.84C1029.53 12.6667 1028.09 12.08 1026.28 12.08C1024.78 12.08 1023.5 12.5067 1022.44 13.36C1021.37 14.2133 1020.84 15.3333 1020.84 16.72ZM974.766 201.88C969.22 201.88 964.473 201.4 960.526 200.44C956.58 199.48 953.113 197.72 950.126 195.16C947.14 192.6 944.42 189.133 941.966 184.76C939.62 180.493 937.22 175 934.766 168.28L930.606 157.08L929.966 157.4C929.326 161.24 928.42 164.547 927.246 167.32C926.18 170.093 924.793 172.333 923.086 174.04C921.38 175.747 919.3 177.027 916.846 177.88C914.393 178.627 911.46 179 908.046 179H899.246C891.78 179 886.073 177.133 882.126 173.4C878.18 169.667 876.206 163.693 876.206 155.48V144.76H894.606V155H916.526C920.046 155 922.606 154.467 924.206 153.4C925.913 152.333 926.766 150.573 926.766 148.12C926.766 146.947 926.5 145.56 925.966 143.96C925.54 142.36 925.06 140.76 924.526 139.16L910.446 98.68L930.926 91.48L955.566 162.04C956.633 165.24 957.7 167.907 958.766 170.04C959.94 172.067 961.273 173.667 962.766 174.84C963.193 171.533 964.046 168.707 965.326 166.36C966.606 163.907 968.42 161.773 970.766 159.96C973.113 158.04 976.046 156.333 979.566 154.84C983.193 153.347 987.566 151.8 992.686 150.2L1034.13 137.24V136.28H962.126V119.96C962.126 114.84 962.446 110.627 963.086 107.32C963.726 103.907 964.846 101.08 966.446 98.84C968.046 96.4933 970.233 94.5733 973.006 93.08C975.78 91.5867 979.3 90.1467 983.566 88.76L1005.81 81.88V73.56C1005.81 68.6533 1007.25 65.08 1010.13 62.84C1013.11 60.6 1016.85 60.0133 1021.33 61.08L1041.97 65.88V91.48L974.926 112.6V113.56H1051.09V152.92L974.926 176.92V177.88H1006.61L1006.77 201.88H974.766Z" fill="white"/>
</svg>
